<svg width="87" height="87" viewBox="0 0 87 87" fill="none" xmlns="http://www.w3.org/2000/svg">
<path d="M86.9008 43.3001C86.9008 51.8683 84.3588 60.2439 79.5965 67.3667C74.8342 74.4895 68.0657 80.0393 60.1479 83.3136C52.23 86.5879 43.5187 87.4395 35.1166 85.7607C26.7145 84.0818 18.9993 79.9479 12.9477 73.8823C6.89606 67.8167 2.78007 60.092 1.12064 51.6861C-0.538787 43.2801 0.332972 34.5708 3.62559 26.6605C6.9182 18.7502 12.4836 11.9947 19.6174 7.24883C26.7512 2.50301 35.1326 -0.0196724 43.7008 0.000115525C55.1673 0.0265972 66.1552 4.60025 74.2539 12.7177C82.3527 20.8352 86.9008 31.8335 86.9008 43.3001Z" fill="#EF9F3F"/>
<path d="M60.3621 33.5004C60.1842 34.2311 59.9154 34.9365 59.562 35.6004C58.8881 36.6073 58.0418 37.4875 57.062 38.2004L48.062 44.4004L45.562 46.1004L45.062 46.4004C44.5526 46.7199 43.9634 46.8893 43.362 46.8893C42.7607 46.8893 42.1715 46.7199 41.662 46.4004L39.7621 45.3004L29.662 38.2004C28.4694 37.3627 27.4788 36.2694 26.7621 35.0004C26.4284 34.3964 26.2703 33.7111 26.3056 33.0219C26.341 32.3327 26.5684 31.6671 26.9621 31.1004C27.1887 30.7452 27.4982 30.4504 27.864 30.2414C28.2298 30.0323 28.641 29.9153 29.062 29.9004H56.9621C57.743 29.8155 58.5261 30.0402 59.1431 30.5263C59.7601 31.0125 60.1619 31.7213 60.262 32.5004H60.3621V33.5004Z" fill="white"/>
<path d="M60.3621 53.2004L59.762 52.6004L52.0621 45.0004C52.0621 44.8671 51.9621 44.7671 51.7621 44.7004L52.162 44.5004L58.162 40.3004L60.3621 38.5004V53.2004Z" fill="white"/>
<path d="M27.3621 55.9005C30.6621 52.7005 33.7621 49.5004 37.0621 46.2004L38.0621 47.0004C39.0568 47.8012 40.1701 48.4423 41.3621 48.9005C41.9944 49.17 42.6747 49.309 43.3621 49.309C44.0494 49.309 44.7297 49.17 45.3621 48.9005C46.4607 48.4208 47.5009 47.8168 48.4621 47.1004L49.5621 46.3004L59.262 55.9005C58.7655 56.277 58.1798 56.5181 57.5621 56.6004H29.5621C28.7718 56.6149 27.9987 56.369 27.3621 55.9005Z" fill="white"/>
<path d="M34.7621 44.6004L26.3621 53.1004V38.6004C27.9532 39.9773 29.6594 41.2152 31.4621 42.3004L34.7621 44.6004Z" fill="white"/>
</svg>
