<svg width="24" height="25" viewBox="0 0 24 25" fill="none" xmlns="http://www.w3.org/2000/svg">
<path d="M12 0.543945C18.6274 0.543945 24 5.91653 24 12.5439C24 18.6792 19.3955 23.7384 13.4538 24.456V16.2109L16.7001 16.2109L17.3734 12.5439H13.4538V11.247C13.4538 10.2781 13.6439 9.60734 14.0799 9.17878C14.5159 8.75021 15.1979 8.56388 16.1817 8.56388C16.4307 8.56388 16.6599 8.56635 16.8633 8.57131C17.1591 8.57851 17.4002 8.59095 17.568 8.60861V5.28442C17.501 5.26579 17.4218 5.24715 17.3331 5.22881C17.1321 5.18725 16.8822 5.14719 16.6136 5.11201C16.0523 5.03848 15.4093 4.98625 14.9594 4.98625C13.1424 4.98625 11.7692 5.37497 10.8107 6.18013C9.65388 7.15185 9.10108 8.73016 9.10108 10.9638V12.5439H6.62659V16.2109H9.10108V24.1906C3.87432 22.8938 0 18.1717 0 12.5439C0 5.91653 5.37259 0.543945 12 0.543945Z" fill="black"/>
</svg>
