<svg width="24" height="25" viewBox="0 0 24 25" fill="none" xmlns="http://www.w3.org/2000/svg">
<path d="M18.3952 7.52212C17.6005 7.52368 16.9543 6.8802 16.9528 6.08548C16.9512 5.29076 17.5947 4.64457 18.3898 4.64302C19.1848 4.64146 19.831 5.28531 19.8326 6.08004C19.8338 6.87476 19.1903 7.52057 18.3952 7.52212Z" fill="black"/>
<path fill-rule="evenodd" clip-rule="evenodd" d="M12.0115 18.661C8.60909 18.6676 5.8451 15.9149 5.8385 12.5117C5.83188 9.10923 8.58536 6.34481 11.9878 6.3382C15.3909 6.33159 18.1553 9.0859 18.1619 12.4879C18.1685 15.8912 15.4143 18.6544 12.0115 18.661ZM11.992 8.50035C9.78365 8.50424 7.99594 10.2986 7.99983 12.5074C8.0041 14.7166 9.79882 16.5039 12.0072 16.4996C14.2164 16.4954 16.0041 14.7014 15.9998 12.4922C15.9955 10.283 14.2008 8.49608 11.992 8.50035Z" fill="black"/>
<path fill-rule="evenodd" clip-rule="evenodd" d="M4.1192 1.14648C4.88126 0.847876 5.75333 0.643362 7.03015 0.583098C8.31011 0.521673 8.71872 0.507671 11.9769 0.501453C15.2358 0.495234 15.6444 0.507669 16.9244 0.564433C18.2016 0.619643 19.0741 0.821049 19.8377 1.11654C20.6277 1.42097 21.298 1.83078 21.966 2.49603C22.6339 3.16205 23.0453 3.83002 23.3536 4.6189C23.6518 5.38174 23.8563 6.25306 23.917 7.53068C23.9776 8.81023 23.9924 9.21847 23.9986 12.4771C24.0048 15.7353 23.9916 16.1443 23.9356 17.425C23.88 18.7014 23.679 19.5743 23.3835 20.3375C23.0783 21.1276 22.6693 21.7979 22.004 22.4659C21.3388 23.1342 20.6701 23.5452 19.8812 23.8539C19.1184 24.1517 18.2471 24.3562 16.9702 24.4173C15.6903 24.4779 15.2817 24.4923 12.0224 24.4985C8.76459 24.5048 8.35598 24.4923 7.07605 24.4359C5.79882 24.38 4.92597 24.1789 4.16275 23.8838C3.37271 23.5782 2.70242 23.1696 2.03446 22.504C1.36611 21.8383 0.954386 21.17 0.646458 20.3811C0.347858 19.6186 0.144107 18.7469 0.0830727 17.4705C0.0220359 16.1901 0.00765506 15.7811 0.00143906 12.5229C-0.00480094 9.26435 0.00803667 8.85611 0.0640167 7.57616C0.1204 6.29855 0.320637 5.42606 0.61613 4.66206C0.921328 3.87239 1.33035 3.20248 1.99637 2.53413C2.6616 1.86616 3.33033 1.45402 4.1192 1.14648ZM4.94154 21.8679C5.36494 22.0308 6.00023 22.2252 7.17014 22.2761C8.43607 22.3309 8.81514 22.343 12.0185 22.3368C15.223 22.3309 15.6021 22.3173 16.8676 22.2579C18.0363 22.2022 18.6716 22.0055 19.0939 21.8407C19.6541 21.6218 20.0531 21.3601 20.4722 20.9406C20.8913 20.5195 21.1506 20.1194 21.3676 19.5591C21.5309 19.1354 21.7249 18.4996 21.7758 17.3297C21.8314 16.0646 21.8431 15.6851 21.8368 12.4809C21.831 9.27757 21.8174 8.8981 21.7572 7.63254C21.7019 6.46339 21.5056 5.82808 21.3404 5.40623C21.1215 4.84519 20.8606 4.44705 20.4399 4.02753C20.0192 3.60801 19.6191 3.34945 19.0581 3.1325C18.6355 2.96881 17.9994 2.77518 16.8303 2.72426C15.5643 2.66865 15.1849 2.65737 11.9808 2.6636C8.77743 2.66982 8.39836 2.68264 7.13281 2.74253C5.9633 2.79812 5.32877 2.99447 4.90575 3.15972C4.34587 3.37861 3.94696 3.63872 3.52746 4.0598C3.10871 4.48087 2.84938 4.88018 2.63244 5.44161C2.46993 5.86464 2.27434 6.50072 2.2242 7.66987C2.16898 8.93581 2.15733 9.31529 2.16355 12.5187C2.16939 15.7228 2.18298 16.1023 2.24248 17.3671C2.29729 18.537 2.49518 19.1715 2.65966 19.5949C2.87855 20.1544 3.13944 20.5533 3.55973 20.9729C3.98081 21.3908 4.38088 21.6509 4.94154 21.8679Z" fill="black"/>
</svg>
