<svg width="25" height="25" viewBox="0 0 25 25" fill="none" xmlns="http://www.w3.org/2000/svg">
<path d="M22.3519 0.5H1.90029C0.920605 0.5 0.128418 1.27344 0.128418 2.22969V22.7656C0.128418 23.7219 0.920605 24.5 1.90029 24.5H22.3519C23.3315 24.5 24.1284 23.7219 24.1284 22.7703V2.22969C24.1284 1.27344 23.3315 0.5 22.3519 0.5ZM7.24873 20.9516H3.68623V9.49531H7.24873V20.9516ZM5.46748 7.93438C4.32373 7.93438 3.40029 7.01094 3.40029 5.87187C3.40029 4.73281 4.32373 3.80937 5.46748 3.80937C6.60654 3.80937 7.52998 4.73281 7.52998 5.87187C7.52998 7.00625 6.60654 7.93438 5.46748 7.93438ZM20.58 20.9516H17.0222V15.3828C17.0222 14.0562 16.9987 12.3453 15.1706 12.3453C13.319 12.3453 13.0378 13.7937 13.0378 15.2891V20.9516H9.48467V9.49531H12.8972V11.0609H12.944C13.4175 10.1609 14.58 9.20938 16.3097 9.20938C19.9144 9.20938 20.58 11.5813 20.58 14.6656V20.9516Z" fill="black"/>
</svg>
