<svg width="87" height="87" viewBox="0 0 87 87" fill="none" xmlns="http://www.w3.org/2000/svg">
<path d="M86.7007 43.3C86.6809 51.8399 84.1305 60.1823 79.3716 67.2733C74.6127 74.3643 67.8589 79.8858 59.9634 83.1402C52.0679 86.3946 43.385 87.2358 35.0117 85.5577C26.6383 83.8795 18.9501 79.7573 12.9185 73.7117C6.88685 67.6661 2.78238 59.9684 1.12359 51.5912C-0.535203 43.2139 0.326125 34.533 3.59875 26.6451C6.87137 18.7571 12.4084 12.0161 19.5105 7.27362C26.6125 2.53115 34.9608 2.28801e-05 43.5007 1.55069e-10C49.1822 -1.52217e-05 54.808 1.12072 60.0557 3.29797C65.3035 5.47523 70.0703 8.6662 74.0831 12.6883C78.0959 16.7104 81.2759 21.4846 83.441 26.7374C85.6061 31.9902 86.7138 37.6185 86.7007 43.3Z" fill="#EF9F3F"/>
<path d="M44.4488 26.2998L46.4488 26.6998C48.8011 27.2665 50.9318 28.5198 52.5699 30.3004C54.2081 32.081 55.2798 34.3086 55.6488 36.6998C56.0044 38.75 55.797 40.8582 55.0488 42.7998C54.0228 45.8526 52.5754 48.7473 50.7488 51.3998C48.8835 54.337 46.7762 57.1133 44.4488 59.6998C44.3556 59.8502 44.2275 59.9759 44.0754 60.0662C43.9232 60.1565 43.7515 60.2088 43.5749 60.2186C43.3982 60.2284 43.2218 60.1955 43.0606 60.1226C42.8994 60.0497 42.7581 59.9389 42.6488 59.7998C39.3143 55.989 36.3977 51.832 33.9488 47.3998C32.8136 45.3721 32.0037 43.1788 31.5488 40.8998C31.2033 39.2196 31.2189 37.485 31.5947 35.8113C31.9706 34.1375 32.698 32.5629 33.7288 31.1917C34.7595 29.8204 36.0701 28.6841 37.5735 27.858C39.0769 27.0318 40.7387 26.5348 42.4488 26.3998H44.4488V26.2998ZM37.3488 38.5998C37.3488 39.826 37.7125 41.0248 38.3937 42.0444C39.075 43.064 40.0433 43.8586 41.1762 44.3279C42.3091 44.7971 43.5557 44.9199 44.7584 44.6807C45.9611 44.4414 47.0658 43.851 47.9329 42.9839C48.8 42.1168 49.3905 41.0121 49.6297 39.8094C49.8689 38.6067 49.7461 37.3601 49.2769 36.2272C48.8076 35.0943 48.013 34.126 46.9934 33.4447C45.9738 32.7634 44.7751 32.3998 43.5489 32.3998C42.7347 32.3998 41.9284 32.5602 41.1762 32.8718C40.424 33.1833 39.7405 33.64 39.1648 34.2158C38.5891 34.7915 38.1324 35.475 37.8208 36.2272C37.5092 36.9794 37.3488 37.7856 37.3488 38.5998Z" fill="white"/>
</svg>
