<svg width="87" height="87" viewBox="0 0 87 87" fill="none" xmlns="http://www.w3.org/2000/svg">
<path d="M86.9008 43.3C86.9008 51.8639 84.3613 60.2356 79.6034 67.3562C74.8456 74.4769 68.083 80.0267 60.171 83.304C52.259 86.5812 43.5528 87.4387 35.1534 85.768C26.754 84.0973 19.0387 79.9733 12.9831 73.9177C6.92746 67.8621 2.80353 60.1468 1.13279 51.7474C-0.53795 43.3481 0.319566 34.6418 3.59684 26.7298C6.87411 18.8178 12.4239 12.0552 19.5446 7.29736C26.6652 2.5395 35.0369 0 43.6008 0C55.0847 0 66.0982 4.56193 74.2185 12.6823C82.3389 20.8026 86.9008 31.8161 86.9008 43.3Z" fill="#EF9F3F"/>
<path d="M25.3008 35.6C25.3008 35.4 25.4008 35.2 25.4008 35C25.5408 34.2317 25.9269 33.5297 26.5008 33L29.2008 30.2C29.4441 29.9396 29.7382 29.732 30.0651 29.59C30.3919 29.4481 30.7444 29.3748 31.1008 29.3748C31.4571 29.3748 31.8097 29.4481 32.1365 29.59C32.4634 29.732 32.7575 29.9396 33.0008 30.2L37.1008 34.4C37.3732 34.6252 37.5926 34.9078 37.7432 35.2276C37.8938 35.5474 37.9719 35.8965 37.9719 36.25C37.9719 36.6035 37.8938 36.9526 37.7432 37.2724C37.5926 37.5922 37.3732 37.8748 37.1008 38.1C36.3182 38.9825 35.4833 39.8174 34.6008 40.6C34.3008 40.9 34.3008 41.1 34.5008 41.5C35.1926 43.1304 36.1752 44.6214 37.4008 45.9C39.0469 47.7984 40.9288 49.4786 43.0008 50.9L44.9008 51.9C45.0227 51.9857 45.1722 52.0229 45.3201 52.0044C45.4679 51.9859 45.6037 51.913 45.7008 51.8L48.2008 49.2C48.4948 48.8383 48.8878 48.57 49.3317 48.4279C49.7757 48.2859 50.2514 48.2762 50.7008 48.4C51.1565 48.5719 51.5668 48.8455 51.9008 49.2L56.2008 53.4C56.4428 53.6332 56.6352 53.9128 56.7667 54.2221C56.8981 54.5314 56.9658 54.864 56.9658 55.2C56.9658 55.5361 56.8981 55.8686 56.7667 56.1779C56.6352 56.4872 56.4428 56.7668 56.2008 57C55.2847 58.016 54.3168 58.984 53.3008 59.9C52.7635 60.3454 52.1389 60.6733 51.4672 60.8628C50.7955 61.0522 50.0916 61.099 49.4008 61C46.9788 60.7258 44.6344 59.9783 42.5008 58.8C36.0032 55.3885 30.7265 50.0419 27.4008 43.5C26.3816 41.7068 25.7035 39.7403 25.4008 37.7C25.4008 37.5 25.3008 37.3 25.3008 37.1V35.6Z" fill="white"/>
<path d="M43.6008 26C44.4119 26.1527 45.2133 26.353 46.0008 26.6C53.9008 29 58.5008 34.4 60.4008 42.4L57.7008 42.9C57.0475 39.2913 55.2769 35.979 52.6392 33.431C50.0015 30.883 46.63 29.2281 43.0008 28.7C43.1008 27.8 43.3008 26.9 43.4008 26H43.6008Z" fill="white"/>
<path d="M42.6008 35.7C42.783 34.8079 42.9165 33.9066 43.0008 33C45.3371 33.3368 47.5256 34.3442 49.3008 35.9C51.3644 37.7176 52.7413 40.1888 53.2008 42.9L50.6008 43.4C50.2577 41.4334 49.2975 39.627 47.8592 38.2426C46.4209 36.8582 44.5791 35.9676 42.6008 35.7Z" fill="white"/>
</svg>
