<svg width="25" height="25" viewBox="0 0 25 25" fill="none" xmlns="http://www.w3.org/2000/svg">
<path d="M12.1479 0.490234C5.52079 0.490234 0.147949 5.86307 0.147949 12.4902C0.147949 17.5767 3.30844 21.9223 7.77264 23.6705C7.664 22.7223 7.57511 21.2606 7.81215 20.2236C8.02943 19.2853 9.21462 14.2581 9.21462 14.2581C9.21462 14.2581 8.85906 13.5371 8.85906 12.4804C8.85906 10.8112 9.82696 9.56678 11.0319 9.56678C12.0591 9.56678 12.5529 10.3371 12.5529 11.2557C12.5529 12.2828 11.901 13.8236 11.5554 15.2557C11.2689 16.4507 12.1578 17.4285 13.3331 17.4285C15.4665 17.4285 17.106 15.1767 17.106 11.9371C17.106 9.06307 15.0418 7.05814 12.0887 7.05814C8.67141 7.05814 6.66647 9.61616 6.66647 12.2631C6.66647 13.2902 7.06153 14.3964 7.55536 14.9989C7.65412 15.1174 7.664 15.226 7.63437 15.3446C7.54548 15.7199 7.33807 16.5396 7.29857 16.7075C7.24918 16.9248 7.12079 16.9742 6.89363 16.8655C5.39239 16.1643 4.45412 13.9816 4.45412 12.2137C4.45412 8.43097 7.1998 4.95443 12.385 4.95443C16.543 4.95443 19.7825 7.9174 19.7825 11.8878C19.7825 16.026 17.1751 19.3544 13.5603 19.3544C12.3455 19.3544 11.1998 18.7223 10.8146 17.9717C10.8146 17.9717 10.2121 20.2631 10.064 20.826C9.79733 21.8729 9.06647 23.1767 8.57264 23.9767C9.69857 24.3223 10.8838 24.51 12.1282 24.51C18.7554 24.51 24.1282 19.1371 24.1282 12.51C24.1479 5.86307 18.7751 0.490234 12.1479 0.490234Z" fill="black"/>
</svg>
