<svg width="18" height="17" viewBox="0 0 18 17" fill="none" xmlns="http://www.w3.org/2000/svg">
<path d="M15.7935 16.7015L11.6935 12.6014C10.4857 13.5104 9.015 14.002 7.50342 14.0016C5.64755 13.9995 3.86833 13.2611 2.55603 11.9489C1.24373 10.6366 0.505535 8.85745 0.503418 7.00159C0.505535 5.14572 1.24373 3.36637 2.55603 2.05408C3.86833 0.741781 5.64755 0.00370428 7.50342 0.00158691C9.35928 0.00370428 11.1386 0.741781 12.4509 2.05408C13.7632 3.36637 14.5013 5.14572 14.5034 7.00159C14.5039 8.51318 14.0126 9.98382 13.1035 11.1915L17.2035 15.2916C17.2965 15.3845 17.3702 15.4947 17.4205 15.6161C17.4709 15.7375 17.4967 15.8675 17.4967 15.9989C17.4967 16.1303 17.4709 16.2606 17.4205 16.382C17.3702 16.5034 17.2965 16.6135 17.2035 16.7064C17.0158 16.8936 16.7615 16.9986 16.4965 16.9984C16.2321 16.9962 15.9793 16.8896 15.7935 16.7015ZM2.50146 6.99451C2.50305 8.3201 3.03031 9.59086 3.96765 10.5282C4.90499 11.4655 6.17587 11.9929 7.50146 11.9945C8.82706 11.9929 10.0979 11.4655 11.0353 10.5282C11.9726 9.59086 12.4999 8.3201 12.5015 6.99451C12.4999 5.66891 11.9726 4.39815 11.0353 3.46082C10.0979 2.52348 8.82706 1.99609 7.50146 1.99451C6.17587 1.99609 4.90499 2.52348 3.96765 3.46082C3.03031 4.39815 2.50305 5.66891 2.50146 6.99451Z" fill="#C4C4C4"/>
</svg>
