<svg width="17" height="18" viewBox="0 0 17 18" fill="none" xmlns="http://www.w3.org/2000/svg">
<path d="M15.29 17.2015L11.1901 13.1014C9.98232 14.0104 8.51158 14.502 7 14.5016C5.14413 14.4995 3.36491 13.7611 2.05261 12.4489C0.740316 11.1366 0.00211736 9.35745 0 7.50159C0.00211736 5.64572 0.740316 3.86637 2.05261 2.55408C3.36491 1.24178 5.14413 0.503704 7 0.501587C8.85587 0.503704 10.6352 1.24178 11.9475 2.55408C13.2598 3.86637 13.9979 5.64572 14 7.50159C14.0004 9.01318 13.5091 10.4838 12.6001 11.6915L16.7001 15.7916C16.793 15.8845 16.8668 15.9947 16.9171 16.1161C16.9674 16.2375 16.9933 16.3675 16.9933 16.4989C16.9933 16.6303 16.9674 16.7606 16.9171 16.882C16.8668 17.0034 16.793 17.1135 16.7001 17.2064C16.5124 17.3936 16.2581 17.4986 15.993 17.4984C15.7287 17.4962 15.4759 17.3896 15.29 17.2015ZM1.99805 7.49451C1.99963 8.8201 2.5269 10.0909 3.46423 11.0282C4.40157 11.9655 5.67245 12.4929 6.99805 12.4945C8.32364 12.4929 9.59452 11.9655 10.5319 11.0282C11.4692 10.0909 11.9965 8.8201 11.998 7.49451C11.9965 6.16891 11.4692 4.89815 10.5319 3.96082C9.59452 3.02348 8.32364 2.49609 6.99805 2.49451C5.67245 2.49609 4.40157 3.02348 3.46423 3.96082C2.5269 4.89815 1.99963 6.16891 1.99805 7.49451Z" fill="white"/>
</svg>
