<svg width="25" height="25" viewBox="0 0 25 25" fill="none" xmlns="http://www.w3.org/2000/svg">
<path fill-rule="evenodd" clip-rule="evenodd" d="M24.1479 12.5C24.1479 19.1274 18.7754 24.5 12.1479 24.5C5.52053 24.5 0.147949 19.1274 0.147949 12.5C0.147949 5.87258 5.52053 0.5 12.1479 0.5C18.7754 0.5 24.1479 5.87258 24.1479 12.5ZM12.578 9.35893C11.4108 9.8444 9.07808 10.8492 5.57984 12.3733C5.01178 12.5992 4.71421 12.8202 4.68712 13.0363C4.64134 13.4015 5.09866 13.5453 5.72143 13.7411C5.80613 13.7678 5.89391 13.7954 5.98389 13.8246C6.59659 14.0238 7.42077 14.2568 7.84924 14.266C8.23789 14.2744 8.67168 14.1142 9.15059 13.7853C12.4191 11.579 14.1063 10.4638 14.2123 10.4398C14.287 10.4228 14.3905 10.4015 14.4607 10.4638C14.5309 10.5262 14.524 10.6443 14.5165 10.676C14.4712 10.8691 12.6761 12.5381 11.7471 13.4018C11.4575 13.671 11.252 13.862 11.21 13.9056C11.116 14.0034 11.0201 14.0958 10.9279 14.1846C10.3587 14.7333 9.93186 15.1448 10.9516 15.8168C11.4416 16.1397 11.8337 16.4067 12.2249 16.6731C12.6521 16.9641 13.0782 17.2543 13.6296 17.6157C13.77 17.7078 13.9042 17.8034 14.0348 17.8965C14.532 18.251 14.9787 18.5694 15.5305 18.5186C15.8512 18.4891 16.1824 18.1876 16.3506 17.2884C16.7482 15.1632 17.5296 10.5585 17.7102 8.66098C17.726 8.49473 17.7061 8.28197 17.6901 8.18857C17.6741 8.09518 17.6407 7.96211 17.5193 7.8636C17.3755 7.74694 17.1536 7.72234 17.0543 7.72408C16.603 7.73203 15.9105 7.97282 12.578 9.35893Z" fill="black"/>
</svg>
