<svg width="21" height="25" viewBox="0 0 21 25" fill="none" xmlns="http://www.w3.org/2000/svg">
<path d="M16.0671 11.6235C15.9637 11.574 15.8587 11.5263 15.7524 11.4806C15.5671 8.06728 13.702 6.11312 10.5702 6.09312C10.556 6.09304 10.5419 6.09304 10.5278 6.09304C8.65455 6.09304 7.09664 6.89261 6.13775 8.34759L7.86012 9.5291C8.57645 8.44229 9.70065 8.2106 10.5286 8.2106C10.5381 8.2106 10.5477 8.2106 10.5572 8.21069C11.5884 8.21726 12.3665 8.51708 12.8701 9.10175C13.2366 9.52741 13.4817 10.1156 13.6031 10.858C12.6889 10.7026 11.7001 10.6548 10.6431 10.7154C7.66559 10.8869 5.75139 12.6235 5.87995 15.0365C5.94519 16.2605 6.55496 17.3135 7.59688 18.0014C8.4778 18.5829 9.61238 18.8673 10.7915 18.8029C12.3488 18.7175 13.5704 18.1234 14.4226 17.037C15.0699 16.212 15.4792 15.1429 15.66 13.7957C16.4021 14.2436 16.9521 14.833 17.2559 15.5415C17.7724 16.7459 17.8025 18.725 16.1876 20.3385C14.7728 21.752 13.072 22.3635 10.5017 22.3824C7.65052 22.3612 5.49422 21.4469 4.09226 19.6646C2.77944 17.9958 2.10096 15.5852 2.07565 12.5C2.10096 9.41473 2.77944 7.0042 4.09226 5.33534C5.49422 3.55311 7.65049 2.63875 10.5016 2.61756C13.3735 2.63891 15.5674 3.55767 17.023 5.3485C17.7368 6.2267 18.2749 7.3311 18.6296 8.61879L20.648 8.08028C20.218 6.49528 19.5414 5.12946 18.6206 3.99675C16.7545 1.70084 14.0253 0.524394 10.5087 0.5H10.4946C6.9852 0.524309 4.28651 1.70522 2.47354 4.00991C0.860237 6.0608 0.02805 8.91446 8.74996e-05 12.4916L0 12.5L8.74996e-05 12.5084C0.02805 16.0855 0.860237 18.9393 2.47354 20.9901C4.28651 23.2948 6.9852 24.4757 10.4946 24.5H10.5087C13.6288 24.4784 15.828 23.6615 17.6397 21.8514C20.0101 19.4832 19.9387 16.5149 19.1575 14.6926C18.597 13.3859 17.5284 12.3245 16.0671 11.6235ZM10.6801 16.6884C9.37506 16.7619 8.0193 16.1761 7.95245 14.9215C7.9029 13.9913 8.61448 12.9532 10.7601 12.8296C11.0059 12.8154 11.247 12.8085 11.4839 12.8085C12.2633 12.8085 12.9924 12.8842 13.6552 13.0291C13.408 16.1169 11.9578 16.6182 10.6801 16.6884Z" fill="black"/>
</svg>
