<svg width="22" height="15" viewBox="0 0 22 15" fill="none" xmlns="http://www.w3.org/2000/svg">
<path d="M11.0005 14.999C10.9315 14.999 4.10055 14.994 2.40055 14.553C1.945 14.4343 1.52741 14.2008 1.18778 13.8748C0.848147 13.5489 0.59775 13.1413 0.460483 12.691C0.143802 10.9858 -0.0101841 9.25433 0.000522051 7.51999C-0.00805386 5.79832 0.145924 4.0797 0.460483 2.38699C0.585076 1.92178 0.830017 1.49756 1.17057 1.15701C1.51112 0.816464 1.93533 0.571584 2.40055 0.446991C4.10055 0.00599095 10.9315 0.00100708 11.0005 0.00100708C11.0695 0.00100708 17.9005 0.000989497 19.6005 0.40799C20.0656 0.532823 20.4897 0.777927 20.8301 1.11865C21.1705 1.45938 21.4151 1.88372 21.5395 2.349C21.8567 4.05415 22.0108 5.78563 21.9995 7.51999C22.0054 9.22829 21.8513 10.9334 21.5395 12.613C21.4152 13.0782 21.1706 13.5025 20.8302 13.8431C20.4898 14.1837 20.0657 14.4285 19.6005 14.553C17.9005 14.994 11.0705 14.999 11.0005 14.999ZM8.75052 4.24799V10.787L14.5005 7.517L8.75052 4.24698V4.24799Z" fill="white"/>
</svg>
