<svg width="25" height="17" viewBox="0 0 25 17" fill="none" xmlns="http://www.w3.org/2000/svg">
<path fill-rule="evenodd" clip-rule="evenodd" d="M22.8707 1.33407C23.243 1.70883 23.5104 2.17482 23.6461 2.68541C24.148 4.56995 24.1479 8.49996 24.1479 8.49996C24.1479 8.49996 24.148 12.43 23.6461 14.3145C23.5104 14.8251 23.243 15.2911 22.8707 15.6658C22.4983 16.0406 22.034 16.311 21.5243 16.45C19.6479 16.9545 12.1479 16.9545 12.1479 16.9545C12.1479 16.9545 4.64795 16.9545 2.77159 16.45C2.26188 16.311 1.79761 16.0406 1.42524 15.6658C1.05287 15.2911 0.785455 14.8251 0.649767 14.3145C0.147949 12.43 0.147949 8.49996 0.147949 8.49996C0.147949 8.49996 0.147949 4.56995 0.649767 2.68541C0.785455 2.17482 1.05287 1.70883 1.42524 1.33407C1.79761 0.959301 2.26188 0.688911 2.77159 0.549956C4.64795 0.0454102 12.1479 0.0454102 12.1479 0.0454102C12.1479 0.0454102 19.6479 0.0454102 21.5243 0.549956C22.034 0.688911 22.4983 0.959301 22.8707 1.33407ZM15.9661 8.49999L9.69342 4.93135V12.0686L15.9661 8.49999Z" fill="black"/>
</svg>
