<svg width="88" height="98" viewBox="0 0 88 98" fill="none" xmlns="http://www.w3.org/2000/svg">
<path d="M6.464 23.256C4.69333 23.256 3.264 22.7333 2.176 21.688C1.088 20.6213 0.544 19.2133 0.544 17.464V15.096C0.544 14.9893 0.576 14.904 0.64 14.84C0.725333 14.7547 0.821333 14.712 0.928 14.712H3.872C3.97867 14.712 4.064 14.7547 4.128 14.84C4.21333 14.904 4.256 14.9893 4.256 15.096V17.528C4.256 18.2747 4.45867 18.8827 4.864 19.352C5.26933 19.8213 5.80267 20.056 6.464 20.056C7.12533 20.056 7.65867 19.8213 8.064 19.352C8.49067 18.8827 8.704 18.2747 8.704 17.528V0.983999C8.704 0.877333 8.736 0.791999 8.8 0.727999C8.88533 0.642665 8.98133 0.599998 9.088 0.599998H12.032C12.1387 0.599998 12.224 0.642665 12.288 0.727999C12.3733 0.791999 12.416 0.877333 12.416 0.983999V17.464C12.416 19.2133 11.8613 20.6213 10.752 21.688C9.664 22.7333 8.23467 23.256 6.464 23.256ZM21.2275 6.392C22.9128 6.392 24.2782 6.88267 25.3235 7.864C26.3688 8.84533 26.8915 10.136 26.8915 11.736V22.616C26.8915 22.7227 26.8488 22.8187 26.7635 22.904C26.6995 22.968 26.6142 23 26.5075 23H23.5635C23.4568 23 23.3608 22.968 23.2755 22.904C23.2115 22.8187 23.1795 22.7227 23.1795 22.616V22.008C23.1795 21.944 23.1582 21.9013 23.1155 21.88C23.0728 21.8587 23.0302 21.88 22.9875 21.944C22.2408 22.8187 21.1528 23.256 19.7235 23.256C18.5075 23.256 17.4302 22.9147 16.4915 22.232C15.5742 21.528 15.1155 20.2587 15.1155 18.424C15.1155 16.504 15.6702 15.1387 16.7795 14.328C17.9102 13.5173 19.4355 13.112 21.3555 13.112H23.0195C23.1262 13.112 23.1795 13.0587 23.1795 12.952V12.12C23.1795 11.352 22.9875 10.744 22.6035 10.296C22.2195 9.82667 21.7395 9.592 21.1635 9.592C20.7155 9.592 20.3422 9.74133 20.0435 10.04C19.7448 10.3173 19.5635 10.7013 19.4995 11.192C19.4782 11.448 19.3395 11.576 19.0835 11.576H15.9795C15.7235 11.576 15.6062 11.448 15.6275 11.192C15.7342 9.74133 16.2995 8.57867 17.3235 7.704C18.3688 6.82933 19.6702 6.392 21.2275 6.392ZM20.7475 20.184C21.3875 20.184 21.9528 19.9813 22.4435 19.576C22.9342 19.1707 23.1795 18.6053 23.1795 17.88V16.056C23.1795 15.9493 23.1262 15.896 23.0195 15.896H21.3555C20.6302 15.896 20.0435 16.0987 19.5955 16.504C19.1475 16.888 18.9235 17.4533 18.9235 18.2C18.9235 18.8613 19.0942 19.3627 19.4355 19.704C19.7768 20.024 20.2142 20.184 20.7475 20.184ZM29.9185 23C29.8118 23 29.7158 22.968 29.6305 22.904C29.5665 22.8187 29.5345 22.7227 29.5345 22.616V0.983999C29.5345 0.877333 29.5665 0.791999 29.6305 0.727999C29.7158 0.642665 29.8118 0.599998 29.9185 0.599998H32.8625C32.9692 0.599998 33.0545 0.642665 33.1185 0.727999C33.2038 0.791999 33.2465 0.877333 33.2465 0.983999V12.376C33.2465 12.4613 33.2678 12.504 33.3105 12.504C33.3532 12.504 33.3958 12.472 33.4385 12.408L36.9265 6.904C37.0118 6.73333 37.1612 6.648 37.3745 6.648H40.4465C40.5958 6.648 40.6918 6.70133 40.7345 6.808C40.7772 6.89333 40.7558 7 40.6705 7.128L37.3425 12.152C37.2998 12.2373 37.2892 12.312 37.3105 12.376L41.1505 22.552C41.1718 22.5947 41.1825 22.648 41.1825 22.712C41.1825 22.904 41.0652 23 40.8305 23H37.7905C37.5772 23 37.4385 22.8933 37.3745 22.68L35.0065 15.448C34.9852 15.384 34.9532 15.352 34.9105 15.352C34.8678 15.3307 34.8358 15.352 34.8145 15.416L33.3105 17.656C33.2678 17.7413 33.2465 17.8053 33.2465 17.848V22.616C33.2465 22.7227 33.2038 22.8187 33.1185 22.904C33.0545 22.968 32.9692 23 32.8625 23H29.9185ZM48.9463 6.392C50.6316 6.392 51.9969 6.88267 53.0423 7.864C54.0876 8.84533 54.6103 10.136 54.6103 11.736V22.616C54.6103 22.7227 54.5676 22.8187 54.4823 22.904C54.4183 22.968 54.3329 23 54.2263 23H51.2823C51.1756 23 51.0796 22.968 50.9943 22.904C50.9303 22.8187 50.8983 22.7227 50.8983 22.616V22.008C50.8983 21.944 50.8769 21.9013 50.8343 21.88C50.7916 21.8587 50.7489 21.88 50.7063 21.944C49.9596 22.8187 48.8716 23.256 47.4423 23.256C46.2263 23.256 45.1489 22.9147 44.2103 22.232C43.2929 21.528 42.8343 20.2587 42.8343 18.424C42.8343 16.504 43.3889 15.1387 44.4983 14.328C45.6289 13.5173 47.1543 13.112 49.0743 13.112H50.7383C50.8449 13.112 50.8983 13.0587 50.8983 12.952V12.12C50.8983 11.352 50.7063 10.744 50.3223 10.296C49.9383 9.82667 49.4583 9.592 48.8823 9.592C48.4343 9.592 48.0609 9.74133 47.7623 10.04C47.4636 10.3173 47.2823 10.7013 47.2183 11.192C47.1969 11.448 47.0583 11.576 46.8023 11.576H43.6983C43.4423 11.576 43.3249 11.448 43.3463 11.192C43.4529 9.74133 44.0183 8.57867 45.0423 7.704C46.0876 6.82933 47.3889 6.392 48.9463 6.392ZM48.4663 20.184C49.1063 20.184 49.6716 19.9813 50.1623 19.576C50.6529 19.1707 50.8983 18.6053 50.8983 17.88V16.056C50.8983 15.9493 50.8449 15.896 50.7383 15.896H49.0743C48.3489 15.896 47.7623 16.0987 47.3143 16.504C46.8663 16.888 46.6423 17.4533 46.6423 18.2C46.6423 18.8613 46.8129 19.3627 47.1543 19.704C47.4956 20.024 47.9329 20.184 48.4663 20.184ZM63.9413 6.456C64.5173 6.456 64.9653 6.56267 65.2853 6.776C65.4559 6.88267 65.5199 7.04267 65.4773 7.256L64.9653 10.232C64.9439 10.488 64.7946 10.5627 64.5173 10.456C64.2186 10.3707 63.9413 10.328 63.6853 10.328C63.4293 10.328 63.1946 10.36 62.9813 10.424C62.3839 10.5093 61.8933 10.8507 61.5093 11.448C61.1466 12.024 60.9653 12.7173 60.9653 13.528V22.584C60.9653 22.6907 60.9226 22.7867 60.8373 22.872C60.7733 22.936 60.6879 22.968 60.5813 22.968H57.6373C57.5306 22.968 57.4346 22.936 57.3493 22.872C57.2853 22.7867 57.2533 22.6907 57.2533 22.584V7.032C57.2533 6.92533 57.2853 6.84 57.3493 6.776C57.4346 6.69067 57.5306 6.648 57.6373 6.648H60.5813C60.6879 6.648 60.7733 6.69067 60.8373 6.776C60.9226 6.84 60.9653 6.92533 60.9653 7.032V8.504C60.9653 8.58933 60.9866 8.64267 61.0293 8.664C61.0719 8.664 61.1039 8.62133 61.1253 8.536C61.7013 7.14933 62.6399 6.456 63.9413 6.456ZM74.1325 8.888C74.1325 8.99467 74.0898 9.09067 74.0045 9.176C73.9405 9.24 73.8552 9.272 73.7485 9.272H71.7645C71.6578 9.272 71.6045 9.32533 71.6045 9.432V17.816C71.6045 18.5627 71.7432 19.0853 72.0205 19.384C72.2978 19.6613 72.7138 19.7893 73.2685 19.768H73.4925C73.5992 19.768 73.6845 19.8107 73.7485 19.896C73.8338 19.96 73.8765 20.0453 73.8765 20.152V22.616C73.8765 22.7227 73.8338 22.8187 73.7485 22.904C73.6845 22.968 73.5992 23 73.4925 23H72.4045C70.9538 23 69.8552 22.7333 69.1085 22.2C68.3832 21.6667 68.0205 20.664 68.0205 19.192V9.432C68.0205 9.32533 67.9672 9.272 67.8605 9.272H66.7405C66.6338 9.272 66.5378 9.24 66.4525 9.176C66.3885 9.09067 66.3565 8.99467 66.3565 8.888V7.032C66.3565 6.92533 66.3885 6.84 66.4525 6.776C66.5378 6.69067 66.6338 6.648 66.7405 6.648H67.8605C67.9672 6.648 68.0205 6.59467 68.0205 6.488V2.968C68.0205 2.86133 68.0525 2.776 68.1165 2.712C68.2018 2.62667 68.2978 2.584 68.4045 2.584H71.2205C71.3272 2.584 71.4125 2.62667 71.4765 2.712C71.5618 2.776 71.6045 2.86133 71.6045 2.968V6.488C71.6045 6.59467 71.6578 6.648 71.7645 6.648H73.7485C73.8552 6.648 73.9405 6.69067 74.0045 6.776C74.0898 6.84 74.1325 6.92533 74.1325 7.032V8.888ZM81.8838 6.392C83.5691 6.392 84.9344 6.88267 85.9798 7.864C87.0251 8.84533 87.5478 10.136 87.5478 11.736V22.616C87.5478 22.7227 87.5051 22.8187 87.4198 22.904C87.3558 22.968 87.2704 23 87.1638 23H84.2198C84.1131 23 84.0171 22.968 83.9318 22.904C83.8678 22.8187 83.8358 22.7227 83.8358 22.616V22.008C83.8358 21.944 83.8144 21.9013 83.7718 21.88C83.7291 21.8587 83.6864 21.88 83.6438 21.944C82.8971 22.8187 81.8091 23.256 80.3798 23.256C79.1638 23.256 78.0864 22.9147 77.1478 22.232C76.2304 21.528 75.7718 20.2587 75.7718 18.424C75.7718 16.504 76.3264 15.1387 77.4358 14.328C78.5664 13.5173 80.0918 13.112 82.0118 13.112H83.6758C83.7824 13.112 83.8358 13.0587 83.8358 12.952V12.12C83.8358 11.352 83.6438 10.744 83.2598 10.296C82.8758 9.82667 82.3958 9.592 81.8198 9.592C81.3718 9.592 80.9984 9.74133 80.6998 10.04C80.4011 10.3173 80.2198 10.7013 80.1558 11.192C80.1344 11.448 79.9958 11.576 79.7398 11.576H76.6358C76.3798 11.576 76.2624 11.448 76.2838 11.192C76.3904 9.74133 76.9558 8.57867 77.9798 7.704C79.0251 6.82933 80.3264 6.392 81.8838 6.392ZM81.4038 20.184C82.0438 20.184 82.6091 19.9813 83.0998 19.576C83.5904 19.1707 83.8358 18.6053 83.8358 17.88V16.056C83.8358 15.9493 83.7824 15.896 83.6758 15.896H82.0118C81.2864 15.896 80.6998 16.0987 80.2518 16.504C79.8038 16.888 79.5798 17.4533 79.5798 18.2C79.5798 18.8613 79.7504 19.3627 80.0918 19.704C80.4331 20.024 80.8704 20.184 81.4038 20.184ZM6.464 60.256C4.69333 60.256 3.264 59.7333 2.176 58.688C1.088 57.6213 0.544 56.2133 0.544 54.464V52.096C0.544 51.9893 0.576 51.904 0.64 51.84C0.725333 51.7547 0.821333 51.712 0.928 51.712H3.872C3.97867 51.712 4.064 51.7547 4.128 51.84C4.21333 51.904 4.256 51.9893 4.256 52.096V54.528C4.256 55.2747 4.45867 55.8827 4.864 56.352C5.26933 56.8213 5.80267 57.056 6.464 57.056C7.12533 57.056 7.65867 56.8213 8.064 56.352C8.49067 55.8827 8.704 55.2747 8.704 54.528V37.984C8.704 37.8773 8.736 37.792 8.8 37.728C8.88533 37.6427 8.98133 37.6 9.088 37.6H12.032C12.1387 37.6 12.224 37.6427 12.288 37.728C12.3733 37.792 12.416 37.8773 12.416 37.984V54.464C12.416 56.2133 11.8613 57.6213 10.752 58.688C9.664 59.7333 8.23467 60.256 6.464 60.256ZM23.0515 44.032C23.0515 43.9253 23.0835 43.84 23.1475 43.776C23.2328 43.6907 23.3288 43.648 23.4355 43.648H26.3795C26.4862 43.648 26.5715 43.6907 26.6355 43.776C26.7208 43.84 26.7635 43.9253 26.7635 44.032V59.616C26.7635 59.7227 26.7208 59.8187 26.6355 59.904C26.5715 59.968 26.4862 60 26.3795 60H23.4355C23.3288 60 23.2328 59.968 23.1475 59.904C23.0835 59.8187 23.0515 59.7227 23.0515 59.616V58.912C23.0515 58.848 23.0302 58.8053 22.9875 58.784C22.9448 58.7627 22.9022 58.784 22.8595 58.848C22.2408 59.7653 21.2488 60.224 19.8835 60.224C18.5822 60.224 17.5262 59.84 16.7155 59.072C15.9262 58.2827 15.5315 57.0773 15.5315 55.456V44.032C15.5315 43.9253 15.5635 43.84 15.6275 43.776C15.7128 43.6907 15.8088 43.648 15.9155 43.648H18.8595C18.9662 43.648 19.0515 43.6907 19.1155 43.776C19.2008 43.84 19.2435 43.9253 19.2435 44.032V54.656C19.2435 56.256 19.8622 57.056 21.0995 57.056C21.7182 57.056 22.1982 56.832 22.5395 56.384C22.8808 55.9147 23.0515 55.2853 23.0515 54.496V44.032ZM34.7148 60.192C33.0294 60.192 31.6854 59.7867 30.6828 58.976C29.6801 58.1653 29.1788 57.0667 29.1788 55.68V55.456C29.1788 55.3493 29.2108 55.264 29.2747 55.2C29.3601 55.1147 29.4561 55.072 29.5628 55.072H32.3148C32.4214 55.072 32.5068 55.1147 32.5708 55.2C32.6561 55.264 32.6988 55.3493 32.6988 55.456V55.616C32.6988 56.128 32.8908 56.5547 33.2748 56.896C33.6801 57.2373 34.1708 57.408 34.7468 57.408C35.3014 57.408 35.7388 57.248 36.0588 56.928C36.3788 56.608 36.5388 56.2027 36.5388 55.712C36.5388 55.2853 36.4001 54.9333 36.1228 54.656C35.8454 54.3573 35.5468 54.1333 35.2268 53.984C34.9068 53.8347 34.3308 53.5893 33.4988 53.248C32.2828 52.7787 31.2801 52.1813 30.4908 51.456C29.7228 50.7307 29.3388 49.6533 29.3388 48.224C29.3388 46.7307 29.8081 45.568 30.7468 44.736C31.7068 43.8827 32.9974 43.456 34.6188 43.456C36.2828 43.456 37.5948 43.904 38.5548 44.8C39.5361 45.6747 40.0268 46.8587 40.0268 48.352C40.0268 48.4587 39.9841 48.5547 39.8988 48.64C39.8348 48.704 39.7494 48.736 39.6428 48.736H36.9548C36.8481 48.736 36.7521 48.704 36.6667 48.64C36.6028 48.5547 36.5708 48.4587 36.5708 48.352V48.16C36.5708 47.648 36.3894 47.2213 36.0268 46.88C35.6854 46.5387 35.2481 46.368 34.7148 46.368C34.1601 46.368 33.7121 46.5493 33.3708 46.912C33.0508 47.2533 32.8908 47.6693 32.8908 48.16C32.8908 48.5653 33.0188 48.9067 33.2748 49.184C33.5308 49.4613 33.8188 49.6853 34.1388 49.856C34.4588 50.0053 34.9921 50.24 35.7388 50.56C36.6348 50.9227 37.3814 51.2853 37.9788 51.648C38.5974 51.9893 39.1308 52.4907 39.5788 53.152C40.0481 53.792 40.2828 54.592 40.2828 55.552C40.2828 56.9813 39.7814 58.112 38.7788 58.944C37.7761 59.776 36.4214 60.192 34.7148 60.192ZM49.2888 45.888C49.2888 45.9947 49.2461 46.0907 49.1608 46.176C49.0968 46.24 49.0114 46.272 48.9048 46.272H46.9208C46.8141 46.272 46.7608 46.3253 46.7608 46.432V54.816C46.7608 55.5627 46.8994 56.0853 47.1768 56.384C47.4541 56.6613 47.8701 56.7893 48.4248 56.768H48.6488C48.7554 56.768 48.8408 56.8107 48.9048 56.896C48.9901 56.96 49.0328 57.0453 49.0328 57.152V59.616C49.0328 59.7227 48.9901 59.8187 48.9048 59.904C48.8408 59.968 48.7554 60 48.6488 60H47.5608C46.1101 60 45.0114 59.7333 44.2648 59.2C43.5394 58.6667 43.1768 57.664 43.1768 56.192V46.432C43.1768 46.3253 43.1234 46.272 43.0168 46.272H41.8968C41.7901 46.272 41.6941 46.24 41.6088 46.176C41.5448 46.0907 41.5128 45.9947 41.5128 45.888V44.032C41.5128 43.9253 41.5448 43.84 41.6088 43.776C41.6941 43.6907 41.7901 43.648 41.8968 43.648H43.0168C43.1234 43.648 43.1768 43.5947 43.1768 43.488V39.968C43.1768 39.8613 43.2088 39.776 43.2728 39.712C43.3581 39.6267 43.4541 39.584 43.5608 39.584H46.3768C46.4834 39.584 46.5688 39.6267 46.6328 39.712C46.7181 39.776 46.7608 39.8613 46.7608 39.968V43.488C46.7608 43.5947 46.8141 43.648 46.9208 43.648H48.9048C49.0114 43.648 49.0968 43.6907 49.1608 43.776C49.2461 43.84 49.2888 43.9253 49.2888 44.032V45.888ZM53.424 41.408C52.7627 41.408 52.2187 41.1947 51.792 40.768C51.3653 40.3413 51.152 39.7973 51.152 39.136C51.152 38.4747 51.3653 37.9307 51.792 37.504C52.2187 37.0773 52.7627 36.864 53.424 36.864C54.0853 36.864 54.6187 37.0773 55.024 37.504C55.4507 37.9307 55.664 38.4747 55.664 39.136C55.664 39.7973 55.4507 40.3413 55.024 40.768C54.5973 41.1947 54.064 41.408 53.424 41.408ZM51.984 60C51.8773 60 51.7813 59.968 51.696 59.904C51.632 59.8187 51.6 59.7227 51.6 59.616V44.032C51.6 43.9253 51.632 43.84 51.696 43.776C51.7813 43.6907 51.8773 43.648 51.984 43.648H54.928C55.0347 43.648 55.12 43.6907 55.184 43.776C55.2693 43.84 55.312 43.9253 55.312 44.032V59.616C55.312 59.7227 55.2693 59.8187 55.184 59.904C55.12 59.968 55.0347 60 54.928 60H51.984ZM63.755 60.256C62.0057 60.256 60.619 59.7867 59.595 58.848C58.5923 57.9093 58.091 56.64 58.091 55.04V48.576C58.091 47.0187 58.5923 45.7707 59.595 44.832C60.619 43.872 62.0057 43.392 63.755 43.392C65.5043 43.392 66.891 43.8613 67.915 44.8C68.939 45.7173 69.451 46.8907 69.451 48.32V48.768C69.451 48.8747 69.4083 48.9707 69.323 49.056C69.259 49.12 69.1737 49.152 69.067 49.152L66.123 49.28C65.867 49.28 65.739 49.152 65.739 48.896V48.576C65.739 48.0427 65.547 47.584 65.163 47.2C64.8003 46.7947 64.331 46.592 63.755 46.592C63.179 46.592 62.7097 46.8053 62.347 47.232C61.9843 47.6587 61.803 48.2027 61.803 48.864V54.784C61.803 55.4453 61.9843 55.9893 62.347 56.416C62.7097 56.8427 63.179 57.056 63.755 57.056C64.331 57.056 64.8003 56.864 65.163 56.48C65.547 56.0747 65.739 55.5947 65.739 55.04V54.72C65.739 54.6133 65.771 54.528 65.835 54.464C65.9203 54.3787 66.0163 54.336 66.123 54.336L69.067 54.368C69.1737 54.368 69.259 54.4107 69.323 54.496C69.4083 54.56 69.451 54.6453 69.451 54.752V55.328C69.451 56.8 68.939 57.9947 67.915 58.912C66.891 59.808 65.5043 60.256 63.755 60.256ZM82.919 52.8C82.919 52.9067 82.8763 53.0027 82.791 53.088C82.727 53.152 82.6417 53.184 82.535 53.184H75.463C75.3563 53.184 75.303 53.2373 75.303 53.344V54.784C75.303 55.4453 75.4843 55.9893 75.847 56.416C76.2097 56.8427 76.679 57.056 77.255 57.056C77.7457 57.056 78.1617 56.9067 78.503 56.608C78.8657 56.288 79.1003 55.8827 79.207 55.392C79.271 55.1787 79.4097 55.072 79.623 55.072L82.471 55.2C82.5777 55.2 82.663 55.2427 82.727 55.328C82.8123 55.392 82.8443 55.488 82.823 55.616C82.6737 57.1093 82.1297 58.2613 81.191 59.072C80.2523 59.8613 78.9403 60.256 77.255 60.256C75.5057 60.256 74.119 59.7973 73.095 58.88C72.0923 57.9413 71.591 56.672 71.591 55.072V48.576C71.591 47.0187 72.0923 45.7707 73.095 44.832C74.119 43.872 75.5057 43.392 77.255 43.392C79.0043 43.392 80.3803 43.872 81.383 44.832C82.407 45.7707 82.919 47.0187 82.919 48.576V52.8ZM77.255 46.592C76.679 46.592 76.2097 46.8053 75.847 47.232C75.4843 47.6587 75.303 48.2027 75.303 48.864V50.304C75.303 50.4107 75.3563 50.464 75.463 50.464H79.079C79.1857 50.464 79.239 50.4107 79.239 50.304V48.864C79.239 48.1813 79.0577 47.6373 78.695 47.232C78.3323 46.8053 77.8523 46.592 77.255 46.592ZM12.864 77.416C12.864 77.5227 12.8213 77.6187 12.736 77.704C12.672 77.768 12.5867 77.8 12.48 77.8H5.6C5.49333 77.8 5.44 77.8533 5.44 77.96V84.008C5.44 84.1147 5.49333 84.168 5.6 84.168H9.664C9.77067 84.168 9.856 84.2107 9.92 84.296C10.0053 84.36 10.048 84.4453 10.048 84.552V87.016C10.048 87.1227 10.0053 87.2187 9.92 87.304C9.856 87.368 9.77067 87.4 9.664 87.4H5.6C5.49333 87.4 5.44 87.4533 5.44 87.56V96.616C5.44 96.7227 5.39733 96.8187 5.312 96.904C5.248 96.968 5.16267 97 5.056 97H2.112C2.00533 97 1.90933 96.968 1.824 96.904C1.76 96.8187 1.728 96.7227 1.728 96.616V74.984C1.728 74.8773 1.76 74.792 1.824 74.728C1.90933 74.6427 2.00533 74.6 2.112 74.6H12.48C12.5867 74.6 12.672 74.6427 12.736 74.728C12.8213 74.792 12.864 74.8773 12.864 74.984V77.416ZM19.1933 97.256C17.4226 97.256 16.0253 96.7867 15.0013 95.848C13.9986 94.9093 13.4973 93.64 13.4973 92.04V85.608C13.4973 84.0293 14.0093 82.7707 15.0333 81.832C16.0573 80.872 17.4439 80.392 19.1933 80.392C20.9639 80.392 22.3613 80.872 23.3853 81.832C24.4093 82.7707 24.9213 84.0293 24.9213 85.608V92.04C24.9213 93.64 24.4093 94.9093 23.3853 95.848C22.3826 96.7867 20.9853 97.256 19.1933 97.256ZM19.1933 94.024C19.7906 94.024 20.2706 93.8213 20.6333 93.416C21.0173 92.9893 21.2093 92.4347 21.2093 91.752V85.864C21.2093 85.2027 21.0173 84.6587 20.6333 84.232C20.2706 83.8053 19.7906 83.592 19.1933 83.592C18.5959 83.592 18.1159 83.8053 17.7533 84.232C17.3906 84.6373 17.2093 85.1813 17.2093 85.864V91.752C17.2093 92.4347 17.3906 92.9893 17.7533 93.416C18.1159 93.8213 18.5959 94.024 19.1933 94.024ZM34.2538 80.456C34.8298 80.456 35.2778 80.5627 35.5978 80.776C35.7684 80.8827 35.8324 81.0427 35.7898 81.256L35.2778 84.232C35.2564 84.488 35.1071 84.5627 34.8298 84.456C34.5311 84.3707 34.2538 84.328 33.9978 84.328C33.7418 84.328 33.5071 84.36 33.2938 84.424C32.6964 84.5093 32.2058 84.8507 31.8218 85.448C31.4591 86.024 31.2778 86.7173 31.2778 87.528V96.584C31.2778 96.6907 31.2351 96.7867 31.1498 96.872C31.0858 96.936 31.0004 96.968 30.8938 96.968H27.9498C27.8431 96.968 27.7471 96.936 27.6618 96.872C27.5978 96.7867 27.5658 96.6907 27.5658 96.584V81.032C27.5658 80.9253 27.5978 80.84 27.6618 80.776C27.7471 80.6907 27.8431 80.648 27.9498 80.648H30.8938C31.0004 80.648 31.0858 80.6907 31.1498 80.776C31.2351 80.84 31.2778 80.9253 31.2778 81.032V82.504C31.2778 82.5893 31.2991 82.6427 31.3418 82.664C31.3844 82.664 31.4164 82.6213 31.4378 82.536C32.0138 81.1493 32.9524 80.456 34.2538 80.456ZM44.989 81.032C44.989 80.9253 45.021 80.84 45.085 80.776C45.1703 80.6907 45.2663 80.648 45.373 80.648H48.317C48.4237 80.648 48.509 80.6907 48.573 80.776C48.6583 80.84 48.701 80.9253 48.701 81.032V96.616C48.701 96.7227 48.6583 96.8187 48.573 96.904C48.509 96.968 48.4237 97 48.317 97H45.373C45.2663 97 45.1703 96.968 45.085 96.904C45.021 96.8187 44.989 96.7227 44.989 96.616V95.912C44.989 95.848 44.9677 95.8053 44.925 95.784C44.8823 95.7627 44.8397 95.784 44.797 95.848C44.1783 96.7653 43.1863 97.224 41.821 97.224C40.5197 97.224 39.4637 96.84 38.653 96.072C37.8637 95.2827 37.469 94.0773 37.469 92.456V81.032C37.469 80.9253 37.501 80.84 37.565 80.776C37.6503 80.6907 37.7463 80.648 37.853 80.648H40.797C40.9037 80.648 40.989 80.6907 41.053 80.776C41.1383 80.84 41.181 80.9253 41.181 81.032V91.656C41.181 93.256 41.7997 94.056 43.037 94.056C43.6557 94.056 44.1357 93.832 44.477 93.384C44.8183 92.9147 44.989 92.2853 44.989 91.496V81.032ZM65.8683 80.392C67.2549 80.392 68.3003 80.8827 69.0043 81.864C69.7296 82.824 70.0923 84.168 70.0923 85.896V96.616C70.0923 96.7227 70.0496 96.8187 69.9643 96.904C69.9003 96.968 69.8149 97 69.7083 97H66.7963C66.6896 97 66.5936 96.968 66.5083 96.904C66.4443 96.8187 66.4123 96.7227 66.4123 96.616V86.152C66.4123 85.3413 66.2523 84.712 65.9323 84.264C65.6123 83.816 65.1749 83.592 64.6203 83.592C64.0229 83.592 63.5536 83.816 63.2123 84.264C62.8709 84.712 62.7003 85.3307 62.7003 86.12V96.616C62.7003 96.7227 62.6576 96.8187 62.5723 96.904C62.5083 96.968 62.4229 97 62.3163 97H59.4043C59.2976 97 59.2016 96.968 59.1163 96.904C59.0523 96.8187 59.0203 96.7227 59.0203 96.616V86.152C59.0203 85.3413 58.8496 84.712 58.5083 84.264C58.1883 83.816 57.7616 83.592 57.2283 83.592C56.6309 83.592 56.1616 83.816 55.8203 84.264C55.4789 84.712 55.3083 85.3307 55.3083 86.12V96.616C55.3083 96.7227 55.2656 96.8187 55.1803 96.904C55.1163 96.968 55.0309 97 54.9243 97H52.0123C51.9056 97 51.8096 96.968 51.7243 96.904C51.6603 96.8187 51.6283 96.7227 51.6283 96.616V81.032C51.6283 80.9253 51.6603 80.84 51.7243 80.776C51.8096 80.6907 51.9056 80.648 52.0123 80.648H54.9243C55.0309 80.648 55.1163 80.6907 55.1803 80.776C55.2656 80.84 55.3083 80.9253 55.3083 81.032V81.544C55.3083 81.608 55.3296 81.6507 55.3723 81.672C55.4149 81.6933 55.4576 81.672 55.5003 81.608C55.9269 81.1813 56.4069 80.872 56.9403 80.68C57.4736 80.488 57.9963 80.392 58.5083 80.392C60.0869 80.392 61.2496 81.064 61.9963 82.408C62.0603 82.4933 62.1563 82.4613 62.2843 82.312C62.7109 81.6293 63.2443 81.1387 63.8843 80.84C64.5456 80.5413 65.2069 80.392 65.8683 80.392Z" fill="#1F2732"/>
</svg>
