<svg width="201" height="231" viewBox="0 0 201 231" fill="none" xmlns="http://www.w3.org/2000/svg">
<path d="M16.41 11.875C16.5 11.875 16.545 11.965 16.545 12.145C16.545 12.325 16.5 12.415 16.41 12.415C15.63 12.415 15.045 12.505 14.655 12.685C14.295 12.865 14.055 13.18 13.935 13.63C13.815 14.05 13.755 14.71 13.755 15.61V40.18C13.755 43.54 12.915 46.165 11.235 48.055C9.585 49.945 7.275 50.89 4.305 50.89C3.165 50.89 2.235 50.65 1.515 50.17C0.795 49.69 0.435 49.03 0.435 48.19C0.435 47.59 0.63 47.05 1.02 46.57C1.41 46.12 1.995 45.895 2.775 45.895C3.525 45.895 4.095 46.12 4.485 46.57C4.905 47.02 5.28 47.65 5.61 48.46C5.79 48.94 5.97 49.3 6.15 49.54C6.33 49.81 6.555 49.945 6.825 49.945C7.455 49.945 7.92 49.435 8.22 48.415C8.52 47.395 8.67 45.7 8.67 43.33V15.52C8.67 14.62 8.565 13.96 8.355 13.54C8.175 13.12 7.83 12.835 7.32 12.685C6.81 12.505 6 12.415 4.89 12.415C4.83 12.415 4.8 12.325 4.8 12.145C4.8 11.965 4.83 11.875 4.89 11.875L7.68 11.92C9.12 11.98 10.275 12.01 11.145 12.01C11.985 12.01 13.035 11.98 14.295 11.92L16.41 11.875ZM32.0767 40.27C31.9567 40.33 31.8067 40.36 31.6267 40.36C31.0267 40.36 30.4717 39.985 29.9617 39.235C29.4517 38.455 29.1967 37.435 29.1967 36.175V28.525C29.1967 26.605 29.0317 25.21 28.7017 24.34C28.4017 23.47 27.8767 23.035 27.1267 23.035C25.5367 23.035 24.6367 24.265 24.4267 26.725C24.3367 27.625 24.0667 28.27 23.6167 28.66C23.1967 29.05 22.5967 29.245 21.8167 29.245C21.0667 29.245 20.5117 29.095 20.1517 28.795C19.8217 28.465 19.6567 28.045 19.6567 27.535C19.6567 26.635 20.1817 25.78 21.2317 24.97C22.2817 24.13 23.5417 23.455 25.0117 22.945C26.5117 22.435 27.8317 22.18 28.9717 22.18C30.2917 22.18 31.3567 22.6 32.1667 23.44C33.0067 24.25 33.4267 25.495 33.4267 27.175V35.14C33.4267 36.01 33.5767 36.685 33.8767 37.165C34.2067 37.645 34.6567 37.885 35.2267 37.885C35.6467 37.885 36.0817 37.78 36.5317 37.57H36.5767C36.6967 37.57 36.7717 37.645 36.8017 37.795C36.8617 37.915 36.8317 38.005 36.7117 38.065L32.0767 40.27ZM23.4367 40.315C22.1467 40.315 21.1717 40.03 20.5117 39.46C19.8517 38.89 19.5217 38.095 19.5217 37.075C19.5217 36.265 19.7167 35.62 20.1067 35.14C20.4967 34.63 20.9767 34.24 21.5467 33.97C22.1467 33.67 22.9717 33.34 24.0217 32.98L25.1467 32.575L29.6467 30.91L29.8267 31.585L27.2617 32.755C27.1717 32.785 26.8717 32.905 26.3617 33.115C25.8517 33.295 25.4017 33.61 25.0117 34.06C24.6517 34.51 24.4717 35.035 24.4717 35.635C24.4717 36.355 24.6967 36.925 25.1467 37.345C25.6267 37.735 26.1667 37.93 26.7667 37.93C27.2467 37.93 27.7417 37.765 28.2517 37.435L30.5017 35.905L30.5467 36.625L27.3967 38.875C26.7067 39.385 26.0617 39.76 25.4617 40C24.8617 40.21 24.1867 40.315 23.4367 40.315ZM37.6071 40C37.5471 40 37.5171 39.91 37.5171 39.73C37.5171 39.55 37.5471 39.46 37.6071 39.46C38.5371 39.46 39.1671 39.25 39.4971 38.83C39.8571 38.38 40.0371 37.555 40.0371 36.355V13.495C40.0371 12.445 39.9321 11.695 39.7221 11.245C39.5421 10.795 39.2121 10.57 38.7321 10.57C38.3121 10.57 37.7421 10.735 37.0221 11.065H36.9771C36.8871 11.065 36.7971 10.99 36.7071 10.84C36.6471 10.66 36.6471 10.555 36.7071 10.525L43.2771 7.42L43.5021 7.375C43.6521 7.375 43.8021 7.45 43.9521 7.6C44.1321 7.72 44.2221 7.84 44.2221 7.96V36.355C44.2221 37.555 44.3871 38.38 44.7171 38.83C45.0771 39.25 45.7221 39.46 46.6521 39.46C46.7721 39.46 46.8321 39.55 46.8321 39.73C46.8321 39.91 46.7721 40 46.6521 40C45.8721 40 45.2421 39.985 44.7621 39.955L42.1521 39.91L39.4521 39.955C39.0021 39.985 38.3871 40 37.6071 40ZM48.9471 40C48.8571 40 48.8121 39.91 48.8121 39.73C48.8121 39.55 48.8571 39.46 48.9471 39.46C50.0271 39.46 50.5671 39.145 50.5671 38.515C50.5671 38.185 50.4471 37.885 50.2071 37.615L44.7621 30.64L47.8221 28.3L54.1221 36.355C54.9921 37.435 55.8171 38.23 56.5971 38.74C57.4071 39.22 58.2171 39.46 59.0271 39.46C59.1171 39.46 59.1621 39.55 59.1621 39.73C59.1621 39.91 59.1171 40 59.0271 40C58.2471 40 57.6321 39.985 57.1821 39.955L54.4821 39.91L51.0171 39.955C50.5071 39.985 49.8171 40 48.9471 40ZM42.3321 32.575L48.4071 26.725C49.1871 26.005 49.5771 25.27 49.5771 24.52C49.5771 24.13 49.4271 23.815 49.1271 23.575C48.8271 23.305 48.4071 23.17 47.8671 23.17C47.8071 23.17 47.7771 23.08 47.7771 22.9C47.7771 22.72 47.8071 22.63 47.8671 22.63C48.7371 22.63 49.4121 22.645 49.8921 22.675L53.4471 22.72L56.7321 22.675C57.1521 22.645 57.7371 22.63 58.4871 22.63C58.5771 22.63 58.6221 22.72 58.6221 22.9C58.6221 23.08 58.5771 23.17 58.4871 23.17C57.1971 23.17 55.7121 23.5 54.0321 24.16C52.3821 24.79 50.8971 25.72 49.5771 26.95L42.6021 33.295L42.3321 32.575ZM73.1216 40.27C73.0016 40.33 72.8516 40.36 72.6716 40.36C72.0716 40.36 71.5166 39.985 71.0066 39.235C70.4966 38.455 70.2416 37.435 70.2416 36.175V28.525C70.2416 26.605 70.0766 25.21 69.7466 24.34C69.4466 23.47 68.9216 23.035 68.1716 23.035C66.5816 23.035 65.6816 24.265 65.4716 26.725C65.3816 27.625 65.1116 28.27 64.6616 28.66C64.2416 29.05 63.6416 29.245 62.8616 29.245C62.1116 29.245 61.5566 29.095 61.1966 28.795C60.8666 28.465 60.7016 28.045 60.7016 27.535C60.7016 26.635 61.2266 25.78 62.2766 24.97C63.3266 24.13 64.5866 23.455 66.0566 22.945C67.5566 22.435 68.8766 22.18 70.0166 22.18C71.3366 22.18 72.4016 22.6 73.2116 23.44C74.0516 24.25 74.4716 25.495 74.4716 27.175V35.14C74.4716 36.01 74.6216 36.685 74.9216 37.165C75.2516 37.645 75.7016 37.885 76.2716 37.885C76.6916 37.885 77.1266 37.78 77.5766 37.57H77.6216C77.7416 37.57 77.8166 37.645 77.8466 37.795C77.9066 37.915 77.8766 38.005 77.7566 38.065L73.1216 40.27ZM64.4816 40.315C63.1916 40.315 62.2166 40.03 61.5566 39.46C60.8966 38.89 60.5666 38.095 60.5666 37.075C60.5666 36.265 60.7616 35.62 61.1516 35.14C61.5416 34.63 62.0216 34.24 62.5916 33.97C63.1916 33.67 64.0166 33.34 65.0666 32.98L66.1916 32.575L70.6916 30.91L70.8716 31.585L68.3066 32.755C68.2166 32.785 67.9166 32.905 67.4066 33.115C66.8966 33.295 66.4466 33.61 66.0566 34.06C65.6966 34.51 65.5166 35.035 65.5166 35.635C65.5166 36.355 65.7416 36.925 66.1916 37.345C66.6716 37.735 67.2116 37.93 67.8116 37.93C68.2916 37.93 68.7866 37.765 69.2966 37.435L71.5466 35.905L71.5916 36.625L68.4416 38.875C67.7516 39.385 67.1066 39.76 66.5066 40C65.9066 40.21 65.2316 40.315 64.4816 40.315ZM84.592 27.22C86.242 25.33 87.562 24.025 88.552 23.305C89.572 22.555 90.442 22.18 91.162 22.18C91.852 22.18 92.512 22.435 93.142 22.945C93.802 23.425 94.132 24.01 94.132 24.7C94.132 25.33 93.937 25.855 93.547 26.275C93.157 26.665 92.647 26.86 92.017 26.86C91.567 26.86 91.192 26.77 90.892 26.59C90.622 26.41 90.337 26.14 90.037 25.78C89.767 25.48 89.527 25.27 89.317 25.15C89.137 25 88.912 24.925 88.642 24.925C88.312 24.925 87.892 25.105 87.382 25.465C86.902 25.825 86.092 26.605 84.952 27.805L84.592 27.22ZM79.462 40C79.372 40 79.327 39.91 79.327 39.73C79.327 39.55 79.372 39.46 79.462 39.46C80.392 39.46 81.022 39.25 81.352 38.83C81.682 38.38 81.847 37.555 81.847 36.355V27.895C81.847 26.965 81.727 26.29 81.487 25.87C81.277 25.42 80.932 25.195 80.452 25.195C79.942 25.195 79.222 25.405 78.292 25.825H78.202C78.112 25.825 78.037 25.75 77.977 25.6C77.947 25.45 77.962 25.36 78.022 25.33L84.277 22.27C84.457 22.21 84.562 22.18 84.592 22.18C84.952 22.18 85.282 22.57 85.582 23.35C85.912 24.1 86.077 25.105 86.077 26.365V36.355C86.077 37.555 86.362 38.38 86.932 38.83C87.502 39.25 88.552 39.46 90.082 39.46C90.202 39.46 90.262 39.55 90.262 39.73C90.262 39.91 90.202 40 90.082 40C89.032 40 88.207 39.985 87.607 39.955L83.962 39.91L81.307 39.955C80.857 39.985 80.242 40 79.462 40ZM103.038 40.54C101.718 40.54 100.593 40.225 99.6628 39.595C98.7328 38.965 98.2678 37.9 98.2678 36.4V26.41C98.2678 25.48 98.1028 24.835 97.7728 24.475C97.4428 24.115 96.8428 23.935 95.9728 23.935C95.9428 23.935 95.8978 23.89 95.8378 23.8C95.8078 23.71 95.7928 23.62 95.7928 23.53C95.7928 23.41 95.8078 23.32 95.8378 23.26C95.8678 23.17 95.9128 23.125 95.9728 23.125C97.5028 23.065 98.7328 22.735 99.6628 22.135C100.623 21.535 101.358 20.62 101.868 19.39C101.928 19.27 102.048 19.21 102.228 19.21C102.438 19.21 102.543 19.27 102.543 19.39V34.915C102.543 36.055 102.828 36.895 103.398 37.435C103.998 37.975 104.778 38.245 105.738 38.245C106.938 38.245 108.108 37.795 109.248 36.895L109.338 36.85C109.458 36.85 109.548 36.91 109.608 37.03C109.698 37.15 109.698 37.24 109.608 37.3C108.498 38.41 107.418 39.235 106.368 39.775C105.318 40.285 104.208 40.54 103.038 40.54ZM108.213 24.925C106.023 24.445 103.608 24.205 100.968 24.205V23.035C102.918 23.035 105.393 22.885 108.393 22.585C108.453 22.585 108.513 22.705 108.573 22.945C108.663 23.155 108.708 23.395 108.708 23.665C108.708 23.965 108.648 24.265 108.528 24.565C108.438 24.835 108.333 24.955 108.213 24.925ZM124.23 40.27C124.11 40.33 123.96 40.36 123.78 40.36C123.18 40.36 122.625 39.985 122.115 39.235C121.605 38.455 121.35 37.435 121.35 36.175V28.525C121.35 26.605 121.185 25.21 120.855 24.34C120.555 23.47 120.03 23.035 119.28 23.035C117.69 23.035 116.79 24.265 116.58 26.725C116.49 27.625 116.22 28.27 115.77 28.66C115.35 29.05 114.75 29.245 113.97 29.245C113.22 29.245 112.665 29.095 112.305 28.795C111.975 28.465 111.81 28.045 111.81 27.535C111.81 26.635 112.335 25.78 113.385 24.97C114.435 24.13 115.695 23.455 117.165 22.945C118.665 22.435 119.985 22.18 121.125 22.18C122.445 22.18 123.51 22.6 124.32 23.44C125.16 24.25 125.58 25.495 125.58 27.175V35.14C125.58 36.01 125.73 36.685 126.03 37.165C126.36 37.645 126.81 37.885 127.38 37.885C127.8 37.885 128.235 37.78 128.685 37.57H128.73C128.85 37.57 128.925 37.645 128.955 37.795C129.015 37.915 128.985 38.005 128.865 38.065L124.23 40.27ZM115.59 40.315C114.3 40.315 113.325 40.03 112.665 39.46C112.005 38.89 111.675 38.095 111.675 37.075C111.675 36.265 111.87 35.62 112.26 35.14C112.65 34.63 113.13 34.24 113.7 33.97C114.3 33.67 115.125 33.34 116.175 32.98L117.3 32.575L121.8 30.91L121.98 31.585L119.415 32.755C119.325 32.785 119.025 32.905 118.515 33.115C118.005 33.295 117.555 33.61 117.165 34.06C116.805 34.51 116.625 35.035 116.625 35.635C116.625 36.355 116.85 36.925 117.3 37.345C117.78 37.735 118.32 37.93 118.92 37.93C119.4 37.93 119.895 37.765 120.405 37.435L122.655 35.905L122.7 36.625L119.55 38.875C118.86 39.385 118.215 39.76 117.615 40C117.015 40.21 116.34 40.315 115.59 40.315ZM16.41 63.875C16.5 63.875 16.545 63.965 16.545 64.145C16.545 64.325 16.5 64.415 16.41 64.415C15.63 64.415 15.045 64.505 14.655 64.685C14.295 64.865 14.055 65.18 13.935 65.63C13.815 66.05 13.755 66.71 13.755 67.61V92.18C13.755 95.54 12.915 98.165 11.235 100.055C9.585 101.945 7.275 102.89 4.305 102.89C3.165 102.89 2.235 102.65 1.515 102.17C0.795 101.69 0.435 101.03 0.435 100.19C0.435 99.59 0.63 99.05 1.02 98.57C1.41 98.12 1.995 97.895 2.775 97.895C3.525 97.895 4.095 98.12 4.485 98.57C4.905 99.02 5.28 99.65 5.61 100.46C5.79 100.94 5.97 101.3 6.15 101.54C6.33 101.81 6.555 101.945 6.825 101.945C7.455 101.945 7.92 101.435 8.22 100.415C8.52 99.395 8.67 97.7 8.67 95.33V67.52C8.67 66.62 8.565 65.96 8.355 65.54C8.175 65.12 7.83 64.835 7.32 64.685C6.81 64.505 6 64.415 4.89 64.415C4.83 64.415 4.8 64.325 4.8 64.145C4.8 63.965 4.83 63.875 4.89 63.875L7.68 63.92C9.12 63.98 10.275 64.01 11.145 64.01C11.985 64.01 13.035 63.98 14.295 63.92L16.41 63.875ZM26.889 92.54C25.239 92.54 23.934 92.03 22.974 91.01C22.044 89.96 21.579 88.595 21.579 86.915V80.3C21.579 78.35 21.114 77.375 20.184 77.375C19.854 77.375 19.479 77.48 19.059 77.69H19.014C18.894 77.69 18.804 77.615 18.744 77.465C18.684 77.285 18.699 77.18 18.789 77.15L24.819 74.27L25.044 74.225C25.194 74.225 25.344 74.3 25.494 74.45C25.674 74.57 25.764 74.69 25.764 74.81V84.755C25.764 87.995 27.009 89.615 29.499 89.615C30.339 89.615 31.194 89.375 32.064 88.895C32.964 88.415 33.669 87.785 34.179 87.005L34.449 87.545C33.369 89.105 32.199 90.335 30.939 91.235C29.679 92.105 28.329 92.54 26.889 92.54ZM37.509 86.78C37.509 87.8 37.599 88.52 37.779 88.94C37.989 89.36 38.319 89.57 38.769 89.57C39.189 89.57 39.804 89.405 40.614 89.075H40.704C40.794 89.075 40.869 89.15 40.929 89.3C41.019 89.45 41.019 89.54 40.929 89.57L34.719 92.585C34.659 92.615 34.584 92.63 34.494 92.63C34.164 92.63 33.879 92.24 33.639 91.46C33.429 90.68 33.324 89.63 33.324 88.31V80.3C33.324 78.35 32.859 77.375 31.929 77.375C31.599 77.375 31.209 77.48 30.759 77.69H30.714C30.624 77.69 30.549 77.615 30.489 77.465C30.429 77.285 30.444 77.18 30.534 77.15L36.564 74.27C36.624 74.24 36.699 74.225 36.789 74.225C36.939 74.225 37.089 74.3 37.239 74.45C37.419 74.57 37.509 74.69 37.509 74.81V86.78ZM46.2788 76.79C46.2788 77.66 46.5788 78.41 47.1788 79.04C47.8088 79.67 48.7088 80.33 49.8788 81.02C51.0188 81.68 51.8588 82.205 52.3988 82.595C52.9688 82.955 53.4788 83.48 53.9288 84.17C54.3788 84.83 54.6038 85.64 54.6038 86.6C54.6038 87.62 54.3488 88.58 53.8388 89.48C53.3288 90.38 52.5638 91.115 51.5438 91.685C50.5238 92.225 49.3088 92.495 47.8988 92.495C46.2488 92.495 44.6888 92.09 43.2188 91.28C43.0388 91.1 42.9488 90.92 42.9488 90.74L42.8588 86.285C42.8588 86.195 42.9338 86.15 43.0838 86.15C43.2638 86.12 43.3688 86.135 43.3988 86.195C43.8788 87.695 44.6738 88.97 45.7838 90.02C46.8938 91.07 48.0188 91.595 49.1588 91.595C49.7888 91.595 50.2838 91.4 50.6438 91.01C51.0338 90.62 51.2288 90.05 51.2288 89.3C51.2288 88.19 50.9138 87.32 50.2838 86.69C49.6538 86.03 48.7238 85.355 47.4938 84.665C46.4438 84.095 45.6488 83.63 45.1088 83.27C44.5688 82.91 44.0888 82.4 43.6688 81.74C43.2488 81.08 43.0388 80.27 43.0388 79.31C43.0388 77.54 43.6688 76.25 44.9288 75.44C46.1888 74.6 47.7338 74.18 49.5638 74.18C50.2538 74.18 50.8688 74.225 51.4088 74.315C51.9788 74.405 52.6088 74.585 53.2988 74.855C53.5688 74.945 53.7038 75.11 53.7038 75.35C53.7038 76.1 53.6888 76.685 53.6588 77.105L53.6138 79.355C53.6138 79.445 53.5238 79.49 53.3438 79.49C53.1638 79.49 53.0738 79.445 53.0738 79.355C53.0738 78.785 52.8338 78.17 52.3538 77.51C51.8738 76.82 51.2438 76.235 50.4638 75.755C49.7138 75.275 48.9338 75.035 48.1238 75.035C46.8938 75.035 46.2788 75.62 46.2788 76.79ZM64.4099 92.54C63.0899 92.54 61.9649 92.225 61.0349 91.595C60.1049 90.965 59.6399 89.9 59.6399 88.4V78.41C59.6399 77.48 59.4749 76.835 59.1449 76.475C58.8149 76.115 58.2149 75.935 57.3449 75.935C57.3149 75.935 57.2699 75.89 57.2099 75.8C57.1799 75.71 57.1649 75.62 57.1649 75.53C57.1649 75.41 57.1799 75.32 57.2099 75.26C57.2399 75.17 57.2849 75.125 57.3449 75.125C58.8749 75.065 60.1049 74.735 61.0349 74.135C61.9949 73.535 62.7299 72.62 63.2399 71.39C63.2999 71.27 63.4199 71.21 63.5999 71.21C63.8099 71.21 63.9149 71.27 63.9149 71.39V86.915C63.9149 88.055 64.1999 88.895 64.7699 89.435C65.3699 89.975 66.1499 90.245 67.1099 90.245C68.3099 90.245 69.4799 89.795 70.6199 88.895L70.7099 88.85C70.8299 88.85 70.9199 88.91 70.9799 89.03C71.0699 89.15 71.0699 89.24 70.9799 89.3C69.8699 90.41 68.7899 91.235 67.7399 91.775C66.6899 92.285 65.5799 92.54 64.4099 92.54ZM69.5849 76.925C67.3949 76.445 64.9799 76.205 62.3399 76.205V75.035C64.2899 75.035 66.7649 74.885 69.7649 74.585C69.8249 74.585 69.8849 74.705 69.9449 74.945C70.0349 75.155 70.0799 75.395 70.0799 75.665C70.0799 75.965 70.0199 76.265 69.8999 76.565C69.8099 76.835 69.7049 76.955 69.5849 76.925ZM73.0021 92C72.9121 92 72.8671 91.91 72.8671 91.73C72.8671 91.55 72.9121 91.46 73.0021 91.46C73.9321 91.46 74.5621 91.25 74.8921 90.83C75.2221 90.38 75.3871 89.555 75.3871 88.355V80.3C75.3871 79.28 75.2821 78.545 75.0721 78.095C74.8621 77.645 74.5171 77.42 74.0371 77.42C73.6471 77.42 73.0921 77.585 72.3721 77.915H72.3271C72.2071 77.915 72.1171 77.84 72.0571 77.69C71.9971 77.51 72.0121 77.405 72.1021 77.375L78.8971 74.225L79.0321 74.18C79.1821 74.18 79.3321 74.255 79.4821 74.405C79.6321 74.555 79.7071 74.69 79.7071 74.81V75.8C79.6471 77 79.6171 78.47 79.6171 80.21V88.355C79.6171 89.555 79.7821 90.38 80.1121 90.83C80.4721 91.25 81.1171 91.46 82.0471 91.46C82.1371 91.46 82.1821 91.55 82.1821 91.73C82.1821 91.91 82.1371 92 82.0471 92C81.2671 92 80.6521 91.985 80.2021 91.955L77.5021 91.91L74.8471 91.955C74.3971 91.985 73.7821 92 73.0021 92ZM77.3221 69.725C76.4521 69.725 75.7771 69.485 75.2971 69.005C74.8171 68.525 74.5771 67.85 74.5771 66.98C74.5771 66.2 74.8171 65.585 75.2971 65.135C75.8071 64.655 76.4821 64.415 77.3221 64.415C78.1621 64.415 78.8071 64.64 79.2571 65.09C79.7071 65.54 79.9321 66.17 79.9321 66.98C79.9321 67.85 79.7071 68.525 79.2571 69.005C78.8071 69.485 78.1621 69.725 77.3221 69.725ZM93.5984 92.54C91.6184 92.54 89.9384 92.12 88.5584 91.28C87.2084 90.41 86.1884 89.3 85.4984 87.95C84.8384 86.57 84.5084 85.13 84.5084 83.63C84.5084 81.74 85.0334 80.09 86.0834 78.68C87.1334 77.24 88.4684 76.145 90.0884 75.395C91.7384 74.615 93.4184 74.225 95.1284 74.225C96.5684 74.225 97.8584 74.525 98.9984 75.125C100.168 75.725 100.753 76.55 100.753 77.6C100.753 78.17 100.528 78.665 100.078 79.085C99.6584 79.475 99.0584 79.67 98.2784 79.67C97.5584 79.67 96.9884 79.49 96.5684 79.13C96.1484 78.74 95.8034 78.155 95.5334 77.375C95.2634 76.535 94.9934 75.965 94.7234 75.665C94.4834 75.335 94.0334 75.17 93.3734 75.17C92.0834 75.17 91.0484 75.815 90.2684 77.105C89.5184 78.365 89.1434 80.045 89.1434 82.145C89.1434 84.635 89.6984 86.63 90.8084 88.13C91.9184 89.6 93.6884 90.335 96.1184 90.335C96.9284 90.335 97.6184 90.245 98.1884 90.065C98.7884 89.885 99.5384 89.585 100.438 89.165H100.483C100.573 89.165 100.648 89.21 100.708 89.3C100.798 89.39 100.813 89.465 100.753 89.525C99.6434 90.545 98.5334 91.31 97.4234 91.82C96.3134 92.3 95.0384 92.54 93.5984 92.54ZM112.496 92.54C110.606 92.54 108.971 92.15 107.591 91.37C106.211 90.56 105.161 89.495 104.441 88.175C103.721 86.825 103.361 85.37 103.361 83.81C103.361 82.07 103.796 80.465 104.666 78.995C105.536 77.525 106.736 76.37 108.266 75.53C109.826 74.66 111.581 74.225 113.531 74.225C115.391 74.225 116.831 74.645 117.851 75.485C118.871 76.325 119.381 77.63 119.381 79.4C119.381 80.33 119.216 80.795 118.886 80.795H114.566C114.626 78.965 114.446 77.57 114.026 76.61C113.606 75.62 112.871 75.125 111.821 75.125C110.621 75.125 109.661 75.74 108.941 76.97C108.251 78.2 107.906 79.835 107.906 81.875C107.906 84.515 108.506 86.585 109.706 88.085C110.936 89.585 112.691 90.335 114.971 90.335C115.781 90.335 116.471 90.245 117.041 90.065C117.611 89.855 118.361 89.525 119.291 89.075L119.381 89.03C119.441 89.03 119.501 89.09 119.561 89.21C119.651 89.33 119.666 89.42 119.606 89.48C118.496 90.56 117.371 91.34 116.231 91.82C115.091 92.3 113.846 92.54 112.496 92.54ZM106.286 79.985L116.141 79.805V80.795L106.331 80.84L106.286 79.985ZM4.53 144C4.44 144 4.395 143.91 4.395 143.73C4.395 143.55 4.44 143.46 4.53 143.46C5.58 143.46 6.345 143.385 6.825 143.235C7.305 143.085 7.62 142.8 7.77 142.38C7.95 141.93 8.04 141.255 8.04 140.355V119.52C8.04 118.62 7.965 117.96 7.815 117.54C7.665 117.12 7.365 116.835 6.915 116.685C6.465 116.505 5.775 116.415 4.845 116.415C4.755 116.415 4.71 116.325 4.71 116.145C4.71 115.965 4.755 115.875 4.845 115.875H23.925C24.225 115.875 24.375 116.01 24.375 116.28L24.465 122.265C24.465 122.325 24.375 122.37 24.195 122.4C24.045 122.43 23.955 122.4 23.925 122.31C23.445 120.57 22.635 119.28 21.495 118.44C20.355 117.6 18.855 117.18 16.995 117.18H15.645C14.745 117.18 14.085 117.375 13.665 117.765C13.245 118.155 13.035 118.755 13.035 119.565V140.175C13.035 141.105 13.155 141.795 13.395 142.245C13.635 142.695 14.085 143.01 14.745 143.19C15.405 143.37 16.44 143.46 17.85 143.46C17.91 143.46 17.94 143.55 17.94 143.73C17.94 143.91 17.91 144 17.85 144C16.62 144 15.66 143.985 14.97 143.955L10.38 143.91L7.005 143.955C6.405 143.985 5.58 144 4.53 144ZM21.675 134.46C21.675 133.26 21.195 132.315 20.235 131.625C19.305 130.905 17.97 130.545 16.23 130.545H10.65V129.285H16.275C18.015 129.285 19.335 128.985 20.235 128.385C21.165 127.755 21.63 126.9 21.63 125.82C21.63 125.76 21.72 125.73 21.9 125.73C22.08 125.73 22.17 125.76 22.17 125.82L22.125 129.915C22.125 130.875 22.14 131.595 22.17 132.075L22.215 134.46C22.215 134.55 22.125 134.595 21.945 134.595C21.765 134.595 21.675 134.55 21.675 134.46ZM36.3847 144.585C34.5247 144.585 32.8897 144.165 31.4797 143.325C30.0997 142.455 29.0347 141.3 28.2847 139.86C27.5347 138.39 27.1597 136.8 27.1597 135.09C27.1597 133.14 27.6547 131.49 28.6447 130.14C29.6347 128.76 30.8947 127.74 32.4247 127.08C33.9547 126.39 35.5297 126.045 37.1497 126.045C39.0097 126.045 40.6297 126.48 42.0097 127.35C43.3897 128.22 44.4397 129.375 45.1597 130.815C45.9097 132.225 46.2847 133.74 46.2847 135.36C46.2847 137.16 45.8347 138.765 44.9347 140.175C44.0347 141.555 42.8197 142.635 41.2897 143.415C39.7897 144.195 38.1547 144.585 36.3847 144.585ZM37.7347 143.64C38.9047 143.64 39.7897 143.07 40.3897 141.93C41.0197 140.76 41.3347 139.095 41.3347 136.935C41.3347 134.835 41.0647 133.035 40.5247 131.535C39.9847 130.035 39.2797 128.91 38.4097 128.16C37.5397 127.38 36.6097 126.99 35.6197 126.99C33.2197 126.99 32.0197 129.135 32.0197 133.425C32.0197 135.435 32.2747 137.22 32.7847 138.78C33.2947 140.31 33.9847 141.51 34.8547 142.38C35.7247 143.22 36.6847 143.64 37.7347 143.64ZM54.6213 131.22C56.2713 129.33 57.5913 128.025 58.5813 127.305C59.6013 126.555 60.4713 126.18 61.1913 126.18C61.8813 126.18 62.5413 126.435 63.1713 126.945C63.8313 127.425 64.1613 128.01 64.1613 128.7C64.1613 129.33 63.9663 129.855 63.5763 130.275C63.1863 130.665 62.6763 130.86 62.0463 130.86C61.5963 130.86 61.2213 130.77 60.9213 130.59C60.6513 130.41 60.3663 130.14 60.0663 129.78C59.7963 129.48 59.5563 129.27 59.3463 129.15C59.1663 129 58.9413 128.925 58.6713 128.925C58.3413 128.925 57.9213 129.105 57.4113 129.465C56.9313 129.825 56.1213 130.605 54.9813 131.805L54.6213 131.22ZM49.4913 144C49.4013 144 49.3563 143.91 49.3563 143.73C49.3563 143.55 49.4013 143.46 49.4913 143.46C50.4213 143.46 51.0513 143.25 51.3813 142.83C51.7113 142.38 51.8763 141.555 51.8763 140.355V131.895C51.8763 130.965 51.7563 130.29 51.5163 129.87C51.3063 129.42 50.9613 129.195 50.4813 129.195C49.9713 129.195 49.2513 129.405 48.3213 129.825H48.2313C48.1413 129.825 48.0663 129.75 48.0063 129.6C47.9763 129.45 47.9913 129.36 48.0513 129.33L54.3063 126.27C54.4863 126.21 54.5913 126.18 54.6213 126.18C54.9813 126.18 55.3113 126.57 55.6113 127.35C55.9413 128.1 56.1063 129.105 56.1063 130.365V140.355C56.1063 141.555 56.3913 142.38 56.9613 142.83C57.5313 143.25 58.5813 143.46 60.1113 143.46C60.2313 143.46 60.2913 143.55 60.2913 143.73C60.2913 143.91 60.2313 144 60.1113 144C59.0613 144 58.2363 143.985 57.6363 143.955L53.9913 143.91L51.3363 143.955C50.8863 143.985 50.2713 144 49.4913 144ZM73.4271 144.54C71.7771 144.54 70.4721 144.03 69.5121 143.01C68.5821 141.96 68.1171 140.595 68.1171 138.915V132.3C68.1171 130.35 67.6521 129.375 66.7221 129.375C66.3921 129.375 66.0171 129.48 65.5971 129.69H65.5521C65.4321 129.69 65.3421 129.615 65.2821 129.465C65.2221 129.285 65.2371 129.18 65.3271 129.15L71.3571 126.27L71.5821 126.225C71.7321 126.225 71.8821 126.3 72.0321 126.45C72.2121 126.57 72.3021 126.69 72.3021 126.81V136.755C72.3021 139.995 73.5471 141.615 76.0371 141.615C76.8771 141.615 77.7321 141.375 78.6021 140.895C79.5021 140.415 80.2071 139.785 80.7171 139.005L80.9871 139.545C79.9071 141.105 78.7371 142.335 77.4771 143.235C76.2171 144.105 74.8671 144.54 73.4271 144.54ZM84.0471 138.78C84.0471 139.8 84.1371 140.52 84.3171 140.94C84.5271 141.36 84.8571 141.57 85.3071 141.57C85.7271 141.57 86.3421 141.405 87.1521 141.075H87.2421C87.3321 141.075 87.4071 141.15 87.4671 141.3C87.5571 141.45 87.5571 141.54 87.4671 141.57L81.2571 144.585C81.1971 144.615 81.1221 144.63 81.0321 144.63C80.7021 144.63 80.4171 144.24 80.1771 143.46C79.9671 142.68 79.8621 141.63 79.8621 140.31V132.3C79.8621 130.35 79.3971 129.375 78.4671 129.375C78.1371 129.375 77.7471 129.48 77.2971 129.69H77.2521C77.1621 129.69 77.0871 129.615 77.0271 129.465C76.9671 129.285 76.9821 129.18 77.0721 129.15L83.1021 126.27C83.1621 126.24 83.2371 126.225 83.3271 126.225C83.4771 126.225 83.6271 126.3 83.7771 126.45C83.9571 126.57 84.0471 126.69 84.0471 126.81V138.78ZM112.617 144C112.527 144 112.482 143.91 112.482 143.73C112.482 143.55 112.527 143.46 112.617 143.46C113.547 143.46 114.177 143.25 114.507 142.83C114.867 142.38 115.047 141.555 115.047 140.355V133.875C115.047 132.255 114.762 131.055 114.192 130.275C113.652 129.495 112.812 129.105 111.672 129.105C110.742 129.105 109.842 129.33 108.972 129.78C108.102 130.23 107.397 130.845 106.857 131.625L106.632 131.085C108.912 127.755 111.447 126.09 114.237 126.09C115.857 126.09 117.087 126.555 117.927 127.485C118.797 128.415 119.232 129.825 119.232 131.715V140.355C119.232 141.555 119.397 142.38 119.727 142.83C120.087 143.25 120.732 143.46 121.662 143.46C121.782 143.46 121.842 143.55 121.842 143.73C121.842 143.91 121.782 144 121.662 144C120.882 144 120.267 143.985 119.817 143.955L117.117 143.91L114.507 143.955C114.027 143.985 113.397 144 112.617 144ZM100.827 144C100.737 144 100.692 143.91 100.692 143.73C100.692 143.55 100.737 143.46 100.827 143.46C101.757 143.46 102.387 143.25 102.717 142.83C103.077 142.38 103.257 141.555 103.257 140.355V133.875C103.257 132.255 102.972 131.055 102.402 130.275C101.862 129.495 101.022 129.105 99.8818 129.105C98.9518 129.105 98.0518 129.33 97.1818 129.78C96.3118 130.23 95.6068 130.845 95.0668 131.625L94.8418 131.085C97.1218 127.755 99.6568 126.09 102.447 126.09C104.037 126.09 105.267 126.54 106.137 127.44C107.007 128.31 107.442 129.57 107.442 131.22V140.355C107.442 141.555 107.607 142.38 107.937 142.83C108.297 143.25 108.942 143.46 109.872 143.46C109.992 143.46 110.052 143.55 110.052 143.73C110.052 143.91 109.992 144 109.872 144C109.092 144 108.477 143.985 108.027 143.955L105.327 143.91L102.717 143.955C102.237 143.985 101.607 144 100.827 144ZM89.2618 144C89.1718 144 89.1268 143.91 89.1268 143.73C89.1268 143.55 89.1718 143.46 89.2618 143.46C90.1918 143.46 90.8218 143.25 91.1518 142.83C91.4818 142.38 91.6468 141.555 91.6468 140.355V131.895C91.6468 130.965 91.5268 130.29 91.2868 129.87C91.0768 129.42 90.7318 129.195 90.2518 129.195C89.7418 129.195 89.0218 129.405 88.0918 129.825H88.0018C87.9118 129.825 87.8368 129.75 87.7768 129.6C87.7468 129.45 87.7618 129.36 87.8218 129.33L94.0768 126.27C94.2568 126.21 94.3618 126.18 94.3918 126.18C94.7518 126.18 95.0818 126.57 95.3818 127.35C95.7118 128.1 95.8768 129.105 95.8768 130.365V140.355C95.8768 141.555 96.0418 142.38 96.3718 142.83C96.7318 143.25 97.3768 143.46 98.3068 143.46C98.3968 143.46 98.4418 143.55 98.4418 143.73C98.4418 143.91 98.3968 144 98.3068 144C97.5268 144 96.9118 143.985 96.4618 143.955L93.7618 143.91L91.1068 143.955C90.6568 143.985 90.0418 144 89.2618 144Z" fill="#1F2732"/>
<rect x="24" y="205" width="7" height="7" fill="#D1B06B"/>
<line x1="3" y1="213.5" x2="98" y2="213.5" stroke="#D1B06B"/>
<line x1="3" y1="203.5" x2="98" y2="203.5" stroke="#D1B06B"/>
<line x1="32.5" y1="231" x2="32.5" y2="187" stroke="#D1B06B"/>
<line x1="22.5" y1="231" x2="22.5" y2="187" stroke="#D1B06B"/>
</svg>
