<?xml version="1.0" encoding="utf-8"?>
<!-- Generator: Adobe Illustrator 26.3.1, SVG Export Plug-In . SVG Version: 6.00 Build 0)  -->
<svg version="1.1" id="error_alert_internet" xmlns="http://www.w3.org/2000/svg" xmlns:xlink="http://www.w3.org/1999/xlink"
	 x="0px" y="0px" viewBox="0 0 5300 3100" style="enable-background:new 0 0 5300 3100;" xml:space="preserve">
<style type="text/css">
	.st0{fill:#FFFFFF;}
	.st1{fill:#E39A50;}
	.st2{fill:#CCC0C0;}
	.st3{fill:#D38066;}
	.st4{fill:#19322D;}
	.st5{fill:#3D5A54;}
	.st6{fill:#BA492F;}
	.st7{fill:#DC9985;}
	.st8{fill:#99534E;}
	.st9{fill:#211818;}
	.st10{fill:#523434;}
	.st11{fill:#733E3B;}
	.st12{opacity:0.56;clip-path:url(#SVGID_00000181784962392820819930000010321002476859394705_);}
	.st13{fill:#4D2320;}
	.st14{fill:#FAA68F;}
	.st15{fill:#732E2F;}
	.st16{fill:#E8927B;}
	.st17{fill:#D97E66;}
	.st18{fill:#0D2829;}
	.st19{fill:#363636;}
	.st20{fill:#FAB09D;}
	.st21{fill:#312926;}
	.st22{fill:#999090;}
	.st23{fill:#3C3C3B;}
	.st24{fill:#FCA93E;}
	.st25{fill:#414245;}
</style>
<rect id="bg_00000032642781897788307560000007653407563241941662_" x="0.2" y="0.5" class="st0" width="5299.8" height="3099.5"/>
<g id="decor">
	<g>
		<g>
			<path class="st1" d="M701,2086.8c14.7,15.7,31.8,28.5,50.3,38.2l-15.1,56.2l85.2,22.9l15.3-57c19,0.4,38.2-2,56.9-7.4l32,55.5
				l76.4-44.1l-31.5-54.7c16.4-15.1,29.7-32.6,39.7-51.8l59.7,16l22.9-85.2l-60.5-16.2c0.4-19.7-2.2-39.6-8-59l53.3-30.7l-44.1-76.4
				l-53.3,30.7c-15-15.9-32.4-28.9-51.3-38.7l17.2-64l-85.2-22.9l-17.5,65.3c-20-0.3-40.2,2.5-59.9,8.6l-31.5-54.7l-76.4,44.1
				l32,55.5c-12.9,12.4-23.7,26.3-32.5,41.4l-62.7-16.8l-22.9,85.2l59.8,16c-1.5,22.5,0.9,45.3,7.6,67.5l-56.9,32.8l44.1,76.4
				L701,2086.8z M718.6,2025.7c-38.9-67.4-15.7-153.5,51.6-192.4c67.4-38.9,153.5-15.8,192.4,51.6c38.9,67.4,15.8,153.5-51.6,192.4
				C843.6,2116.2,757.5,2093.1,718.6,2025.7z"/>
		</g>
	</g>
	<path class="st1" d="M4684.2,915.5c3.2,14.7,8.9,28.5,16.5,41l-29.3,28.3l43,44.3l29.7-28.8c11.3,7.1,23.7,12.5,36.9,16l-0.7,44.9
		l61.7,1l0.7-44.2c15.2-3.2,29.6-8.9,42.5-16.8l30.1,31.1l44.3-43l-30.5-31.5c7.3-11.7,12.9-24.6,16.4-38.3l43.1,0.7l1-61.7
		l-43.1-0.7c-3.3-15-9.1-29-16.9-41.7l33.3-32.3l-43-44.3l-34,33c-11.9-7.4-25-13-39.1-16.3l0.7-44.2l-61.7-1l-0.7,44.9
		c-12.2,2.8-23.7,7.3-34.4,13.2l-31.6-32.7l-44.3,43l30.2,31.1c-9,13-15.7,27.6-19.7,43.3l-45.9-0.7l-1,61.7L4684.2,915.5z
		 M4724.9,885.2c0.8-50,41.9-89.8,91.9-89s89.8,41.9,89,91.9c-0.8,50-41.9,89.8-91.9,89S4724.1,935.2,4724.9,885.2z"/>
	<g>
		<g>
			<path class="st2" d="M1360.3,487.6l-58.5-98.6l-73.4,43.5c-20.9-21.7-45.2-39-71.6-51.6l19.9-77.9l-111-28.4l-20.9,81.8
				c-22.6,0.4-45.3,3.8-67.5,10.5l-42.5-71.6l-98.6,58.5l41.8,70.5c-19.5,18.4-35.5,39.5-47.9,62.3L745,464.9l-28.4,111l83.5,21.3
				c-1,27.6,2.7,55.6,11.2,82.8l-68.8,40.8l58.5,98.6l68.8-40.8c18.3,18.9,39.1,34.5,61.7,46.6l-20.1,78.9l111,28.4l19.9-77.8
				c28.1,0.8,56.4-3.1,83.9-12l41.8,70.5l98.6-58.5L1224,783c18-17.8,33-38,44.6-59.8l74.3,19l28.4-111l-73.3-18.7
				c0.8-27.2-2.8-54.7-11.2-81.3L1360.3,487.6z M1142.4,763c-87,51.6-199.3,22.9-250.8-64.1c-51.6-87-22.9-199.3,64.1-250.8
				c87-51.6,199.3-22.9,250.8,64.1C1258.1,599.1,1229.4,711.4,1142.4,763z"/>
		</g>
	</g>
	<polygon class="st2" points="3714.1,1808.6 4988.5,1808.6 4818.7,896.7 3714.1,896.7 	"/>
	
		<rect x="721.1" y="1330.9" transform="matrix(-1 3.401825e-06 -3.401825e-06 -1 1618.6539 2838.2649)" class="st3" width="176.4" height="176.4"/>
	<g>
		<path class="st4" d="M4895,2080.9h-206.3v-206.3H4895V2080.9z M4696.3,2073.2h191v-191h-191V2073.2z"/>
	</g>
	<g>
		<path class="st5" d="M766.2,1299.1H672l3.3-97.4h94.2L766.2,1299.1z M676.7,1294.6h85.1l3-88.3h-85.1L676.7,1294.6z"/>
	</g>
	<g>
		<path class="st6" d="M4321.7,729.6l-1.4-58.8h13.7c13,0,25-1.2,35.9-3.6c10.9-2.4,19.7-7.1,26.3-14.1c6.6-7,9.9-17.3,9.9-31
			c0-13.2-4.1-23.6-12.3-31.2c-8.2-7.6-18.9-11.4-32.1-11.4c-13.7,0-24.5,3.7-32.5,11.2c-7.9,7.5-11.9,17.6-11.9,30.3h-36.1
			c-0.2-14.4,2.9-27.2,9.6-38.3c6.6-11.1,16-19.7,28.1-26c12.1-6.3,26.4-9.4,42.8-9.4c15.9,0,30,3,42.2,9
			c12.3,6,21.8,14.6,28.7,25.8c6.9,11.2,10.3,24.6,10.3,40.2c0,17.1-3.7,31.1-11.2,42c-7.5,11-17.7,19-30.7,24.2
			c-13,5.2-27.9,7.8-44.8,7.8l-1.1,33.2H4321.7z M4338.6,806.5c-7.5,0-13.5-2.3-18-7c-4.6-4.7-6.9-10.3-6.9-16.8
			c0-6.7,2.3-12.4,6.9-17.1c4.6-4.7,10.6-7,18-7c7,0,12.8,2.3,17.5,7c4.7,4.7,7,10.4,7,17.1c0,6.5-2.3,12.1-7,16.8
			C4351.4,804.2,4345.6,806.5,4338.6,806.5z"/>
	</g>
	<path class="st2" d="M382.8,853.1c3.5,16,9.7,31.1,18,44.7l-31.9,30.9l46.8,48.3l32.3-31.3c12.3,7.7,25.8,13.6,40.1,17.4l-0.8,48.8
		l67.2,1.1l0.8-48.1c16.6-3.5,32.2-9.7,46.2-18.3l32.8,33.8l48.3-46.8l-33.2-34.3c8-12.7,14.1-26.7,17.9-41.7l46.9,0.7l1.1-67.2
		l-46.9-0.7c-3.6-16.3-9.9-31.6-18.4-45.4l36.3-35.2l-46.8-48.3l-37,35.9c-13-8-27.3-14.1-42.5-17.8l0.8-48.1l-67.2-1.1l-0.8,48.8
		c-13.2,3.1-25.8,7.9-37.4,14.3l-34.5-35.6l-48.3,46.8l32.8,33.9c-9.8,14.1-17.1,30-21.4,47.1l-50-0.8l-1.1,67.2L382.8,853.1z
		 M427.1,820.2c0.9-54.4,45.7-97.8,100.1-97c54.4,0.9,97.8,45.7,97,100.1c-0.9,54.4-45.7,97.8-100.1,97
		C469.6,919.4,426.2,874.6,427.1,820.2z"/>
	<path class="st2" d="M3336.1,260.8l-28.9-13.1l-20,35.8c-12.7-3-25.6-3.3-38.1-1.2l-17.6-37l-29.7,11.2L3213,296
		c-10.7,6.7-20.2,15.4-27.8,26l-38.6-13.7l-13.1,28.9l35.8,20c-3,12.7-3.3,25.6-1.2,38.1l-37,17.6l11.2,29.7l39.4-11.2
		c6.7,10.7,15.4,20.2,26,27.8l-13.7,38.6l28.9,13.1l20-35.8c12.7,3,25.6,3.3,38.1,1.2l17.6,37l29.7-11.2l-11.2-39.4
		c10.7-6.7,20.2-15.4,27.8-26l38.6,13.7l13.1-28.9l-35.8-20c3-12.7,3.3-25.6,1.2-38.1l37-17.6l-11.2-29.7l-39.4,11.2
		c-6.7-10.7-15.4-20.2-26-27.8L3336.1,260.8z M3265.1,313l-5.7,43.6c-3.7,0.9-7.2,2.8-10.1,5.4l-40.7-17.5
		C3220.8,324.6,3242.5,313,3265.1,313z M3292.4,318.9c17.5,7.9,29.9,22.5,35.6,39.5l-43.4,8.1c-1.8-2.8-4.3-5.2-7.2-7l0,0l4.1-44.4
		C3285.1,316,3288.8,317.3,3292.4,318.9z M3237.7,439.7c-3.6-1.6-7-3.5-10.2-5.7l30.6-32.3c3.3,1,6.8,1.3,10.1,0.8l22.6,37.9
		C3274.4,447.3,3255.3,447.6,3237.7,439.7z M3276.4,379.6c0,1.5-0.4,3-1,4.4c-0.7,1.4-1.6,2.7-2.7,3.7l0,0c-1.3,1.2-2.8,2-4.4,2.5
		c-2,0.6-4.1,0.7-6.2,0.1c-0.6-0.2-1.2-0.4-1.7-0.6c-2.9-1.3-4.9-3.7-6-6.4c-0.2-0.6-0.4-1.3-0.5-1.9c-0.4-2.2-0.2-4.5,0.8-6.7
		c1-2.2,2.6-3.9,4.5-5c0.6-0.3,1.2-0.6,1.8-0.9l0,0c2.7-1,5.9-1,8.7,0.3c0.6,0.3,1.1,0.6,1.6,0.9l0,0c1.8,1.2,3.2,2.8,4,4.7l0,0
		C3276.1,376.1,3276.4,377.8,3276.4,379.6L3276.4,379.6z M3283.9,393.1c0.9-1.3,1.7-2.7,2.4-4.2c0.7-1.5,1.2-3,1.5-4.6l43.3-9.8
		c0.8,10.7-1,21.7-5.7,32.1c-4.7,10.4-11.8,19-20.3,25.5L3283.9,393.1z M3201.8,359.6l39.9,19c-0.1,4,0.8,7.9,2.6,11.4l-29,33.1
		C3200.3,406,3194.8,382,3201.8,359.6z"/>
</g>
<g id="man">
	<g>
		
			<rect x="3211.6" y="2468.8" transform="matrix(-1 -1.224647e-16 1.224647e-16 -1 7380.4185 5327.6348)" class="st3" width="957.2" height="390.1"/>
		
			<rect x="3211.6" y="2468.8" transform="matrix(-1 -1.224647e-16 1.224647e-16 -1 6828.8677 5327.6348)" class="st7" width="405.6" height="390.1"/>
	</g>
	<g>
		<g>
			<g>
				<g>
					<rect x="3722.3" y="2355.4" class="st8" width="78.5" height="72.9"/>
					<path class="st9" d="M3800.7,2402l19.4,66.8h-258.9c0,0,78.7-36.5,161-61.4C3722.3,2409.2,3754.3,2440.8,3800.7,2402z"/>
				</g>
				<g>
					<rect x="3820.1" y="2355.4" class="st8" width="78.5" height="72.9"/>
					<path class="st10" d="M3898.6,2402l19.4,66.8h-258.9c0,0,78.7-36.5,161-61.4C3820.1,2409.2,3852.2,2440.8,3898.6,2402z"/>
				</g>
				<g>
					<path class="st10" d="M3945.3,1301.9l-335.9,14.3c0,0-49.4,320.2-30.3,595.2c13.2,190.1,93,324.7,105.2,456.2
						c2.9,31.7,129.5,11.7,129.5,11.7l-91.6-457.2l49.2-379.1l23.5,836.2c0,0,118.4,12.5,123-16.9
						C3966.6,2048.6,3945.3,1301.9,3945.3,1301.9z"/>
					<g>
						<g>
							<path class="st9" d="M3771.3,1545.1c0,0-0.1,0-0.1,0c-1.1-0.1-1.9-1-1.9-2.1l10.8-191.2c0.1-1.1,1-1.9,2.1-1.9
								c1.1,0.1,1.9,1,1.9,2.1l-10.8,191.2C3773.3,1544.2,3772.4,1545.1,3771.3,1545.1z"/>
						</g>
						<g>
							<path class="st9" d="M3774.3,1492.2c-0.4,0-0.7-0.1-1-0.3l-23.5-14.4c-0.6-0.4-1-1-1-1.7c0.5-44.2,0.9-111.4,0-115.6
								c-0.2-1.1,0.5-2.1,1.5-2.4c1.1-0.2,2.1,0.5,2.4,1.5c1.2,5.8,0.2,99.8,0.1,115.4l22.5,13.8c0.9,0.6,1.2,1.8,0.7,2.8
								C3775.7,1491.8,3775,1492.2,3774.3,1492.2z"/>
						</g>
						<g>
							<path class="st9" d="M3948.5,1471.2c-0.3,0-0.6-0.1-0.8-0.2c-44.2-19.9-41.8-128.5-41.7-133.2c0-1.1,1-2,2.1-1.9
								c1.1,0,2,0.9,1.9,2.1c0,1.1-2.5,110.6,39.3,129.4c1,0.5,1.5,1.6,1,2.6C3950,1470.8,3949.3,1471.2,3948.5,1471.2z"/>
						</g>
						<g>
							<path class="st9" d="M3588.9,1492.2c-1.1,0-2-0.9-2-2c0-1.1,0.9-2,2-2c9.9-0.2,18.8-4.3,26.3-12.1
								c32.6-34.1,30.7-128.5,30.7-129.4c0-1.1,0.8-2,2-2c1.1-0.1,2,0.8,2,2c0.1,3.9,2,97-31.8,132.3
								C3609.8,1487.5,3600,1492,3588.9,1492.2C3589,1492.2,3588.9,1492.2,3588.9,1492.2z"/>
						</g>
						<g>
							<path class="st9" d="M3794.9,2381.3c-1.1,0-2-0.9-2-1.9l-3.1-109.6c0-1.1,0.8-2,1.9-2.1c0,0,0,0,0.1,0c1.1,0,2,0.9,2,1.9
								l3.1,109.6C3796.9,2380.3,3796,2381.3,3794.9,2381.3C3794.9,2381.3,3794.9,2381.3,3794.9,2381.3z"/>
						</g>
						<g>
							<path class="st9" d="M3722.1,1924.1h-52.8c-1.1,0-2-0.9-2-2s0.9-2,2-2h52.8c1.1,0,2,0.9,2,2S3723.2,1924.1,3722.1,1924.1z"/>
						</g>
					</g>
				</g>
			</g>
			<g>
				<path class="st11" d="M3308.7,912.3c39.5,6.6,47.1,6.1,61.6,9.7c8.2,2.1,6.1,7.7,14.1,10c4.9,1.4,9.8,2.8,14.7,4.3
					c-9.2,5.1-28.1,10.7-63.4,4.9c-11.8-1.3-81-11.9-93.6-13.9c-1.3-0.2-2.2-1.4-2-2.6C3240.9,919.1,3248.8,905.9,3308.7,912.3z"/>
				<path class="st8" d="M3424,951.2c-0.3-10.4-5.1-52.1-62.7-40.4c-0.1,0-0.1,0-0.2,0c-29.9,8.2-106.9,21.5-114.2,22.7
					c-0.4,0.1-0.7,0.1-1.1,0l-66.7-13.2c-6.6-1.3-13.2,1.8-16.5,7.7l0,0c-0.9,1.7,0,3.9,1.8,4.4l84.1,22.8c0.3,0.1,0.6,0.1,0.8,0.1
					l81.4-1.3c1.1,0,11.3,9,11.3,9c6.3,5.4,11.3,12.1,14.7,19.6c1.1,2.4,1.2,3.2,1.2,3.2S3424.1,952.5,3424,951.2z"/>
				<path class="st8" d="M3424,951.2l59.5,134.4l-96.8,40.1l-30.3-148.2C3356.4,977.5,3366.5,938,3424,951.2z"/>
			</g>
			<g>
				<path class="st11" d="M4091.1,598c2.4,0.5-93.8-51.7-159.7-66.9c-9.1,10.4-16.8,58.4-16.8,58.4s107.4,37.9,141.3,100.3
					C4052,681.7,4091.1,598,4091.1,598z"/>
				<path class="st11" d="M3931.4,531.1c0,0-48.9-42.1-88-18.6c-20.2,12.1-5.1,94.1-5.1,94.1l76.3-17.1L3931.4,531.1z"/>
			</g>
			<g>
				<g>
					<defs>
						<path id="SVGID_1_" d="M3373.3,1074.4c1.1,0.6,57.7,13.9,97.3-24.7c3,0,52.6-139.9,93.4-181.8c2.3-2.3,4.6-4.6,7.4-6.3
							l138.6-82.8l160.9-2.6l47.3,19.8c80.4,27.6,147.6-53.2,107-128c-0.6-1.1,14.9-68.4,64.5-84.9c71.5,72.8,168.2,263.8,14.9,377
							c-49,36.1-73.5,34.6-130.5,111.1c-1,6.2-1.7,9.7-1.7,9.7s-21.6,235-25.6,237.7c-170.5,98.8-338.5,13.5-341.2,10.8
							c0.8-37.1-0.7-125.3-1.7-189.4c-1.2-23.1-0.5-32.1-0.5-32.1s-35.9,164.2-147,152.5c-7.3-0.8-14.4-2.9-20.8-6.3
							C3411.6,1241.1,3372.7,1204.3,3373.3,1074.4z"/>
					</defs>
					<use xlink:href="#SVGID_1_"  style="overflow:visible;fill:#E39A50;"/>
					<clipPath id="SVGID_00000141426146262216230340000011849714006517632407_">
						<use xlink:href="#SVGID_1_"  style="overflow:visible;"/>
					</clipPath>
					<g style="opacity:0.56;clip-path:url(#SVGID_00000141426146262216230340000011849714006517632407_);">
						<g>
							<path d="M3602.9,1489l-7.7-0.1c2.5-329.3,5.9-957.2,0.3-976.7c0,0,0.1,0.2,0.3,0.6l6.5-4c1.6,2.6,5.2,8.6,3.4,495.7
								C3604.8,1244.7,3602.9,1486.6,3602.9,1489z"/>
						</g>
						<g>
							<g>
								<path d="M3857,1472.2c-1.4-319-5-926.7-9-943.9c0,0,0.1,0.6,0.7,1.2l5.9-4.9c1.2,1.4,1.8,2.1,2.8,44.7
									c0.6,24.9,1.2,61.2,1.7,107.9c1,78.7,2,187.9,2.9,324.6c1.6,232.8,2.7,467.9,2.7,470.3L3857,1472.2z"/>
							</g>
							<g>
								<path d="M3773.9,1426.4l-7.7,0c0.1-80.6,1.3-788.2,3.4-798.5l7.5,1.6l0-0.1C3775.6,641.8,3774.4,1156.2,3773.9,1426.4z"/>
							</g>
							<g>
								<path d="M3937.9,1489.1l-7.7-0.3c0.3-9.6,32.5-959.9,32.5-969.9h7.7C3970.4,529,3939.2,1449.9,3937.9,1489.1z"/>
							</g>
							<g>
								<path d="M4029.4,1489.1l-7.7-0.3c1.4-36,33.3-881.9,46.9-941.2l7.5,1.7C4062.7,607.9,4029.8,1480.3,4029.4,1489.1z"/>
							</g>
							<g>
								<path d="M4147.4,1328.6l-7.7-0.2c0.2-7.3,18.3-733.7,18.3-740l7.7,0C4165.7,594.2,4148.2,1298.6,4147.4,1328.6z"/>
							</g>
							<g>
								
									<rect x="3212.4" y="1023.6" transform="matrix(1.592940e-02 -0.9999 0.9999 1.592940e-02 2605.3354 4702.103)" width="958.2" height="7.7"/>
							</g>
							<g>
								<rect x="3499" y="568.4" width="7.7" height="822"/>
							</g>
							<g>
								<rect x="3417.6" y="600.4" width="7.7" height="720"/>
							</g>
							<g>
								<path d="M3350,1320.5l-7.7-0.1c0.1-6.1,10.2-606.3,10.2-620.4h7.7C3360.2,714.1,3350.1,1314.4,3350,1320.5z"/>
							</g>
							<g>
								<path d="M4194.2,1355.2l-7.7-0.4c0.3-6.8,32.5-675.5,32.5-691.7h7.7C4226.8,679.5,4195.5,1327.6,4194.2,1355.2z"/>
							</g>
							<g>
								
									<rect x="3717.6" y="174.9" transform="matrix(3.252051e-02 -0.9995 0.9995 3.252051e-02 2956.7847 4342.5825)" width="7.7" height="938.3"/>
							</g>
							<g>
								
									<rect x="3744.1" y="215.6" transform="matrix(1.363704e-02 -0.9999 0.9999 1.363704e-02 2949.2456 4485.022)" width="7.7" height="1064"/>
							</g>
							<g>
								<path d="M4279.7,855.6c-32.1-1.3-1083.7-25.4-1094.4-25.7l0.2-7.7c10.6,0.2,1062.3,24.4,1094.5,25.7L4279.7,855.6z"/>
							</g>
							<g>
								
									<rect x="3753.7" y="363.9" transform="matrix(3.274381e-02 -0.9995 0.9995 3.274381e-02 2719.8557 4640.6011)" width="7.7" height="1102.3"/>
							</g>
							<g>
								<path d="M4132.3,1050.5c-98.8,0-237.5-4.8-415.3-14.5c-251.2-13.7-490.8-32.4-493.2-32.6l0.6-7.6
									c9.6,0.7,956.8,74.5,1074.6,35.7l2.4,7.3C4277.7,1046.6,4221.1,1050.5,4132.3,1050.5z"/>
							</g>
							<g>
								<path d="M4009,1170.5c-128.8,0-261.9-6.3-370.4-13.4c-125.1-8.1-221.9-17.6-268.4-22.5c-32.7-3.4-60.7-6.7-80.9-9.5
									c-9.6-1.3-17-2.5-22.2-3.4c-7.2-1.3-10.4-2.1-10.9-5.3c-0.2-1.4,0.3-4.1,3.8-4.7l1.5,7.5c0.8-0.2,2.2-1.3,2.3-3
									s-0.9-3.1-1.7-3.4c9.4,4.3,173.7,23.9,386.6,37.4c186.8,11.9,447.9,21.5,630.7-0.3l0.9,7.6
									C4200.5,1166.9,4106,1170.5,4009,1170.5z"/>
							</g>
							<g>
								<path d="M3967.2,1284.6c-76.1,0-182-4.4-317-13.2c-184.6-12.1-357.6-28.3-359.3-28.5l0.7-7.6c6.9,0.6,690.8,64.7,801.8,32.7
									l2.1,7.4C4074,1281.5,4031,1284.6,3967.2,1284.6z"/>
							</g>
							<g>
								<path d="M3792.4,1389.9c-3.7,0-7.4,0-11.1,0c-171.1-0.8-333.4-20.2-482.4-57.6l1.9-7.4c231.5,58.1,491.5,71.9,772.6,41
									c26.6-2.9,29.2-3.1,31.3-2.1l-3.4,6.9c0.4,0.2,0.7,0.3,0.7,0.3c-2-0.3-13.4,1-27.8,2.6
									C4025.2,1378.8,3924.8,1389.9,3792.4,1389.9z"/>
							</g>
						</g>
					</g>
				</g>
			</g>
			<g>
				<g>
					<path class="st8" d="M3742,658.7c0,0,11.7,103-31.9,120.1c-2.2,1.3,80.5,58.5,160.9-2.6c-0.4-0.7-42.3-19-24.6-133.2
						C3843.8,642.2,3742,658.7,3742,658.7z"/>
					<path class="st11" d="M3742.4,711.8c1.5-17.4,1-34,0.3-43.8c0,0,0,0,0,0c36.7,2.9,85.6,0.4,91,2
						C3814.2,713.7,3767.1,712.9,3742.4,711.8z"/>
				</g>
				<g>
					<path class="st13" d="M3859.4,451.9c9.3,0.2,18.9,2.4,26.4,7.9c7.6,5.5,12.8,14.7,12,24c-1,11.6-10.9,22.6-7,33.6
						c1.7,4.9,5.9,8.5,9,12.7c6.2,8.4,8.1,19.8,4.9,29.7c-4.5,14-18,24-21.3,38.3c-8.6-10.3-9.3-24.9-11.6-38.2
						c-4.5-26-16.7-50.7-34.7-70c-4.2-4.5-8.9-8.9-12.3-14.1c-4.5-6.9-4.1-7.1,0.5-11.5C3834.7,455.5,3846.7,451.6,3859.4,451.9z"/>
					<g>
						<path class="st11" d="M3738,584.7c0,0-13.4-24.1-29.1-11.6c-5.3,3.8-18.4,25.1,3.9,47.6c3.9,3.8,19.7,15,34.1,3.8
							C3745.6,622,3738,584.7,3738,584.7z"/>
						<g>
							<path class="st9" d="M3734,608.6c-0.5,0-1-0.2-1.4-0.5l-18.6-17.1c-0.8-0.7-0.9-2-0.1-2.8c0.7-0.8,2-0.9,2.8-0.1l18.6,17.1
								c0.8,0.7,0.9,2,0.1,2.8C3735.1,608.4,3734.6,608.6,3734,608.6z"/>
						</g>
					</g>
					<path class="st8" d="M3798.7,475.8c0,0-72.8-7.2-76.2,72.2c0,14.4-11.6,142.4,65.3,141.8c15,0,68,0,70.7-109
						C3858.5,553.2,3865.3,482.3,3798.7,475.8z"/>
					<path class="st13" d="M3818.2,495.7c-8,11.4-23.8,19.4-36.2,20c-6.1,0.3-12.3-0.7-18.3,0.4c-7.4,1.2-14.3,5.6-18.6,11.8
						c-4.7,6.8-6.3,15.5-11.1,22.3c-4.9,7.1-9.1,12-11.9,20.1c-4.4-10.6-5.2-24.1-5.2-35.4c0.1-19,5-38.3,17.8-52.7
						c19.5-22,50.9-27.3,78.8-27.3c-1.5,2,4.1,10.3,4.9,12.2c2.5,5.7,5.8,13.1,4.2,19.5C3821.7,489.7,3820.2,492.8,3818.2,495.7z"/>
					<path class="st13" d="M3820.2,497.8c0,0,26.3,21,38.3,82.9l26.5,2.3c0,0,32.3-132.3-71.5-128.3
						C3812.6,453.4,3806,489.7,3820.2,497.8z"/>
					<path class="st13" d="M3812.4,431.9c-13.7-3.9-30.3-0.4-38.6,11.2c-2.7,3.8-4.5,8.5-8.3,11.3c-5.6,4.1-13.4,2.7-20.3,3.3
						c-14.9,1.3-28,14.1-29.7,29c-0.6,5.2,0.1,10.5-0.7,15.7c-1.8,11.8-11.3,23-7.8,34.4c2.8,8.9,12.9,15,13.1,24.3
						c11.1-7.5,13.7-22.4,17.1-35.3c3.6-13.6,9.6-27.2,20.6-35.8c15.1-11.7,36-11.6,54.4-16.6c7.8-2.1,32.7-7.7,31-18.8
						C3841.8,444.1,3821.1,434.3,3812.4,431.9z"/>
					<g>
						<path class="st9" d="M3748.2,583.1c0,3.3-1.5,5.9-3.3,5.9s-3.3-2.6-3.3-5.9c0-3.3,1.5-5.9,3.3-5.9S3748.2,579.8,3748.2,583.1z
							"/>
						<path class="st9" d="M3802.3,583.1c0,3.3-1.5,5.9-3.3,5.9c-1.8,0-3.3-2.6-3.3-5.9c0-3.3,1.5-5.9,3.3-5.9
							C3800.8,577.1,3802.3,579.8,3802.3,583.1z"/>
						<path class="st9" d="M3785.2,558.1c11.6-5.6,33.5-2.2,37.8,11.4C3810.5,564,3797.7,563.7,3785.2,558.1L3785.2,558.1z"/>
						<path class="st9" d="M3732.3,564.7c3.6-11,18.2-13,25.1-4c0.1,0.2,0.5,0.5,0.2,0.7c-8.4,0.7-16.9,1.4-25,4
							c-0.2,0.1-0.5-0.2-0.4-0.4L3732.3,564.7L3732.3,564.7z"/>
						<g>
							<path class="st9" d="M3773.4,623.3c-4.5,0-8-1-10.2-3c-1.6-1.5-2.5-3.4-2.5-5.5c0-0.1,0-0.2,0-0.3c3-21.9,6.7-39.9,6.8-40.1
								c0.2-1.1,1.3-1.8,2.4-1.6c1.1,0.2,1.8,1.3,1.6,2.4c0,0.2-3.7,18-6.7,39.7c0,1,0.4,1.8,1.2,2.5c1,0.9,3.7,2.4,10.2,1.9
								c1.1-0.1,2.1,0.7,2.2,1.8c0.1,1.1-0.7,2.1-1.8,2.2C3775.3,623.2,3774.3,623.3,3773.4,623.3z"/>
						</g>
						<g>
							<path class="st9" d="M3765.2,644.9c-1,0-1.9-0.8-2-1.8c-0.1-1.1,0.7-2.1,1.8-2.2l42.5-4.7c1.1-0.1,2.1,0.7,2.2,1.8
								c0.1,1.1-0.7,2.1-1.8,2.2l-42.5,4.7C3765.3,644.9,3765.2,644.9,3765.2,644.9z"/>
						</g>
					</g>
					<path class="st13" d="M3858.5,580.8l-8,5.8c-1.6,1.1-3.8-0.1-3.6-2c0.9-16.2,1.5-68.1-28.7-88.9c2,2.2,32.3-6.6,32.3-6.6
						L3858.5,580.8z"/>
					<g>
						<path class="st8" d="M3850.5,586.5c0,0,18.3-25.9,34.1-13.4c5.3,3.8,18.4,25.1-3.9,47.6c-3.9,3.8-19.7,15-34.1,3.8
							C3847.8,622,3850.5,586.5,3850.5,586.5z"/>
						<g>
							<path class="st9" d="M3864.1,610.3c-0.4,0-0.8-0.1-1.2-0.4c-0.9-0.7-1.1-1.9-0.4-2.8l13.9-18.9c0.7-0.9,1.9-1.1,2.8-0.4
								c0.9,0.7,1.1,1.9,0.4,2.8l-13.9,18.9C3865.3,610.1,3864.7,610.3,3864.1,610.3z"/>
						</g>
					</g>
				</g>
			</g>
			<g>
				<g>
					<path class="st9" d="M3524.6,1162.9c-0.8,0-1.6-0.5-1.9-1.4c-21.1-61.9-53.4-110.3-53.7-110.8c-0.6-0.9-0.4-2.2,0.5-2.8
						c0.9-0.6,2.2-0.4,2.8,0.5c0.3,0.5,32.9,49.3,54.2,111.7c0.4,1-0.2,2.2-1.2,2.5C3525,1162.8,3524.8,1162.9,3524.6,1162.9z"/>
				</g>
				<g>
					<path class="st9" d="M3603.5,1109.8c-1.1,0-2-0.9-2-2c0-1.3-2.1-131.8-16.9-188.3c-0.3-1.1,0.4-2.2,1.4-2.4
						c1.1-0.3,2.2,0.4,2.4,1.4c15,57,17,187.9,17.1,189.3C3605.5,1108.8,3604.7,1109.8,3603.5,1109.8
						C3603.5,1109.8,3603.5,1109.8,3603.5,1109.8z"/>
				</g>
				<g>
					<path class="st9" d="M3974.2,1073.1c-0.1,0-0.1,0-0.2,0c-1.1-0.1-1.9-1.1-1.8-2.2l16.5-195.1c0.1-1.1,1.1-1.9,2.2-1.8
						c1.1,0.1,1.9,1.1,1.8,2.2l-16.5,195.1C3976.1,1072.3,3975.2,1073.1,3974.2,1073.1z"/>
				</g>
			</g>
		</g>
		<g>
			<path class="st9" d="M3460.4,1293.9c-15.6,0-32.7-2.8-48.6-11.4c-31.2-17-50.6-52.2-57.4-104.6c-0.1-1.1,0.6-2.1,1.7-2.2
				c1.1-0.1,2.1,0.6,2.2,1.7c6.7,51.1,25.3,85.3,55.4,101.6c48,26,109.4-2.7,110-3c1-0.5,2.2-0.1,2.7,0.9c0.5,1,0.1,2.2-0.9,2.7
				c-0.6,0.3-16.1,7.6-37.9,11.7C3479.7,1292.8,3470.4,1293.9,3460.4,1293.9z"/>
		</g>
	</g>
</g>
<g id="woman_00000039130097378037060730000013517135291397092279_">
	<g>
		<path class="st14" d="M4464.2,949.8c-2.6-6.5-5.2-13-9-18.9c-1.9-3-4.1-5.8-5.3-9.1c-1.1-3.3-1-7.4,1.5-9.9
			c0.2-0.2,0.4-0.3,0.6-0.4c0.5-0.2,1,0.2,1.4,0.5c5.2,3.9,9.8,8.6,14.5,13.2c3.7,3.7,7.3,7.3,11,11c4.9,4.9,9.9,9.8,14.3,15.3
			c6.2,7.6,13.9,17.6,17.5,26.8c0.2,0.6-2.2-0.1-2.6,0.4c-0.4,0.6-1.3,0.5-2.1,0.3c-7.3-1.7-14.6-3.7-21.4-6.9
			c-5.2-2.5-10.2-5.7-14.3-9.9C4467.1,958.6,4466,954.1,4464.2,949.8z"/>
	</g>
	<g>
		<path class="st0" d="M4724.8,1135.5c-2.3,6.8-5.2,13.7-5.2,13.7c-0.1,0.3-0.3,0.7-0.5,1.2c-20.1,46.1-44.6,77.5-63,100.7
			c-19.8,25.1-36.8,42.5-44.3,50c-13,13-25.1,23.8-35.2,32.3c-20.6-20.8-29.5-28.5-32.6-29.9c-0.1,0-2.2-1-5.2-2.3
			c-1.6-0.7-3.4-1.6-5.6-2.6c-8.9-4.1-18-8.2-26.6-12.2c-28.1-13-51.6-24-51.6-24c1.6-4.6,16.1-45.9,28-47.7
			c3.1-0.5,7.3-0.8,7.3-0.8c7.5-0.6,10.9-0.3,14-0.6c4.2-0.4,10.1-2.2,17.2-8.9c0,0,0,0,0,0c4.4-3.9,8.8-7.8,13.3-11.8
			c24.2-21.6,49.5-44.8,69.2-64.1c3.9-3.8,7.6-7.5,11-11c6.4-6.5,11.9-12.4,16-17.2c2.9-3.5,5.9-6.6,8.8-9.4
			c18.7-18.2,47.5-14.5,49.5-25.2c1.4-7.4-10.9-18.8-11.1-19.2c4.5,2.5,10.5,6.1,17,11.3c5.7,4.5,13.8,10.8,21.2,21.2
			c6.5,9.1,14.8,20.8,13.8,35.4C4729.7,1120.9,4727.3,1127.9,4724.8,1135.5z"/>
		<path class="st15" d="M4300.7,1255.1c15.1,10.7,34.2,13.9,52.5,16.8c23.4,3.7,47.4,7.3,70.5,2.2c21.6-4.8,41-17.1,62.5-22.3
			c5.2-1.3,11.4-2.8,13.2-7.8c0.8-2.3,0.5-4.8,0.1-7.3c-1.9-10.8-5.7-21.2-11.3-30.5c-1.7-2.8-3.6-5.7-4.1-9
			c-0.9-5.8,2.9-11.4,7.3-15.3c4.3-4,9.5-7.2,12.8-12.1c6.6-9.6,4.2-23-1.7-33.1c-5.8-10.1-14.6-18.1-21.3-27.7
			c-6.7-9.5-11.3-21.8-7.4-32.8c3.4-9.4,12.1-15.6,18.9-23c8-8.8,13.6-21.2,9.8-32.4c-3.7-11-15-17.3-25-23.2
			c-10-5.9-20.8-13.9-21.9-25.5c-0.8-8,3.3-15.6,4.7-23.6c2.6-14.8-5.5-30.9-19-37.7c-11.9-6-25.5-4.7-38.7-1.3
			c-7.9,2-14.6-2.6-19.9-8.9c-27.8-33.2-82.9-29.4-104,7.6c-9.9,17.4,1.3,32.7-13.5,49.1c-5.4,6-13.6,8.4-20.6,12.4
			c-15.7,8.9-24.3,28.8-20,46.4c4.5,18.3,21.2,34.8,16.4,53c-2.7,10.4-11.8,17.6-18.3,26.1c-16.1,21.2-15.1,55.3,7.4,71.4
			c4,2.9,7.3,6.8,8.9,11.5c5.4,15.4-10.1,20.5-17,30.4c-10.1,14.4-0.2,34.3-2.7,51.7C4248.5,1263.5,4271.9,1261,4300.7,1255.1z"/>
		<g>
			<path class="st14" d="M4658.3,1045.7C4658.3,1045.7,4658.3,1045.7,4658.3,1045.7c0.2-0.3-53.4-29.6-160.8-87.7
				c-4.2,19.2-9.3,31.2-13.4,38.8c-1.3,2.5-4.9,8.8-3.3,10.3c1.2,1.1,5-1,8-3c14.7,12.1,30,24.3,46.2,36.5
				c29.2,22.1,57.8,41.8,85.3,59.5C4617.2,1091.6,4658.3,1045.7,4658.3,1045.7z"/>
		</g>
		<g>
			<path class="st0" d="M4164.3,1236.8c1.4,4,2.8,8.8,4.2,14.2c3.1,11.8,6.4,26.8,9.8,43.5c0.3,1.4,0.6,2.8,0.8,4.2
				c2.9,15,5.9,31.3,8.7,48.1c4.7,27.3,9.1,55.8,13,81.7c4.5,30.3,8.3,57,10.6,74c5.2-5.7,11.1-10.9,15-17.7
				c5.9-10.3,6.3-23.1,3.5-34.6s-8.4-22.2-14-32.7c-4.1-7.6-8-17.6-2.3-24.1c5.3-6.1,15-4.5,22.9-2.3c9.7,2.7,19.7,5.6,27.6,11.8
				c18.3,14.2,20.5,40.9,18.6,64c-1.4,17.4-5.3,36.5-19.4,46.8c-11.6,8.5-20,12.8-28.3,24.8c-4.1,6-3.9,17.7-12.4,19.8
				c-1.2,0.3-2.3,0.4-3.3,0.5c1,13.6,4.3,23,7.1,29.2c1.1,2.3,3.7,7.1,7.6,15.2c2.2,4.6,3.9,8.4,5.1,11c2-2,5.2-4.5,9.4-5.4
				c8.8-1.8,16.9,4.5,18.7,5.8c13.2,9.6,44.3,9.7,86.5,9.6c66.5-0.2,100.1-0.7,116.9-17.4c11.8-11.7,15.5-25.3,18.6-37.2
				c8.9-34.6,21.3-91.3,30-171.9c11.8-11.8,23.7-24.1,35.8-36.9c13.9-14.8,23.9-26,28-30.6c15.1-16.9,38.3-42.4,73.8-80.1
				c-55.3-13.4-110.6-26.8-166-40.2c-46.5-4.1-84-5.3-109.5-5.8c-46.7-0.7-139.9,0-151.4,0c-9.8,0-16,0-16.9,0
				c-2,0.4-3.9,0.8-5.6,1.2c-7.5,1.7-13,3.7-13.7,3.9C4186.8,1211.9,4175.5,1221.8,4164.3,1236.8z"/>
			<path class="st0" d="M4214.4,1523.9c0.1,0.6,0.2,1.3,0.3,1.9C4214.5,1525.2,4214.4,1524.5,4214.4,1523.9z"/>
			<path class="st0" d="M4217.2,1544.8c0.1,0.6,0.2,1.1,0.2,1.7C4217.4,1545.9,4217.3,1545.4,4217.2,1544.8z"/>
			<path class="st0" d="M4216.8,1542c0.1,0.6,0.2,1.2,0.3,1.8C4217,1543.2,4216.9,1542.6,4216.8,1542z"/>
			<path class="st0" d="M4215.2,1530.2c0.1,0.6,0.2,1.3,0.3,1.9C4215.4,1531.5,4215.3,1530.9,4215.2,1530.2z"/>
			<path class="st0" d="M4216.4,1539.2c0.1,0.6,0.2,1.2,0.3,1.8C4216.6,1540.4,4216.5,1539.8,4216.4,1539.2z"/>
			<path class="st0" d="M4216,1536.3c0.1,0.6,0.2,1.2,0.2,1.8C4216.2,1537.5,4216.1,1536.9,4216,1536.3z"/>
			<path class="st0" d="M4215.6,1533.3c0.1,0.6,0.2,1.2,0.3,1.9C4215.8,1534.5,4215.7,1533.9,4215.6,1533.3z"/>
			<path class="st0" d="M4213.9,1520.6c0.1,0.6,0.2,1.3,0.2,1.9C4214.1,1521.9,4214,1521.2,4213.9,1520.6z"/>
			<path class="st0" d="M4214.8,1527.1c0.1,0.6,0.2,1.3,0.3,1.9C4215,1528.4,4214.9,1527.7,4214.8,1527.1z"/>
			<path class="st0" d="M4217.6,1547.4c0.1,0.6,0.2,1.2,0.2,1.8C4217.7,1548.6,4217.7,1548,4217.6,1547.4z"/>
			<path class="st0" d="M4213.4,1516.2c-0.1-0.8-0.2-1.6-0.3-2.4v0C4213.2,1514.6,4213.3,1515.4,4213.4,1516.2z"/>
			<path class="st0" d="M4213.5,1517.2c0.1,0.7,0.2,1.3,0.3,2C4213.7,1518.5,4213.6,1517.8,4213.5,1517.2z"/>
			<path class="st0" d="M4217.9,1549.9c0.1,0.7,0.2,1.3,0.3,1.9C4218.1,1551.2,4218,1550.5,4217.9,1549.9z"/>
			<path class="st0" d="M4218.2,1552c0.3,2.3,0.6,4.5,1,6.6C4218.9,1556.5,4218.5,1554.3,4218.2,1552z"/>
			<path class="st2" d="M4215,1529c0.1,0.4,0.1,0.8,0.2,1.3C4215.2,1529.8,4215.1,1529.4,4215,1529z"/>
			<path class="st2" d="M4214.2,1522.5c0.1,0.5,0.1,0.9,0.2,1.4C4214.3,1523.4,4214.2,1523,4214.2,1522.5z"/>
			<path class="st2" d="M4213.4,1516.2c0,0.3,0.1,0.6,0.1,1C4213.4,1516.8,4213.4,1516.5,4213.4,1516.2z"/>
			<path class="st2" d="M4213.7,1519.2c0.1,0.5,0.1,0.9,0.2,1.4C4213.9,1520.1,4213.8,1519.6,4213.7,1519.2z"/>
			<path class="st2" d="M4214.6,1525.8c0.1,0.4,0.1,0.9,0.2,1.3C4214.7,1526.7,4214.7,1526.2,4214.6,1525.8z"/>
			<path class="st2" d="M4218.2,1551.8c0,0.1,0,0.1,0,0.2C4218.2,1551.9,4218.2,1551.9,4218.2,1551.8z"/>
			<path class="st2" d="M4217.4,1546.5c0,0.3,0.1,0.6,0.1,0.9C4217.5,1547.1,4217.5,1546.8,4217.4,1546.5z"/>
			<path class="st2" d="M4217.8,1549.2c0,0.2,0.1,0.4,0.1,0.7C4217.9,1549.6,4217.8,1549.4,4217.8,1549.2z"/>
			<path class="st2" d="M4219.2,1558.9c0-0.1,0-0.2-0.1-0.3C4219.2,1558.7,4219.2,1558.8,4219.2,1558.9L4219.2,1558.9z"/>
			<path class="st2" d="M4215.5,1532.1c0.1,0.4,0.1,0.8,0.2,1.2C4215.6,1532.9,4215.5,1532.5,4215.5,1532.1z"/>
			<path class="st2" d="M4217.1,1543.8c0,0.3,0.1,0.7,0.1,1C4217.1,1544.5,4217.1,1544.1,4217.1,1543.8z"/>
			<path class="st2" d="M4216.3,1538.1c0.1,0.4,0.1,0.7,0.2,1.1C4216.4,1538.8,4216.3,1538.5,4216.3,1538.1z"/>
			<path class="st2" d="M4215.9,1535.2c0.1,0.4,0.1,0.8,0.2,1.2C4216,1535.9,4215.9,1535.5,4215.9,1535.2z"/>
			<path class="st2" d="M4216.7,1541c0,0.3,0.1,0.6,0.1,1C4216.8,1541.7,4216.7,1541.3,4216.7,1541z"/>
			<path class="st0" d="M4230,1450.2c-2.8-11.6-8.4-22.2-14-32.7c-4.1-7.6-8-17.6-2.3-24.1c5.3-6.1,15.1-4.5,22.9-2.3
				c9.7,2.7,19.7,5.6,27.6,11.8c18.3,14.2,20.5,40.9,18.6,64c-1.4,17.4-5.3,36.5-19.4,46.8c-11.6,8.5-20,12.8-28.3,24.8
				c-4.1,6-3.9,17.7-12.4,19.8c-1.2,0.3-2.2,0.4-3.3,0.5c0-0.1,0-0.2-0.1-0.3c-0.3-2.1-0.6-4.3-1-6.6c0-0.1,0-0.1,0-0.2
				c-0.1-0.6-0.2-1.3-0.3-1.9c0-0.2-0.1-0.4-0.1-0.7c-0.1-0.6-0.2-1.2-0.2-1.8c0-0.3-0.1-0.6-0.1-0.9c-0.1-0.6-0.2-1.1-0.2-1.7
				c0-0.3-0.1-0.7-0.1-1c-0.1-0.6-0.2-1.2-0.3-1.8c0-0.3-0.1-0.6-0.1-1c-0.1-0.6-0.2-1.2-0.3-1.8c-0.1-0.4-0.1-0.7-0.2-1.1
				c-0.1-0.6-0.2-1.2-0.2-1.8c-0.1-0.4-0.1-0.8-0.2-1.2c-0.1-0.6-0.2-1.2-0.3-1.9c-0.1-0.4-0.1-0.8-0.2-1.2
				c-0.1-0.6-0.2-1.2-0.3-1.9c-0.1-0.4-0.1-0.8-0.2-1.3c-0.1-0.6-0.2-1.2-0.3-1.9c-0.1-0.4-0.1-0.9-0.2-1.3
				c-0.1-0.6-0.2-1.3-0.3-1.9c-0.1-0.5-0.1-0.9-0.2-1.4c-0.1-0.6-0.2-1.3-0.2-1.9c-0.1-0.5-0.1-0.9-0.2-1.4c-0.1-0.7-0.2-1.3-0.3-2
				c0-0.3-0.1-0.6-0.1-1c-0.1-0.8-0.2-1.6-0.3-2.4v0l0,0c0,0,0,0.1,0,0.1c-0.4-3-0.9-6.9-1.5-11.3c5.2-5.7,11.1-10.9,15-17.7
				C4232.4,1474.6,4232.7,1461.8,4230,1450.2z"/>
		</g>
		<g>
			<g>
				<path class="st16" d="M4312.6,1093.1c0.6,21.3,0.3,39.7-0.1,54.4c-1.1,36.3-3.6,50.2-13.7,56.6c-4.4,2.8-9.1,3.5-12.6,3.6
					c9.1,8.1,25.7,20.6,49.6,25.9c53.3,12,95.9-22,102-27c-2-0.1-5-0.5-8.2-1.8c-13.7-5.7-18.9-23-22.8-41.8
					c-3.9-18.6-8.1-46.9-7.9-84.2c-13.1,3.6-27.8,6.9-43.8,9.5C4339.8,1090.8,4325.6,1092.3,4312.6,1093.1z"/>
				<path class="st17" d="M4403.7,1119.5c-5.9-2.8-13.3-5.8-22.1-8.1c-10-2.6-18.9-3.6-26-3.9c-14.6,1.6-29.2,3.2-43.7,4.8l0,0
					c0.4,4.1,0.7,8.3,0.8,12.7c0.3,7.6,0.3,14.8,0,21.5c7,2.4,25.3,7.6,47.4,1.8C4385.1,1141.6,4399.3,1125.1,4403.7,1119.5z"/>
			</g>
			<g>
				<path class="st16" d="M4367.3,905c0,0-77.1-7.9-80.7,79.3c0,15.9-12.3,156.5,69.2,155.7c15.9,0,72.1,0,75-119.7
					C4430.7,990.1,4437.9,912.2,4367.3,905z"/>
				<path class="st15" d="M4303.4,959.3c2.1,2.4,38.6,23.1,67.4,8.7c14.3-5.5,31.6-1.7,38.2,20.5c10.1,46.6,15.4,39,21.3,35.3
					c1.8-4.4,36.2-108.3-38.1-116.4c0.7-1.9-44.4-18.3-69.7,7.5C4320.9,915.9,4303.4,959.3,4303.4,959.3z"/>
				<g>
					<g>
						<path class="st16" d="M4428.9,1024.8c0,0,11.6-26.5,26.8-13.8c5.1,3.8,17.7,25.3-3.8,48.1c-3.8,3.8-19,15.2-32.9,3.8
							C4420.2,1060.4,4428.9,1024.8,4428.9,1024.8z"/>
						<g>
							<path class="st9" d="M4430.3,1051c-0.5,0-0.9-0.2-1.3-0.5c-0.8-0.7-0.9-2-0.2-2.8l19-21.5c0.7-0.8,2-0.9,2.8-0.2
								c0.8,0.7,0.9,2,0.2,2.8l-19,21.5C4431.4,1050.7,4430.9,1051,4430.3,1051z"/>
						</g>
					</g>
				</g>
				<path class="st15" d="M4307.6,960.7c-0.6,2.8-4.6,66.7-22.8,61.8c-0.2-0.3-24.5-96.6,37.7-107.6L4307.6,960.7z"/>
				<g>
					<g>
						<path class="st16" d="M4287,1024.8c0,0-11.6-26.5-26.8-13.8c-5.1,3.8-17.7,25.3,3.8,48.1c3.8,3.8,19,15.2,32.9,3.8
							C4295.7,1060.4,4287,1024.8,4287,1024.8z"/>
						<g>
							<path class="st9" d="M4285.5,1051c-0.6,0-1.1-0.2-1.5-0.7l-19-21.5c-0.7-0.8-0.7-2.1,0.2-2.8s2.1-0.7,2.8,0.2l19,21.5
								c0.7,0.8,0.7,2.1-0.2,2.8C4286.5,1050.8,4286,1051,4285.5,1051z"/>
						</g>
					</g>
				</g>
				<g>
					<g>
						<path class="st18" d="M4326.1,1041.8c0,3.6-1.6,6.5-3.6,6.5s-3.6-2.9-3.6-6.5c0-3.6,1.6-6.5,3.6-6.5
							S4326.1,1038.2,4326.1,1041.8z"/>
						<path class="st18" d="M4392.7,1041.8c0,3.6-1.6,6.5-3.6,6.5s-3.6-2.9-3.6-6.5c0-3.6,1.6-6.5,3.6-6.5
							S4392.7,1038.2,4392.7,1041.8z"/>
					</g>
					<g>
						<path class="st9" d="M4354.1,1078.4c-1.5,0-3.1-0.3-4.6-1.2c-3.9-2.3-4.7-7-4.9-8.4c0-0.2,0-0.3,0-0.5
							c1.1-9.2,2.2-18.5,3-27.8c0.4-4.7,0.8-9.5,1.2-14.1c0.1-1.1,1-1.9,2.1-1.8c1.1,0.1,1.9,1,1.8,2.1c-0.4,4.7-0.8,9.4-1.2,14.2
							c-0.9,9.2-1.9,18.5-3,27.6c0.2,1.1,0.7,3.9,2.9,5.1c1.8,1.1,4.1,0.6,6.8,0c2-0.4,3.8-1.2,5.6-2.3c0.9-0.6,2.2-0.3,2.8,0.7
							c0.6,0.9,0.3,2.2-0.7,2.8c-2.1,1.3-4.4,2.2-6.8,2.8C4357.6,1078,4355.9,1078.4,4354.1,1078.4z"/>
					</g>
					<path class="st19" d="M4371.5,1016.7c11.6-6.5,27.7-5.1,37.5,4.1c-3.1-1.1-6.1-2-9.2-2.6c-6-1.3-12.1-1.5-18.2-0.7
						c-3,0.4-6,1-9.1,1.7C4371,1019.5,4370.2,1017.5,4371.5,1016.7L4371.5,1016.7z"/>
					<path class="st19" d="M4337.3,1018.6c-3,0.2-6.9-0.5-9.9-0.9c-9.1-1-18.8-2.8-26.9,3c1.5-2.9,4.5-5.2,7.7-6.4
						c8-3,16.7-1.8,24.7,0.3c1.3,0.4,3.4,1,4.6,1.3C4338.9,1016.4,4338.7,1018.5,4337.3,1018.6L4337.3,1018.6z"/>
					<path class="st0" d="M4372,1105.6c-4.3-1.1-10.3-2.1-17.5-2c-6.8,0.2-12.5,1.3-16.6,2.5c1.6-8,8.6-13.9,16.8-14
						C4362.9,1092,4370.1,1097.6,4372,1105.6z"/>
				</g>
			</g>
		</g>
		<g>
			<g>
				<g>
					<g>
						<g>
							<g>
								<g>
									<path class="st20" d="M4177.7,1975.4c0,0,44.6,541.8,38.2,698.4c10,0.4,57.6,2.7,57.6,2.7c12.8-68.8,24.1-141.1,33.2-216.7
										c21.8-180.5,27.3-347.7,23.4-497.7c3.6,3.5,5.1,6.6,4.6,9.1C4332,1983.7,4279.6,1985.1,4177.7,1975.4z"/>
									<g>
										<path class="st20" d="M4217.1,2670.2c-2.2,6.5-2.9,42.4-27,85.1c-12.1,21.4-17.4,41-25.5,59.6c4.7,3.9,56,50.2,85.2-8.9
											c-2.2,0.6,20-13.6,23.7-59.4c1.5-19.1-2.3-46.3,1.4-74.6C4276.4,2672.6,4217.1,2670.2,4217.1,2670.2z"/>
									</g>
									<path class="st21" d="M4267.4,2858.2h-144.9c-3.2-10.9-4.4-30.2,12.4-41.8c3.2-2.2,6.4-4.7,9.5-7.5
										c22.3-19.5,43.5-50.3,45.7-53.7c0.1-0.1,0.1-0.2,0.2-0.3c-11.6,25-24.3,47.3-14.2,56.1c2.4,2.1,5.4,3.6,8.6,4.4
										c57.2,14.6,88.9-69.3,88.7-68.9C4278.8,2788.8,4267.4,2858.2,4267.4,2858.2z"/>
								</g>
								<g>
									<g>
										<path class="st20" d="M4362.5,1975.4l29.7,692.2c0,0,3.4,30.3,4.5,39.6c-4.6-4.7,57.2-39.1,57.2-39.1s38.9-399,53.6-692.7
											C4512.8,1986,4362.5,1975.4,4362.5,1975.4z"/>
										<g>
											<path class="st20" d="M4392.7,2670.3c0.6,4.5-3.9,44.5-15.3,85.4c-5.5,19.7-10.9,40.7-21.4,55.8c4.7,3.9,54.9,51.2,84-8
												c-2.2,0.6,13.2-17.6,16.8-63.4c1.5-19.1,1.1-47.5-3.3-73.8C4447,2665.7,4392.7,2670.3,4392.7,2670.3z"/>
										</g>
										<path class="st21" d="M4458.1,2858.2h-131.3c-3.2-10.9-4.4-30.2,12.4-41.8c25-17.3,36.7-55.3,38.2-60.3
											c0-0.2,0.1-0.3,0.1-0.4c0-0.1,0-0.2,0-0.2c-5.8,30.2-7.2,46.6,2.9,55.4c2.4,2.1,5.4,3.6,8.6,4.4
											c55.6,14.1,67.4-70.7,67.9-75.1c0-0.2,0-0.3,0-0.3c0.7,5.8,1.3,12.3,1.7,19.2C4461.2,2801.8,4458.1,2858.2,4458.1,2858.2z
											"/>
									</g>
								</g>
							</g>
						</g>
					</g>
				</g>
			</g>
			<path class="st5" d="M4525.7,1985.7c-5.1,239.6-10.1,479.1-15.2,718.7c-52.3-1.6-104.5-3.1-156.8-4.7
				c-4.6-229.8-9.1-459.6-13.7-689.4C4401.9,2002.1,4463.8,1993.9,4525.7,1985.7z"/>
			<path class="st5" d="M4342,2003c-11.8,231.8-23.7,463.7-35.5,695.5l-146.1-4.7l2.5-683.3C4222.6,2008,4282.3,2005.5,4342,2003z"
				/>
			<g>
				<path class="st5" d="M4163,2024.9c-0.8-43.3-3.1-339.5,77.4-419.5H4458c0,0,88.4,100.1,65.6,419.5H4163z"/>
				<g>
					<g>
						<path class="st9" d="M4378.6,1787.2c-0.2,0-0.3,0-0.5-0.1l-79.7-24.3c-0.9-0.3-1.4-1.2-1.1-2.1c0.3-0.9,1.2-1.4,2.1-1.1
							l79.7,24.3c0.9,0.3,1.4,1.2,1.1,2.1C4380,1786.7,4379.3,1787.2,4378.6,1787.2z"/>
					</g>
					<g>
						<path class="st9" d="M4340.5,2057.2c-1.1,0-2-0.9-2-2l-1.7-281.9c0-1.1,0.9-2,2-2c0,0,0,0,0,0c1.1,0,2,0.9,2,2l1.7,281.9
							C4342.5,2056.3,4341.6,2057.2,4340.5,2057.2C4340.5,2057.2,4340.5,2057.2,4340.5,2057.2z"/>
					</g>
					<g>
						<path class="st9" d="M4435.4,2699.5C4435.4,2699.5,4435.4,2699.5,4435.4,2699.5c-1.1,0-2-0.9-2-2c2-239.1,0.4-481.5-4.6-720.5
							c-2.5-118.6-5.9-238.9-10.1-357.6c0-1.1,0.8-2,1.9-2.1c1.1,0,2,0.8,2.1,1.9c4.2,118.6,7.6,239,10.1,357.6
							c5,239,6.5,481.4,4.6,720.6C4437.4,2698.7,4436.5,2699.5,4435.4,2699.5z"/>
					</g>
					<g>
						<path class="st9" d="M4224.3,2692.7C4224.3,2692.7,4224.2,2692.7,4224.3,2692.7c-1.1,0-2-0.9-2-2
							c7.3-347.2,12.9-584.9,16.7-706.5c0.9-27.3,3.1-99.8,10.7-195c4.5-56.9,10.2-114.1,17-170c0.1-1.1,1.1-1.9,2.2-1.7
							c1.1,0.1,1.9,1.1,1.7,2.2c-6.8,55.8-12.5,112.9-17,169.8c-7.5,95.1-9.8,167.5-10.7,194.8c-3.8,121.6-9.5,359.3-16.7,706.5
							C4226.2,2691.8,4225.4,2692.7,4224.3,2692.7z"/>
					</g>
					<g>
						<path class="st9" d="M4467.6,1621.4h-238.9c-1.1,0-2-0.9-2-2s0.9-2,2-2h238.9c1.1,0,2,0.9,2,2S4468.7,1621.4,4467.6,1621.4z"
							/>
					</g>
				</g>
			</g>
		</g>
		<g>
			<path class="st14" d="M4500.6,1010.2c-18.4-0.2-30.2-5.5-37-9.8c-1.8-1.1-4.5-2.9-14.9-11.8c-10.3-8.8-18.6-16.3-24.2-21.5
				c-0.1-2.4-0.1-5.5,0.4-9.1c0,0,0.3-2.2,0.8-4.3c1.1-4.7,7.3-15.6,18.2-28.1c15.1,6.1,27.1,12.5,35.9,17.7
				c1.1,0.7,8.1,5.4,22,14.8c6.7,4.5,10.1,6.9,12.7,10.6c1.2,1.8,5.9,9.7,5.4,20.1C4519.3,997.8,4505.9,1003,4500.6,1010.2z"/>
			<g>
				<path class="st14" d="M4398.1,943.9c-2.2-0.5-4.5-1-6.7-1.3c-0.7-0.1-1.4-0.1-1.9,0.2c-1.2,0.7-0.9,2.5-0.3,3.8
					c1.4,2.6,4,4.4,6.5,6c11.9,7.7,24.9,13.7,38.5,17.8c1.9,0.6,4.4,0.8,5.2-1c2.4-5.7-8.5-14-12.8-15.9
					C4417.5,949.3,4407.8,946.2,4398.1,943.9z"/>
			</g>
			<path class="st14" d="M4397.7,923.8c-2.8-0.8-5.9-1.5-8-3.6c-2.1-2.1-2.6-6-0.3-7.8c1.1-0.8,2.5-1,3.9-1c6.3-0.3,12.6,1,18.6,2.6
				c13.5,3.6,37.8,13,50.1,19.8c2.9,1.6,0.9,3.9,2,7c1.8,5-8.9,6.1-14.1,7.2c-9.9,2-15.4-6.3-22.7-11
				C4418.2,931.1,4408.2,926.6,4397.7,923.8z"/>
			<g>
				<path class="st14" d="M4442.4,932.3c-17.3-7.8-35.6-13.1-54.4-15.9c-2.2-0.3-4.5-0.6-6.6,0c-2.1,0.6-4.1,2.3-4.4,4.5
					c-0.2,2.1,1,4,2.3,5.6c-3.7,1.9-3.4,10,9.6,15.1c13.6,5.3,28,11.4,41.8,16.1c2.2,0.7,4.5,1.5,6.8,1.6c5.9,0.3,11.8-3.9,13.3-9.6
					C4452.5,943.9,4447.8,934.7,4442.4,932.3z"/>
				<g>
					<path class="st9" d="M4437.7,947.1c-0.3,0-0.6-0.1-0.8-0.2c-15.9-7.1-57.7-18.4-58.1-18.5c-1.1-0.3-1.7-1.4-1.4-2.5
						c0.3-1.1,1.4-1.7,2.5-1.4c1.7,0.5,42.5,11.5,58.7,18.7c1,0.5,1.5,1.6,1,2.6C4439.2,946.6,4438.5,947.1,4437.7,947.1z"/>
				</g>
			</g>
		</g>
		<path class="st0" d="M4723.1,1117.3c0,0,0.2,0.9-0.3,1.9c0,0,0,0,0,0c-0.7,4.7-2.4,9.3-4.8,13.4c-3.4,5.9-9.3,14.5-20.5,18.9
			c-12.8,5-32.7,4.5-63.9-11.8c-11.2-5.7-25.4-16.3-40.4-28.9c-14.7-12.4-30-26.6-43.7-39.9c-11-10.6-20.9-20.6-28.7-28.6
			c-10.3-10.6-16.9-17.6-16.9-17.6c0.5,0,2.9-3.3,6.3-8.3c4.8-7.2,6.7-10.2,11.9-18.3c1.9-2.9,19.4-28.7,16.5-24.4
			c63.2,30.3,109.4,53.4,120.4,59.8c5.3,3.1,10.1,6.2,10.1,6.2c9.3,6,16.2,11.3,18.4,13.1
			C4717.4,1076.7,4723.3,1116.4,4723.1,1117.3z"/>
		<g>
			<g>
				<path class="st9" d="M4668.2,1143.6c-0.1,0-0.2,0-0.3,0c-21-2.8-58.5-23.4-60.1-24.3c-1-0.5-1.3-1.8-0.8-2.7
					c0.5-1,1.8-1.3,2.7-0.8c0.4,0.2,38.4,21.1,58.7,23.8c1.1,0.1,1.9,1.2,1.7,2.2C4670.1,1142.9,4669.2,1143.6,4668.2,1143.6z"/>
			</g>
		</g>
		<g>
			<g>
				<path class="st9" d="M4506.3,1493.4c-0.1,0-0.3,0-0.4,0c-1.1-0.2-1.8-1.3-1.5-2.4c6.8-30,11.3-60.7,13.4-91.2
					c1.1-16.2,1.6-32.7,1.5-49c0-1.1,0.9-2,2-2c0,0,0,0,0,0c1.1,0,2,0.9,2,2c0.2,16.4-0.3,33-1.5,49.4c-2.2,30.8-6.7,61.7-13.5,91.8
					C4508,1492.8,4507.2,1493.4,4506.3,1493.4z"/>
			</g>
		</g>
		<g>
			<path class="st9" d="M4444.9,937.7c-0.3,0-0.6-0.1-0.9-0.2c-9.1-4.3-18.5-8.2-28-11.5c-8.8-3.1-17.9-5.7-27-7.8
				c-1.1-0.2-1.7-1.3-1.5-2.4c0.2-1.1,1.3-1.7,2.4-1.5c9.2,2.1,18.5,4.8,27.4,7.9c9.6,3.3,19.2,7.2,28.4,11.6c1,0.5,1.4,1.7,0.9,2.7
				C4446.4,937.2,4445.6,937.7,4444.9,937.7z"/>
		</g>
		<g>
			<path class="st9" d="M4430.9,958.2c-0.2,0-0.5,0-0.7-0.1c-0.6-0.2-14.3-5.3-18.1-7.1c-3-1.3-16.1-5.3-22.6-7.1
				c-1.1-0.3-1.7-1.4-1.4-2.5c0.3-1.1,1.4-1.7,2.5-1.4c0.8,0.2,19.2,5.6,23.1,7.3c3.8,1.7,17.8,6.9,17.9,7c1,0.4,1.6,1.5,1.2,2.6
				C4432.5,957.7,4431.7,958.2,4430.9,958.2z"/>
		</g>
		<g>
			<path class="st9" d="M4500.6,1012.2c-1,0-1.8-0.7-2-1.7c-0.2-1.1,0.6-2.1,1.7-2.3l7.6-1.2c1.1-0.2,2.1,0.6,2.3,1.7
				c0.2,1.1-0.6,2.1-1.7,2.3l-7.6,1.2C4500.8,1012.2,4500.7,1012.2,4500.6,1012.2z"/>
		</g>
		<g>
			<path class="st9" d="M4470.3,937.7c-0.3,0-0.5-0.1-0.8-0.2l-16.5-7c-1-0.4-1.5-1.6-1.1-2.6s1.6-1.5,2.6-1.1l16.5,7
				c1,0.4,1.5,1.6,1.1,2.6C4471.8,937.3,4471.1,937.7,4470.3,937.7z"/>
		</g>
		<path class="st14" d="M4262.8,943.9c2.6-6.5,5.1-13,8.9-19c1.9-3,4.1-5.8,5.2-9.2c1.1-3.3,0.9-7.4-1.5-9.9
			c-0.2-0.2-0.4-0.3-0.6-0.4c-0.5-0.2-1,0.2-1.4,0.5c-5.2,4-9.8,8.6-14.4,13.3c-3.6,3.7-7.3,7.4-10.9,11.1c-4.9,5-9.8,9.9-14.1,15.4
			c-6.1,7.7-13.7,17.7-17.3,26.9c-0.2,0.6,2.2-0.1,2.6,0.4c0.4,0.6,1.3,0.5,2.1,0.3c7.3-1.8,14.6-3.8,21.3-7.1
			c5.2-2.5,10.2-5.8,14.2-10C4260,952.7,4261.1,948.2,4262.8,943.9z"/>
		<g>
			<path class="st14" d="M4228.1,1011.4c18.4-0.9,29.9-6.7,36.6-11.2c1.7-1.2,4.4-3.1,14.5-12.4c10-9.2,18-17,23.4-22.4
				c0-2.4-0.1-5.5-0.7-9.1c0,0-0.4-2.1-0.9-4.2c-1.3-4.7-7.9-15.3-19.3-27.3c-14.9,6.7-26.6,13.6-35.2,19.1
				c-7.2,4.7-14.2,8.3-21.4,15.6c-5.1,5.2-8.2,9.9-10.2,13.4c-4.1,7-7.1,12.2-6.6,18C4209.2,1003.8,4226.8,1010.9,4228.1,1011.4z"/>
			<g>
				<path class="st14" d="M4327.9,941.1c2.2-0.6,4.4-1.2,6.7-1.5c0.7-0.1,1.4-0.2,1.9,0.2c1.2,0.7,1,2.5,0.4,3.7
					c-1.3,2.7-3.8,4.5-6.2,6.3c-11.6,8.2-24.4,14.7-37.8,19.3c-1.8,0.6-4.4,0.9-5.2-0.8c-2.6-5.6,7.9-14.3,12.1-16.4
					C4308.7,947.3,4318.3,943.8,4327.9,941.1z"/>
			</g>
			<path class="st14" d="M4327.5,921c2.8-0.9,5.8-1.7,7.8-3.9c2-2.2,2.4-6.1,0-7.8c-1.1-0.8-2.6-0.9-3.9-0.9
				c-6.3,0-12.5,1.5-18.5,3.4c-13.4,4.1-37.3,14.5-49.3,21.7c-2.8,1.7-0.8,3.9-1.8,7.1c-1.6,5.1,9.1,5.8,14.3,6.6
				c10,1.6,15.2-6.9,22.3-11.9C4307.3,929.1,4317.1,924.2,4327.5,921z"/>
			<path class="st14" d="M4283.1,931.3c17-8.4,35.1-14.5,53.7-18c2.2-0.4,4.5-0.8,6.6-0.3c2.2,0.5,4.2,2.1,4.6,4.3
				c0.3,2-0.9,4-2.1,5.7c3.8,1.8,3.8,9.8-9,15.4c-13.4,5.9-27.5,12.5-41.2,17.7c-2.2,0.8-4.4,1.7-6.8,1.9
				c-5.9,0.5-11.9-3.4-13.7-9.1C4273.5,943.3,4277.8,933.9,4283.1,931.3z"/>
			<g>
				<path class="st9" d="M4288.3,945.9c-0.7,0-1.4-0.4-1.8-1.1c-0.5-1-0.1-2.2,0.9-2.7c15.9-7.9,56.2-20.5,57.9-21
					c1.1-0.3,2.2,0.3,2.5,1.3c0.3,1.1-0.3,2.2-1.3,2.5c-0.4,0.1-41.7,13-57.3,20.8C4288.9,945.8,4288.6,945.9,4288.3,945.9z"/>
			</g>
			<g>
				<path class="st9" d="M4280.8,936.8c-0.7,0-1.4-0.4-1.8-1.1c-0.5-1-0.1-2.2,0.8-2.7c9-4.8,18.4-9,27.9-12.8
					c8.8-3.4,18-6.5,27.1-9c1.1-0.3,2.2,0.3,2.5,1.4c0.3,1.1-0.3,2.2-1.4,2.5c-9,2.5-18,5.4-26.7,8.8c-9.4,3.7-18.6,7.9-27.5,12.6
					C4281.4,936.7,4281.1,936.8,4280.8,936.8z"/>
			</g>
			<g>
				<path class="st9" d="M4295.6,956.7c-0.8,0-1.5-0.5-1.8-1.2c-0.4-1,0.1-2.2,1.1-2.6c0.1-0.1,13.9-5.8,17.6-7.7
					c3.9-1.9,22.1-8,22.8-8.2c1.1-0.4,2.2,0.2,2.5,1.3c0.3,1-0.2,2.2-1.3,2.5c-6.5,2.2-19.4,6.6-22.3,8c-3.8,1.9-17.3,7.5-17.8,7.8
					C4296.1,956.6,4295.8,956.7,4295.6,956.7z"/>
			</g>
			<g>
				<path class="st9" d="M4255.4,937.8c-0.7,0-1.5-0.4-1.8-1.1c-0.5-1,0-2.2,1-2.7l16.2-7.7c1-0.5,2.2,0,2.7,1c0.5,1,0,2.2-1,2.7
					l-16.2,7.7C4256,937.8,4255.7,937.8,4255.4,937.8z"/>
			</g>
		</g>
		<g>
			<path class="st14" d="M4086.2,1086c0.6-0.5,1.4-1.3,2.5-2.2c36.4-33,58.9-50.6,77.4-66.5c13.7-11.8,33-29.4,55.3-53.2
				c5,5.9,11.6,15.2,15.8,28c2.1,6.4,3.2,12.3,3.8,17.2c-11.3,13.2-22.9,26.5-34.7,39.9c-25,28.2-50,55.2-74.7,81
				C4116.5,1115.4,4101.4,1100.7,4086.2,1086z"/>
		</g>
		<g>
			<g>
				<path class="st9" d="M4240.5,1012c-0.2,0-0.3,0-0.5-0.1l-9.7-2.4c-1.1-0.3-1.7-1.3-1.5-2.4c0.3-1.1,1.3-1.7,2.4-1.5l9.7,2.4
					c1.1,0.3,1.7,1.3,1.5,2.4C4242.2,1011.3,4241.4,1012,4240.5,1012z"/>
			</g>
		</g>
		<path class="st0" d="M4020.2,1156.7c2,5.3,5,12.1,5,12.1c0,0,0,0,0,0c12.6,19.9,31.1,48.3,54.5,81.9c45,64.7,57.4,83,67.6,96
			c22.5,28.6,42.6,50.6,56.1,64.9c8.9-59.3,12.7-82.8,13.1-83c0,0,0.1,0,0.1,0c0.5-0.2,2.7-1.1,5.5-2.3c1.7-0.7,3.7-1.6,6.1-2.6
			c9.7-4.2,19.5-8.4,28.8-12.4c30.4-13.2,55.8-24.5,55.8-24.5s-16.4-13.3-39.8-32.7c-2.4-2-4.9-4.1-7.5-6.3
			c-4.1-3.5-8.5-7.1-12.9-10.8c-4-3.3-8-6.7-12.2-10.2c0,0,0,0,0,0c-4.7-4-9.6-8.1-14.5-12.3c-26.3-22.4-53.9-46.4-75.4-66.4
			c-4.3-4-8.3-7.8-12-11.4c-7-6.8-12.9-12.8-17.4-17.8c-3.2-3.6-6.4-6.8-9.5-9.7c-19.9-18.3-49-14.3-53.9-26.2
			c-1.7-4.3-0.6-11.3,11.7-23.6c-4.9,3.7-11.4,9.1-18.4,16.3c-6.3,6.5-12.7,13.2-18.6,23.7c-6.2,11-8.3,20.1-10.4,28.9
			C4021.5,1130.3,4017.3,1148.9,4020.2,1156.7z"/>
		<path class="st0" d="M4012.7,1139.9c0,0-0.2,0.9,0.4,1.9c0,0,0,0,0,0c1.1,4.8,3.1,9.4,6,13.5c4,5.8,10.9,14.3,23.3,17.9
			c14.1,4.2,35.5,2.2,68-17c11.7-6.7,26.4-18.8,41.7-32.9c15-13.9,30.6-29.7,44.6-44.4c11.2-11.8,21.3-22.9,29.2-31.7
			c10.5-11.7,17.1-19.4,17.1-19.4c-0.6,0-3.4-3.2-7.2-8.1c-5.6-7.1-7.8-10-13.9-18c-2.2-2.9-22.7-28.1-19.3-24
			c-61.2,32.3-90.1,49-105.2,58.4c-2.4,1.5-31.2,19.5-31.2,19.5l0,0c-9.6,6.9-16.7,12.9-19,14.9
			C4016.4,1097.5,4012.5,1139,4012.7,1139.9z"/>
		<g>
			<g>
				<path class="st9" d="M4105.8,1160.6c-0.8,0-1.6-0.5-1.9-1.3c-0.4-1,0.1-2.2,1.2-2.6c19.1-7.3,51.4-36.3,51.7-36.6
					c0.8-0.7,2.1-0.7,2.8,0.1c0.7,0.8,0.7,2.1-0.1,2.8c-1.3,1.2-33.1,29.8-53,37.4C4106.2,1160.5,4106,1160.6,4105.8,1160.6z"/>
			</g>
		</g>
		<g>
			<g>
				<path class="st9" d="M4203.1,1473.5c-1,0-1.9-0.8-2-1.8c-3.3-29.1-5.5-58.7-6.4-87.9c-0.9-26.4-0.7-53.1,0.3-79.5
					c0-1.1,1-2,2.1-1.9c1.1,0,2,1,1.9,2.1c-1.1,26.3-1.2,52.9-0.3,79.2c0.9,29.1,3.1,58.6,6.4,87.6c0.1,1.1-0.7,2.1-1.8,2.2
					C4203.2,1473.4,4203.2,1473.5,4203.1,1473.5z"/>
			</g>
		</g>
	</g>
</g>
<g id="plant">
	<g>
		<path class="st9" d="M3033.2,2803.9H1560.4c-48.9,0-88.6-39.8-88.6-88.6V589.2c0-48.9,39.8-88.6,88.6-88.6h1472.8
			c48.9,0,88.6,39.8,88.6,88.6v2126.1C3121.8,2764.1,3082,2803.9,3033.2,2803.9z M1560.4,504.6c-46.7,0-84.6,38-84.6,84.6v2126.1
			c0,46.7,38,84.6,84.6,84.6h1472.8c46.7,0,84.6-38,84.6-84.6V589.2c0-46.7-38-84.6-84.6-84.6H1560.4z"/>
	</g>
	<g>
		<path class="st9" d="M1417.8,1440.2c-80.1-106.6-187.7-195.6-314.3-237.5c-21.4-7.1-44.2-12.8-66.3-8.8
			c-22.2,4.1-43.5,20.5-46.7,42.8c-5.8,41.2,44.9,63.9,84.7,76.1c223,68.5,364.6,228.8,473.4,425.9
			C1603.7,1699.9,1450.1,1483.2,1417.8,1440.2z"/>
		<path class="st4" d="M1407.2,1125.3c-38.2-82.1-76.4-164.3-107.3-249.4c-24.4-67.3-44.2-138.1-38.7-209.4
			c2.6-33.2,15.9-71.6,48.1-80.3c14-3.8,29-0.9,42.2,5.1c66.8,30.3,75.2,119.6,80.2,192.8c21,308.7,150.7,597.9,270.9,883
			c2.8,6.6,5.6,13.8,3.4,20.6c-17.4,54.2-66.1-61.7-69.4-69.1c-23.8-53.9-49.7-106.9-74.6-160.3
			C1510.4,1347.2,1458.8,1236.2,1407.2,1125.3z"/>
		<g>
			<path class="st5" d="M1236.2,912.6c-55.9-75.9-116.8-149.9-194.1-203.8c-29.2-20.3-63.3-38.2-98.5-33.7
				c-47.9,6.1-82.5,54.1-86.5,102.2c-4,48.1,16.3,95.1,42.3,135.9c79.3,124.3,209,205.4,322.3,299.7
				c182.6,152.1,314.8,340.6,419.4,552.2c34.7-38.2-21.1-123.9-35.5-163.6c-30.1-82.6-64.2-163.7-102-243
				C1428.6,1201.9,1339.1,1052.3,1236.2,912.6z"/>
			<g>
				<path class="st9" d="M1581.1,1610.7c-0.8,0-1.5-0.4-1.8-1.2c-102.4-231.5-251.8-447.9-432-625.8c-26.4-26.1-54-51.9-80.7-76.9
					c-63.3-59.2-128.8-120.4-183.2-189.7c-0.7-0.9-0.5-2.1,0.3-2.8c0.9-0.7,2.1-0.5,2.8,0.3c54.2,69,119.6,130.1,182.8,189.2
					c26.7,25,54.4,50.8,80.8,76.9c90.5,89.3,173.2,188,245.8,293.2c72.6,105.2,135.6,217.6,187,333.8c0.4,1,0,2.2-1,2.6
					C1581.7,1610.6,1581.4,1610.7,1581.1,1610.7z"/>
			</g>
		</g>
	</g>
	<g>
		<path class="st9" d="M3206.8,2853.3c44.4-92,100.4-178.4,166.2-256.5c21.8-25.9,45.6-51.5,76.5-65.3s70.7-12.8,95,10.8
			c32.5,31.6,23.7,86.4,3.2,126.8c-45,88.6-131.1,149.4-220.2,193.3L3206.8,2853.3z"/>
		<path class="st5" d="M2849.2,2857.4c-34.2-156.4-62.1-314.2-83.5-472.8c-21-155.2-35.5-315.4,5.5-466.5
			c9.1-33.4,33.8-73.7,67.2-64.3c13.5,3.8,23.3,15.2,31.6,26.5c82.2,111.7,96,257.9,106.9,396.1c29-108.1,34.3-221,54.1-331.1
			c19.9-110.1,57.2-222.1,137-300.5c19.7-19.4,44.8-37.4,72.3-34.9c31.2,2.8,53.9,30.6,68.9,58c44.4,81,55.1,176.2,54.7,268.6
			c-0.8,180.2-40.3,357.7-79.6,533.6c52.7-115.7,110.2-237.2,215.5-308.3c7.6-5.1,15.9-10.1,25-9.9c19.8,0.4,30.4,23.3,34.2,42.7
			c20.9,105.6-19,213.5-67.6,309.5c-65.5,129.7-148,250.8-244.8,359.3L2849.2,2857.4z"/>
		<g>
			<path class="st9" d="M3131.3,2860.8c-0.4,0-0.8-0.1-1.2-0.4c-0.9-0.6-1.1-1.9-0.5-2.8c13.4-18.8,27-37.7,40.2-56.1
				c147.7-205.6,287.1-399.8,365.2-642.9c0.3-1.1,1.5-1.6,2.5-1.3c1.1,0.3,1.6,1.5,1.3,2.5c-78.3,243.7-217.9,438.2-365.8,644
				c-13.2,18.3-26.7,37.2-40.2,56C3132.5,2860.6,3131.9,2860.8,3131.3,2860.8z"/>
		</g>
		<g>
			<path class="st9" d="M2992.6,2751.3c-0.4,0-0.7-0.1-1.1-0.3c-0.9-0.6-1.2-1.8-0.6-2.8c215.9-339.4,242.6-761.7,266.1-1134.2
				c0.1-1.1,1-1.9,2.1-1.9c1.1,0.1,1.9,1,1.9,2.1c-13.4,212.3-27.4,403.2-63.4,590.5c-20,104.2-44.9,196.8-76,283
				c-34.4,95.5-77.3,183.8-127.3,262.5C2994,2751,2993.3,2751.3,2992.6,2751.3z"/>
		</g>
	</g>
</g>
<g id="tablet">
	<g>
		<g>
			<path class="st2" d="M1437.6,2863.4h1579.3c18.4,0,33.4-14.9,33.4-33.4V584.4c0-18.4-14.9-33.4-33.4-33.4l-1579.3,0
				c-18.4,0-33.4,14.9-33.4,33.4V2830C1404.2,2848.5,1419.1,2863.4,1437.6,2863.4z"/>
			
				<ellipse transform="matrix(0.9732 -0.2298 0.2298 0.9732 -87.0554 532.0688)" class="st22" cx="2241.3" cy="639.9" rx="19.1" ry="19.1"/>
		</g>
		<g>
			<path class="st0" d="M3000.1,2791.1l0-2157.5c0-14.7-11.9-26.6-26.6-26.6l-1488.3,0c-14.7,0-26.6,11.9-26.6,26.6l0,2157.5
				c0,14.7,11.9,26.6,26.6,26.6l1488.3,0C2988.2,2817.7,3000.1,2805.8,3000.1,2791.1z"/>
			<g>
				<path class="st9" d="M1484.4,607h1489.9c14.2,0,25.7,7.1,25.7,15.8l0,48.2H1458.7v-48.2C1458.7,614.1,1470.2,607,1484.4,607z"/>
				<g>
					
						<rect x="1609.9" y="625.5" transform="matrix(-1 -1.224647e-16 1.224647e-16 -1 3241.2808 1278.6663)" class="st0" width="21.5" height="27.7"/>
					
						<rect x="1564.9" y="625.5" transform="matrix(-1 -1.224647e-16 1.224647e-16 -1 3151.3113 1278.6663)" class="st0" width="21.5" height="27.7"/>
					
						<rect x="1519.9" y="625.5" transform="matrix(-1 -1.224647e-16 1.224647e-16 -1 3061.342 1278.6663)" class="st0" width="21.5" height="27.7"/>
				</g>
				<g>
					<ellipse class="st0" cx="2943.6" cy="639.3" rx="11.9" ry="11.4"/>
					<ellipse class="st0" cx="2902.2" cy="639.3" rx="11.9" ry="11.4"/>
					<ellipse class="st0" cx="2860.9" cy="639.3" rx="11.9" ry="11.4"/>
				</g>
			</g>
		</g>
		<path class="st22" d="M2121.3,657.2h217.1c9.7,0,17.6-7.9,17.6-17.6l0,0c0-9.7-7.9-17.6-17.6-17.6h-217.1
			c-9.7,0-17.6,7.9-17.6,17.6l0,0C2103.7,649.3,2111.6,657.2,2121.3,657.2z"/>
		<g id="error">
			<g>
				<g>
					<path class="st2" d="M1585.4,2164.9v-48.8l263.8-423.6h93.2v384.9h62.2v87.6h-62.2v99.4h-97.2v-99.4H1585.4z M1708.1,2077.3
						h137.1v-223.2L1708.1,2077.3z"/>
					<path class="st2" d="M2392.3,2190.4c-40.1,50.7-88.6,76-145.4,76s-105.3-25.3-145.4-76c-40.1-50.7-60.2-120.9-60.2-210.7
						c0-89.3,20.1-159.3,60.2-209.9c40.1-50.7,88.6-76,145.4-76s105.3,25.3,145.4,76c40.1,50.7,60.2,120.9,60.2,210.7
						C2452.5,2069.7,2432.4,2139.7,2392.3,2190.4z M2317.4,1833.8c-21-32-44.5-48.1-70.5-48.1c-26,0-49.6,16-70.5,48.1
						c-21,32-31.5,80.7-31.5,145.8s10.4,113.9,31.1,146.2c20.7,32.3,44.4,48.5,70.9,48.5s50.2-16.2,70.9-48.5
						c20.7-32.3,31.1-81.1,31.1-146.2S2338.4,1865.8,2317.4,1833.8z"/>
					<path class="st2" d="M2847.4,1692.8v385.4h62.1v87.7h-62.1v99.5h-97.1v-99.5h-259.5V2117l263.5-424.1H2847.4z M2613.4,2078.2
						h136.9v-223.5L2613.4,2078.2z"/>
				</g>
				<g>
					<path class="st23" d="M1906.3,1692.9v384.8h62.2v87.6h-62.2v99.4h-97.2v-99.4h-259.8v-48.8l263.8-423.5H1906.3z M1672,2077.7
						h137.1v-223.1L1672,2077.7z"/>
					<path class="st23" d="M2356.2,2187.1c-40.1,50.7-88.6,76-145.4,76c-56.8,0-105.3-25.3-145.4-76
						c-40.1-50.7-60.2-120.9-60.2-210.7c0-89.3,20.1-159.3,60.2-209.9c40.1-50.7,88.6-76,145.4-76c56.8,0,105.3,25.3,145.4,76
						c40.1,50.7,60.2,120.9,60.2,210.7C2416.4,2066.5,2396.3,2136.5,2356.2,2187.1z M2281.3,1830.5c-21-32-44.5-48.1-70.5-48.1
						c-26,0-49.6,16-70.5,48.1c-21,32-31.5,80.7-31.5,145.8c0,65.2,10.4,113.9,31.1,146.2c20.7,32.3,44.4,48.5,70.9,48.5
						s50.2-16.2,70.9-48.5c20.7-32.3,31.1-81.1,31.1-146.2C2312.8,1911.2,2302.3,1862.6,2281.3,1830.5z"/>
					<path class="st23" d="M2811.7,1692.9v385.3h62.2v87.7h-62.2v99.5h-97.2v-99.5h-259.8V2117l263.8-424.1H2811.7z M2577.4,2078.2
						h137.1v-223.4L2577.4,2078.2z"/>
				</g>
			</g>
			<g>
				<path d="M2025.9,2117.5c-0.4,0-0.8-0.3-0.9-0.7c-5.9-18.8-10.6-38.3-14.1-57.7c-8.4-46.9-8-84.6-7.4-98.7
					c1.4-34.5,4.7-115.3,57.1-188c9-12.5,19.1-24.3,30.1-35.2c0.4-0.4,1-0.4,1.3,0c0.4,0.4,0.4,1,0,1.3
					c-10.9,10.8-21,22.5-29.9,34.9c-52.1,72.2-55.4,152.6-56.8,187c-0.6,14-1,51.6,7.4,98.3c3.5,19.4,8.2,38.7,14.1,57.5
					c0.2,0.5-0.1,1-0.6,1.2C2026.1,2117.5,2026,2117.5,2025.9,2117.5z"/>
			</g>
			<g>
				<path d="M2468.7,2095c-0.2,0-0.3,0-0.5-0.1c-0.4-0.3-0.6-0.8-0.3-1.3l235.8-379c0.3-0.4,0.8-0.6,1.3-0.3
					c0.4,0.3,0.6,0.8,0.3,1.3l-235.8,379C2469.3,2094.8,2469,2095,2468.7,2095z"/>
			</g>
			<g>
				<path d="M1552.3,2113.5c-0.2,0-0.5-0.1-0.7-0.2c-0.6-0.4-0.8-1.2-0.4-1.8l229.2-370.5c0.4-0.6,1.2-0.8,1.8-0.4
					c0.6,0.4,0.8,1.2,0.4,1.8l-229.2,370.5C1553.1,2113.3,1552.7,2113.5,1552.3,2113.5z"/>
			</g>
		</g>
	</g>
</g>
<g id="error_00000155867328145446618050000005555718300605806216_">
	<path class="st22" d="M1781.4,2860H496.5c-45.2,0-73.3-49.3-50.3-88.5l642.5-1099.1c22.5-38.5,78.2-38.5,100.7,0l642.5,1099.1
		C1854.7,2810.7,1826.6,2860,1781.4,2860z"/>
	<path class="st2" d="M1738.2,2832.4H537.8c-42.2,0-68.6-45.8-47.2-82.3l600.2-1027c21.1-36.1,73.4-36.1,94.5,0l600.2,1027
		C1806.8,2786.6,1780.5,2832.4,1738.2,2832.4z"/>
	<path class="st0" d="M1623.8,2756.6H645.5c-34.4,0-54.8-39.2-36.6-70.2l489-834.9c16.4-28.1,57-28.1,73.4,0l489,834.9
		C1678.5,2717.5,1658.2,2756.6,1623.8,2756.6z"/>
	<g>
		<g>
			<path class="st2" d="M1105.7,2591.2l100.4,0l0,100.4l-100.4,0L1105.7,2591.2z M1108,2009.5l95.7,0l0,507.1l-95.7,0L1108,2009.5z"
				/>
		</g>
		<g>
			<path class="st6" d="M1069.9,2591l100.4,0l0,100.4l-100.4,0L1069.9,2591z M1072.3,2009.3l95.7,0l0,507.1l-95.7,0L1072.3,2009.3z"
				/>
		</g>
	</g>
</g>
<g id="floor">
	<path class="st9" d="M4995.8,2862.7H304.2c-2.1,0-3.9-1.7-3.9-3.9s1.7-3.9,3.9-3.9h4691.6c2.1,0,3.9,1.7,3.9,3.9
		S4997.9,2862.7,4995.8,2862.7z"/>
</g>
<g>
	<path class="st24" d="M2265.8,900.9c5.9,11.8,10.3,26.1,2.9,38.3c-9.6,14.7-30.3,10.6-43.2,21c-2.2-6.4-3.7-13.5,1.4-20.4
		c10.3-11.6,31.8-10.1,37.6-25.1C2266.5,909.6,2266.2,905.9,2265.8,900.9z"/>
	<path class="st24" d="M2228,960.8c13.5-8.3,32.4-3.1,42.9-18.7c0-0.1,0.1,0,0.1,0c-2.2,6.9-5.5,13.4-10.5,18.7
		C2249.7,961.1,2238.9,961.5,2228,960.8z"/>
	<g>
		<path class="st25" d="M1933.3,1139.6c9.9,0,19.8,0,29.7,0.1c-0.4,47,0,94.1-0.2,141.1c-0.2,13.3-2,28.3-12.7,37.5
			c-11.8,10.8-28.9,9.5-43.7,8.8c0-9,0.1-17.9,0-26.9c7.4,0,16.3,2.2,22.3-3.5c4.5-4,4.6-10.4,4.7-16
			C1933.3,1233.8,1933.4,1186.7,1933.3,1139.6z"/>
		<g>
			<path class="st25" d="M2005.9,1139.6c13.3,0,26.6,0.1,39.8,0c10.3,62.3,20.3,124.7,30.5,187.1c-9.9-0.1-19.8-0.1-29.6,0.1
				c-1.7-12.3-3.5-24.5-5-36.8c-11.2,0.1-22.3,0.2-33.5,0.1c-1.6,12.2-3.7,24.4-5.2,36.6c-9.2,0-18.3,0-27.5,0
				C1985.7,1264.4,1995.7,1202,2005.9,1139.6z M2011.5,1264.7c8.7,0,17.5,0,26.2-0.1c-4.2-31.1-8.6-62.2-13.2-93.3
				C2020.2,1202.4,2016.1,1233.6,2011.5,1264.7z"/>
		</g>
		<path class="st25" d="M2090.2,1139.6c9.8,0.1,19.6,0.1,29.4-0.1c0.1,26.4,0.2,52.8-0.1,79.2c12.3-26.5,24.8-52.9,37.6-79.2
			c9.8,0.2,19.6,0.2,29.5,0.1c-11.8,22.9-23.3,46-35.2,68.9c11.9,39.4,23.5,79,35.7,118.4c-10.2-0.1-20.5-0.2-30.7,0.1
			c-8.8-27.7-16.6-55.7-25.2-83.5c-3.6,8.9-9.8,17-11.4,26.7c-0.4,18.9,0,37.8-0.1,56.7c-9.8-0.1-19.7-0.1-29.5,0
			C2090.2,1264.4,2090.3,1202,2090.2,1139.6z"/>
		<g>
			<path class="st25" d="M2307.5,1139.6c20.9,1.1,42.4-2.4,63,2.8c14.4,3.5,23,17.9,23.8,32c0.7,14.5,2.2,30.1-4.4,43.6
				c-2.8,6.1-8.6,10-14,13.6c9.6,3.1,15.8,11.7,17.4,21.4c4.5,24.4-1.9,49.7,4.3,73.9c-10-0.2-20.1-0.2-30.1-0.1
				c-4.2-21.3-0.9-43.2-2.6-64.7c-0.3-5.9-3.3-12.3-9.3-14.2c-6-1.8-12.4-1.3-18.6-1.6c-0.1,26.8,0.1,53.7-0.1,80.5
				c-9.9-0.2-19.7-0.1-29.6-0.1C2307.5,1264.3,2307.3,1202,2307.5,1139.6z M2337.1,1166.5c-0.2,17.7-0.2,35.5-0.1,53.2
				c9.3-0.6,22.7,1.9,26.7-9.3c1.8-11.5,1.9-23.6,0-35.1C2360.4,1163.8,2346.1,1167.1,2337.1,1166.5z"/>
		</g>
		<path class="st25" d="M2406.7,1166.6c0.1-9,0.1-18,0-27.1c30.3,0.1,60.6,0,90.9,0c0.1,9,0.1,18.1,0,27.1
			c-10.2-0.1-20.5-0.1-30.8,0c0.1,53.4-0.2,106.7,0.1,160.1c-9.9-0.2-19.8-0.2-29.7,0.1c0.4-53.4-0.1-106.8,0.2-160.2
			C2427.2,1166.6,2416.9,1166.6,2406.7,1166.6z"/>
		<g>
			<path class="st25" d="M2522,1139.6c13.3,0.1,26.7,0.1,40-0.1c9.8,62.5,20.2,124.9,30.4,187.3c-9.9-0.2-19.8-0.1-29.6-0.2
				c-1.8-12.2-3.6-24.3-5-36.5c-11.1-0.2-22.3,0-33.4-0.1c-1.8,12.2-3.9,24.3-5.1,36.5c-9.3,0.1-18.5,0.1-27.8,0.1
				C2501.8,1264.4,2511.7,1202,2522,1139.6z M2540.5,1173.1c-4.7,30.4-8.1,61-13.1,91.4c8.8,0.1,17.6,0.1,26.3,0.1
				C2549.3,1234.2,2545.9,1203.4,2540.5,1173.1z"/>
		</g>
		<path class="st25" d="M1951.8,1359.3c5.6,0,11.3,0,16.9,0c0.2,28.1-0.3,56.1,0.2,84.2c-0.9,10,17,9.6,16-0.3
			c0.8-27.9,0.1-55.9,0.3-83.9c5.4,0,10.8,0,16.2-0.1c-0.2,27,0.1,54.1-0.1,81.1c0.1,9-3.4,19.3-12.1,23.2c-9.5,4.3-21.9,3.9-30-3.1
			c-6.3-5.7-7.4-14.7-7.4-22.7C1951.8,1411.7,1951.9,1385.5,1951.8,1359.3z"/>
		<path class="st25" d="M2020,1361.5c9.5-5.4,22.6-5.7,31.4,1.2c7.7,6.2,7.3,16.9,8.6,25.8c-5.5,0.1-11,0.2-16.4,0.2
			c-1-4.8,1.4-11.6-3.8-14.4c-5.3-4.5-13.6,1-12.6,7.6c-0.7,13.7,12.9,20.9,20.8,29.9c11.9,10.9,15.1,29.8,7.8,44.1
			c-7.6,12.1-25.8,13.4-37,5.9c-8.7-6.6-8.6-18.4-9.1-28.3c5.3,0,10.6,0,15.9,0c0.5,4.8-0.2,10.1,2,14.6c4,4.3,12.7,3.8,14.7-2.3
			c1.4-6.5,0.5-13.8-4-18.9c-8.6-10.7-21.8-18.3-26.3-31.9C2008.5,1383.7,2009.8,1369,2020,1361.5z"/>
		<path class="st25" d="M2064.2,1359.3c17.2,0,34.4,0,51.6,0c0,5.1,0,10.1,0,15.2c-5.8,0-11.5-0.1-17.3-0.1
			c0.1,30.2-0.1,60.4,0.1,90.6c-5.6-0.1-11.1-0.1-16.6-0.2c0-30.1,0-60.2,0-90.3c-6-0.1-11.9-0.1-17.9-0.1
			C2064.1,1369.4,2064.1,1364.4,2064.2,1359.3z"/>
		<path class="st25" d="M2168.5,1358.4c9.2-1.8,20.6-0.7,26.8,7.3c6.5,8.3,4.9,19.6,5.3,29.4c-5.3-0.1-10.5-0.1-15.8-0.1
			c-0.5-6.6,1.2-13.8-2.3-19.8c-5.3-5.1-15.3-1.1-14.2,6.6c-0.3,20.5-0.4,41.1,0.1,61.6c-0.6,8,10.5,9.8,14.9,4.6
			c2.3-7.3,1.2-15.1,1.4-22.5c5.2-0.1,10.4-0.1,15.6-0.2c-0.5,10.1,1.5,21.1-3.4,30.4c-6.1,10.8-20.7,12.8-31.6,9
			c-8.8-3-13.8-12.5-13.7-21.4c-0.3-20.5-0.1-41-0.1-61.5C2151.1,1371.4,2157.8,1360.3,2168.5,1358.4z"/>
		<path class="st25" d="M2210.1,1359.2c15.1,0.2,30.3,0.1,45.4,0.1c0,5.1,0,10.1,0.1,15.2c-9.6-0.1-19.1-0.1-28.6-0.1
			c0,9.3,0,18.5,0,27.8c7.6-0.1,15.1,0,22.7,0c0,5,0,10,0,15.1c-7.6,0.1-15.1,0-22.6,0c0,10.8,0,21.5,0,32.3c9.5,0,19,0,28.5,0
			c0,5.1,0,10.2,0.1,15.4c-15.2-0.1-30.4-0.1-45.6,0C2210.3,1429.6,2210.1,1394.4,2210.1,1359.2z"/>
		<g>
			<path class="st25" d="M2355.2,1359c10.3-2.9,23.8-1.6,30.1,8.1c5.7,8.2,4.1,18.7,4.4,28.1c-0.6,17.8,1,35.7-0.9,53.5
				c-3.5,20.9-36.4,24-46,6.4c-4.2-7.7-3.2-16.9-3.4-25.4c0.3-16.4-0.4-32.9,0.3-49.3C2339.9,1370.9,2345.7,1361.3,2355.2,1359z
				 M2360.1,1374.1c-4.6,2.7-3.7,8.6-4,13.1c0.1,16.9,0,33.8,0,50.7c0.3,3.8-0.4,8.5,3,11.2c4.7,4.1,14,1.2,13.7-5.7
				c0.6-20.4,0.3-40.9,0.1-61.3C2374.2,1375.3,2365.4,1370,2360.1,1374.1z"/>
		</g>
		<path class="st25" d="M2521.8,1359.4c8,0,16,0,24-0.1c3.8,25.3,6.8,50.6,10.7,75.9c3.3-25.3,7.2-50.6,10.5-75.9c8,0,16,0,24.1,0.1
			c0,35.1-0.1,70.2,0.1,105.4c-5.4,0-10.8,0.1-16.1,0.1c-0.3-26.7,0.8-53.4-0.6-80.1c-3.2,26.7-7.7,53.3-11.5,80
			c-4.7,0-9.5-0.1-14.2-0.1c-3.9-27-7.8-54.1-12.1-81c-0.1,27,0.2,54.1,0.1,81.2c-4.9-0.1-9.9-0.1-14.8-0.1
			C2521.9,1429.6,2521.6,1394.5,2521.8,1359.4z"/>
		<path class="st25" d="M1923.8,1359.3c5.7,0,11.4,0,17.2,0c-0.2,26.2,0,52.4-0.1,78.7c-0.1,8.1-1.1,17.3-8,22.6
			c-6.8,5.7-16,4.3-24.2,4.4c0-4.9,0-9.9-0.1-14.8c5.3-0.2,14.2,0.4,14.9-6.6C1924.3,1415.5,1923.7,1387.4,1923.8,1359.3z"/>
		<path class="st25" d="M2123.7,1464.8c0-35.1,0.1-70.2,0-105.3c5.6-0.1,11.1-0.2,16.7-0.2c-0.1,35.2,0.1,70.4,0,105.6
			C2134.8,1464.8,2129.3,1464.8,2123.7,1464.8z"/>
		<path class="st25" d="M2288.8,1464.7c0.1-35.2,0-70.3,0.1-105.4c14.7,0.1,29.5,0,44.3,0.1c0,5,0,10,0,15.1c-9.2-0.1-18.4,0-27.6,0
			c0.1,9.7,0.1,19.4,0,29.1c7.2-0.1,14.4-0.1,21.6-0.1c0,5.1-0.1,10.3-0.1,15.5c-7.2-0.1-14.3-0.1-21.5-0.1c-0.1,15.4,0,30.7,0,46
			C2300,1464.8,2294.4,1464.8,2288.8,1464.7z"/>
		<g>
			<path class="st25" d="M2400.8,1359.3c15.5,1.7,38.2-6,47.2,11.4c3.6,13.1,5.1,30.7-7.1,40c4,3.7,8.3,7.8,8.7,13.6
				c1.5,13.5-0.2,27.2,1.6,40.7c-5.7-0.1-11.3-0.2-17-0.2c-1.4-13,0.8-26.2-1.5-39c-1.6-6.9-9.8-5.9-15.3-6.5
				c0.1,15.2,0.1,30.5,0.1,45.7c-5.6-0.1-11.3-0.1-16.9-0.1C2401.1,1429.7,2400.8,1394.5,2400.8,1359.3z M2417.5,1374.1
				c0.1,10.3,0.1,20.5,0,30.8c5.6-0.9,14,0.3,15.5-7.1c1.1-7,1.2-14.5-1.5-21.2C2427.4,1373.8,2422.1,1374.8,2417.5,1374.1z"/>
		</g>
		<path class="st25" d="M2460.7,1359.4c5.6,0,11.2-0.1,16.8-0.1c-0.1,26.2-0.1,52.5-0.1,78.8c0.3,3.9-0.3,8.9,3.5,11.4
			c5.2,4,13.9,0.3,13.4-6.7c0.4-27.8,0-55.6,0.2-83.4c5.3,0,10.6,0,16,0c-0.1,27.1,0.1,54.2-0.1,81.3c0.2,9.3-3.6,19.8-12.8,23.5
			c-9,3.5-20.1,3.1-28.1-2.6c-7-5.6-8.5-15.1-8.4-23.5C2460.8,1411.8,2461.2,1385.6,2460.7,1359.4z"/>
	</g>
	<g>
		<path class="st24" d="M2335.3,1480c-24.5,20.1-51.9,39.8-82.4,59.1c-30.5-19.4-57.8-39-82.4-59.1h-37.5
			c33.7,29.8,73.4,58.5,119.8,86.7c46.4-28.2,86.1-56.9,119.8-86.7H2335.3z"/>
		<path class="st24" d="M1986.3,1128.5c-3.3-33.1-5-68.9-5-108v-50.6c98.1-6.6,192.6-40.7,271.5-98c79,57.3,173.5,91.4,271.5,98
			v50.6c0,39.2-1.6,75-5,108h25c3-32.1,4.3-65.8,4.3-101.4c0-16.1,0-71.7,0-81c-112.5,0-215.6-39.3-295.9-104.7
			c-80.2,65.4-183.4,104.7-295.9,104.7c0,9.3,0,64.9,0,81c0,35.6,1.3,69.3,4.3,101.4H1986.3z"/>
	</g>
	<path class="st24" d="M2401.7,1082.4c-6.9-12.6-13-25.7-20-38.3c-4.3-6.9-3.7-12.9-4.3-20.7c-10.9,0.8-22-0.1-32.6-3.1
		c-13.3-3.6-25.7-9.7-39.1-12.9c-13.2-3.9-27.1-4.8-40.8-5.4c0,0,0,0,0-0.1c-0.1,0-0.2,0-0.3,0c-0.1-1.1-0.4-3.3-0.6-4.3
		c8.8-8.5,14.7-19.5,15.7-31.8c0.8,0-23.7,0.1-34.9,0.2c-11.2-0.1-35.7-0.2-34.9-0.2c1.1,12.3,6.9,23.3,15.7,31.8
		c-0.2,1.1-0.5,3.3-0.6,4.4c-13.8,0.6-27.8,1.4-41.1,5.4c-13.4,3.2-25.8,9.3-39.1,12.9c-10.7,3-21.8,3.9-32.6,3.1
		c-0.6,7.8,0,13.8-4.3,20.7c-7,12.6-13,25.7-20,38.3c-1.7,3.7-5.2,5.8-8.7,7.6c4.2,17.1,23.3,24.9,39.5,23.8
		c14.5-1,32.1-7.4,34.2-24c-3.8-2.7-7.6-5.7-9.3-10.2c-6.4-14.2-14.1-27.9-20.1-42.3c34.5-2.3,64.8-24.3,100-22
		c-0.2,1.7-0.3,3.4-0.5,5.1l0,0c-9.6,102-19,204.2-28.9,306.1c9.3,0,18.5,0,27.8-0.2c2.7-27.4,3.6-36.6,3.6-36.6s34.9,0.4,35.5,0.3
		l4.4,36.4c9.9,0.1,19.8,0,29.6,0.3c-9.6-102.1-19.3-204.1-28.7-306.3l0,0c-0.2-1.7-0.3-3.4-0.5-5.1c35.2-2.3,65.5,19.7,100,22
		c-6,14.4-13.6,28.1-20.1,42.3c-1.8,4.5-5.6,7.5-9.3,10.2c2.1,16.6,19.8,22.9,34.2,24c16.1,1.1,35.3-6.7,39.5-23.8
		C2406.9,1088.2,2403.4,1086.1,2401.7,1082.4z M2143.2,1087.9c-18.4,0.2-36.7,0.1-55.1,0.2c9.9-16.8,17.7-34.2,27.7-51
		c0.6-0.1,3.3,0,3.7,0.1L2143.2,1087.9z M2228,1263.1c6.6-96.1,12.3-167.7,15.4-203.1c5.4,52.6,16.3,203.3,16.3,203.3
		C2250.9,1263.2,2236.8,1263.2,2228,1263.1z M2346.4,1087.9l23.7-50.7c0.5-0.1,3.1-0.2,3.7-0.1c10,16.8,17.7,34.2,27.7,51
		C2383.1,1088,2364.8,1088.1,2346.4,1087.9z"/>
</g>
</svg>
