<svg width="77" height="79" viewBox="0 0 77 79" fill="none" xmlns="http://www.w3.org/2000/svg">
<g clip-path="url(#clip0_54_1221)">
<path d="M38.0189 0.566824C38.2972 0.390964 38.5948 0.601117 38.8512 0.716305C45.5235 4.09369 52.4477 7.15893 59.8127 8.63879C62.7371 9.22177 65.6896 9.65174 68.6272 10.1653C69.4401 10.3042 70.2408 10.5108 71.0573 10.6339C71.0969 11.5753 71.0843 12.5182 71.0195 13.4582C70.8439 18.9978 70.6236 24.5374 70.2013 30.0585H67.8985C68.1724 26.2257 68.3489 22.3866 68.5262 18.5476C68.614 16.585 68.6596 14.6189 68.614 12.6563C66.7703 12.3204 64.9398 11.9617 63.0935 11.6636C60.6652 11.2415 58.228 10.8555 55.8365 10.2602C50.4583 8.89643 45.3549 6.64982 40.3937 4.19921C39.8468 3.93982 39.3226 3.63294 38.7669 3.39201C38.4982 3.25836 38.1962 3.33838 37.9443 3.46675C34.1147 5.43638 30.1948 7.24774 26.1431 8.70826C22.4444 10.0553 18.5867 10.9065 14.7133 11.5642C12.5404 11.9388 10.3552 12.2413 8.18848 12.6519C8.11737 13.2147 8.18848 13.7801 8.18848 14.3437C8.30876 18.1247 8.38953 21.8986 8.63886 25.6691C8.72666 27.1331 8.83025 28.5962 8.92682 30.0594C8.08518 30.0594 7.24324 30.0594 6.40101 30.0594C5.96204 24.6535 5.76275 19.23 5.51518 13.8135C5.52571 12.7583 5.50025 11.697 5.5301 10.6401C5.83826 10.5671 6.14465 10.4871 6.45983 10.4378C8.16127 10.1661 9.86007 9.8786 11.558 9.58668C13.5052 9.25694 15.4516 8.93424 17.3831 8.54207C23.245 7.31105 28.834 5.05213 34.2297 2.48985C35.5054 1.87082 36.7854 1.26499 38.0189 0.566824Z" fill="#EF9F3F"/>
<path d="M39.4938 5.93847C39.9205 6.60849 40.2067 7.38404 40.1909 8.18772C40.1812 8.96766 39.9626 9.8197 39.3446 10.3402C38.2199 11.2653 36.4992 10.932 35.4685 12.0188C35.4114 11.2336 35.3614 10.3411 35.8829 9.6878C36.4974 8.96678 37.3367 8.4814 38.205 8.13232C38.6712 7.94503 39.1567 7.69267 39.4069 7.23544C39.6317 6.83623 39.507 6.36845 39.4938 5.93847Z" fill="#EF9F3F"/>
<path d="M38.7168 11.034C39.2234 10.8063 39.73 10.4721 39.9372 9.93048C39.9372 10.349 39.9626 10.7957 39.744 11.1721C39.6316 11.3808 39.4746 11.5621 39.2841 11.703C39.0936 11.8439 38.8745 11.9409 38.6422 11.9872C37.7643 12.1085 36.8697 12.0953 35.9821 12.0962L36.0067 11.9476C36.4183 11.7366 36.849 11.565 37.2928 11.435C37.7599 11.289 38.263 11.2494 38.7168 11.034Z" fill="#EF9F3F"/>
<path d="M33.9435 12.4585H41.6825C41.6886 12.8339 41.6825 13.2103 41.6632 13.5848C39.0955 13.5796 36.5282 13.5796 33.9611 13.5848C33.9409 13.2076 33.9382 12.8322 33.9435 12.4585Z" fill="#EF9F3F"/>
<path d="M33.9488 13.7721C36.5241 13.7616 39.0993 13.7616 41.6746 13.7721C41.2629 14.4167 40.8388 15.055 40.4262 15.6996H40.046C40.0706 15.9889 40.0996 16.2781 40.1338 16.5666C42.1145 16.5578 44.0845 16.9183 45.9677 17.5232C47.0212 17.8451 48.0098 18.3375 49.0738 18.6153C49.7546 18.7913 50.4503 18.9028 51.1519 18.9486C51.669 18.9943 52.1466 18.7648 52.6365 18.6417C52.784 19.091 52.9464 19.5368 53.0754 19.9932L52.7726 20.038C52.7629 20.0811 52.7445 20.1673 52.7348 20.2139C53.7836 22.2275 54.8325 24.2414 55.8813 26.2556C56.0639 26.2556 56.2483 26.2556 56.4327 26.2556C56.4081 27.0179 55.9595 27.6932 55.3633 28.1408C54.4187 28.8548 53.1975 29.1159 52.0316 29.0711C50.8841 29.0051 49.6972 28.6314 48.8824 27.7873C48.4837 27.3728 48.2451 26.83 48.2091 26.2556C48.3928 26.2556 48.5772 26.2556 48.7622 26.2556C49.7279 24.293 50.684 22.326 51.6541 20.3642C50.0545 20.4126 48.4742 20.0125 47.001 19.4111C44.8615 18.5459 42.5727 18.0042 40.2585 17.9875C41.3231 29.4553 42.3872 40.9231 43.4507 52.391H40.1611C39.9673 51.0316 39.7724 49.6725 39.5764 48.3137H35.8197C35.6239 49.6731 35.4237 51.0325 35.2271 52.3918H32.1745C33.2356 40.9234 34.3 29.4544 35.3675 17.9849C33.3255 17.9796 31.301 18.4025 29.3792 19.0761C28.5179 19.3926 27.6742 19.7663 26.7831 19.9949C25.8269 20.2541 24.8395 20.3792 23.8491 20.3669C24.8095 22.3312 25.7729 24.295 26.7392 26.2582H27.2879C27.2581 27.221 26.5566 28.0115 25.7463 28.4503C24.4232 29.1643 22.8017 29.2584 21.3821 28.7906C20.5568 28.5118 19.7544 28.0062 19.3303 27.221C19.1609 26.9273 19.11 26.5888 19.067 26.2591C19.2525 26.2591 19.438 26.2573 19.6236 26.2538C20.6507 24.2771 21.6797 22.3013 22.7104 20.3264C22.749 20.2438 22.7982 20.1506 22.7481 20.0626L22.4417 19.9826C22.548 19.5263 22.7192 19.0901 22.8649 18.647C23.3381 18.7622 23.7973 18.9873 24.295 18.9547C24.9992 18.9148 25.6978 18.8065 26.381 18.6311C27.2783 18.4052 28.1228 18.0156 28.9911 17.7061C31.0762 16.9825 33.2754 16.5428 35.4878 16.5674C35.5238 16.2799 35.5537 15.9915 35.5756 15.7031H35.1937C34.7846 15.055 34.3614 14.4167 33.9488 13.7721ZM37.6309 19.7074C37.1626 28.2835 36.6903 36.8593 36.2139 45.4348C37.1977 45.4348 38.1822 45.4348 39.1672 45.4348C38.9202 40.961 38.6697 36.488 38.4157 32.0158C38.1664 27.7627 37.9592 23.5069 37.6844 19.2555C37.6633 19.4049 37.6414 19.5562 37.6309 19.7074ZM23.1625 20.2156C22.1239 22.2319 21.0704 24.2411 20.0265 26.252C22.1283 26.2556 24.2304 26.2556 26.3327 26.252C25.3977 24.3035 24.4311 22.3699 23.483 20.4284C23.4408 20.2842 23.2802 20.2684 23.1625 20.2156ZM52.0939 20.2798C51.1153 22.2688 50.1388 24.2595 49.1643 26.252C51.2672 26.252 53.3693 26.252 55.4705 26.252C54.4415 24.2446 53.388 22.2495 52.3512 20.2455L52.0939 20.2798Z" fill="#EF9F3F"/>
<path d="M25.5751 69.6331C26.7313 69.6129 27.8875 69.6331 29.0447 69.6235C30.2825 70.6478 31.5029 71.6969 32.7882 72.6632C33.7837 73.4159 34.8741 74.027 35.9487 74.6636C36.3754 74.9221 36.8267 75.1428 37.2727 75.3618C37.6124 75.5236 37.9531 75.7346 38.3411 75.739C38.7011 75.7152 39.0285 75.5447 39.3569 75.4084C42.5095 74.0349 45.1741 71.8032 47.792 69.6217C48.8526 69.6217 49.9131 69.6217 50.9737 69.6217L50.9394 69.7721C49.3925 71.1341 47.8263 72.4742 46.2162 73.7623C45.4611 74.3532 44.7368 74.9933 43.9204 75.4972C43.1039 76.001 42.2655 76.4767 41.4622 77.0061C40.5333 77.589 39.5254 78.0331 38.5114 78.4446C38.0847 78.6205 37.6756 78.332 37.2937 78.1755C36.2174 77.7165 35.2165 77.1081 34.2122 76.5128C31.6109 74.9828 29.3642 72.9446 27.0702 71.0013C26.5724 70.5423 26.0167 70.1449 25.5751 69.6331Z" fill="#EF9F3F"/>
<path d="M11.1699 31.4276H15.6421C16.7741 38.4151 17.9087 45.4023 19.0459 52.3892H15.7519C15.5587 51.0289 15.3612 49.6704 15.1672 48.311H11.4131C11.2191 49.6713 11.0163 51.0298 10.8214 52.3892C9.80299 52.3892 8.78547 52.3892 7.76794 52.3892C8.89638 45.4011 10.0304 38.4139 11.1699 31.4276ZM12.7502 38.622C12.4353 40.893 12.1207 43.1639 11.8064 45.4348C12.7915 45.4348 13.7768 45.4348 14.7624 45.4348C14.2638 41.9546 13.7967 38.469 13.2699 34.9923C13.0601 36.1996 12.9311 37.413 12.7511 38.622H12.7502Z" fill="#444543"/>
<path d="M20.6314 31.4276H23.9325C23.9456 34.3653 23.9088 37.3048 23.9518 40.2426C25.3126 37.2925 26.7348 34.3697 28.1123 31.4267C29.2115 31.4267 30.3115 31.4223 31.4107 31.4267C30.1131 34.0013 28.7962 36.5565 27.5013 39.1276C28.8252 43.5476 30.15 47.9675 31.4757 52.3874C30.3265 52.3874 29.1772 52.3874 28.028 52.3874C27.1053 49.2712 26.1703 46.1585 25.2502 43.0423C24.8499 43.86 24.4464 44.6769 24.0396 45.4929C23.8903 45.7523 23.9377 46.0609 23.9316 46.3475C23.9351 48.3605 23.9351 50.3739 23.9316 52.3874H20.6314V31.4276Z" fill="#444543"/>
<path d="M45.0423 31.4267H49.1326C49.957 31.432 50.7902 31.388 51.6031 31.5612C51.719 31.5929 51.8367 31.621 51.9543 31.6492C52.1905 31.7301 52.424 31.8171 52.6567 31.9051C53.064 32.124 53.467 32.3746 53.7681 32.7334C54.2571 33.2996 54.5416 34.0171 54.6777 34.747C54.8585 35.6737 54.7988 36.6216 54.8076 37.5607C54.7988 38.6159 54.6417 39.7247 54.0175 40.6048C53.6759 41.1078 53.1623 41.463 52.6128 41.6987C53.2449 41.9115 53.8419 42.2931 54.1781 42.8866C54.6662 43.7466 54.7927 44.7586 54.8269 45.732C54.8471 47.2268 54.8269 48.7217 54.8383 50.2165C54.8436 50.9516 54.8884 51.7042 55.1842 52.3875C54.064 52.3875 52.9443 52.3875 51.8253 52.3875C51.6413 51.8391 51.5473 51.2645 51.5469 50.686C51.5206 49.0356 51.5469 47.3834 51.5311 45.732C51.4978 45.0224 51.4275 44.166 50.7902 43.7237C50.0536 43.27 49.1546 43.4415 48.332 43.408C48.332 46.4012 48.332 49.3943 48.332 52.3875H45.0432C45.0397 45.4011 45.0394 38.4142 45.0423 31.4267ZM48.3416 34.4269C48.3486 36.422 48.3249 38.4171 48.353 40.4114C48.8201 40.4026 49.288 40.4219 49.7577 40.4017C50.3161 40.363 50.9298 40.1538 51.2142 39.6341C51.5785 38.9773 51.5074 38.1982 51.5162 37.4745C51.4995 36.7254 51.5917 35.9366 51.2897 35.2288C51.0852 34.7302 50.5496 34.4269 50.0229 34.4304C49.4601 34.419 48.9009 34.4304 48.3416 34.4269Z" fill="#444543"/>
<path d="M56.1877 31.4276H66.3717C66.3717 32.4274 66.3717 33.4271 66.3717 34.4269H62.9259V52.391H59.6283C59.6283 46.4029 59.6283 40.4152 59.6283 34.4278C58.4826 34.4278 57.3369 34.4278 56.1904 34.4278C56.1763 33.428 56.1877 32.4274 56.1877 31.4276Z" fill="#444543"/>
<path d="M69.1197 31.4276H73.5971C74.7314 38.4151 75.8672 45.4023 77.0044 52.3892C75.9043 52.3892 74.8096 52.3892 73.706 52.3892C73.5137 51.0298 73.3153 49.6713 73.1231 48.3119H69.3629C69.1671 49.6713 68.966 51.0307 68.7694 52.3901H65.7142C66.845 45.4014 67.9801 38.4139 69.1197 31.4276ZM71.0511 36.0817C70.6239 39.1991 70.1937 42.316 69.7606 45.4322H72.7139C72.2153 41.9519 71.7482 38.4664 71.2214 34.9896C71.1459 35.351 71.1056 35.7177 71.0546 36.0817H71.0511Z" fill="#444543"/>
<path d="M3.02711 31.4276H6.32112C6.32112 36.7825 6.32112 42.1378 6.32112 47.4933C6.30971 48.6997 6.11832 49.9764 5.38261 50.9691C4.6109 52.0243 3.2545 52.4877 1.98852 52.4859C1.32568 52.4807 0.65406 52.5273 0 52.398C0 51.4105 0 50.4222 0 49.4348C0.76468 49.4708 1.62066 49.6467 2.30984 49.2158C2.88225 48.8553 3.02975 48.122 3.02624 47.4915C3.02799 42.1378 3.02828 36.7831 3.02711 31.4276Z" fill="#444543"/>
<path d="M12.6238 56.4621C13.464 55.815 14.6299 55.7886 15.6088 56.0849C16.1275 56.2972 16.5529 56.6891 16.8071 57.1893C17.1504 57.8681 17.1715 58.6507 17.1478 59.3963C16.5631 59.3963 15.9792 59.3963 15.3919 59.3963C15.3682 58.9066 15.4665 58.3614 15.1856 57.927C14.9898 57.6254 14.5965 57.6043 14.2734 57.6342C13.9389 57.6342 13.6738 57.9165 13.5965 58.226C13.5165 58.5676 13.5168 58.9231 13.5972 59.2645C13.6776 59.606 13.8361 59.9241 14.0601 60.1939C14.7984 61.1233 15.8423 61.7678 16.5122 62.7588C17.1785 63.7032 17.3023 64.9377 17.0854 66.05C16.9371 66.8229 16.4366 67.5448 15.6974 67.8526C15.1443 68.1164 14.5175 68.0548 13.924 68.0487C13.5347 68.0395 13.1547 67.928 12.8221 67.7254C12.4894 67.5227 12.2157 67.2361 12.0285 66.8941C11.6124 66.145 11.6238 65.2595 11.6475 64.4277C12.2293 64.4277 12.8111 64.4277 13.3929 64.4277C13.4324 64.9808 13.2814 65.6104 13.6246 66.0984C13.8538 66.4219 14.2901 66.4026 14.6422 66.3622C14.9617 66.3243 15.197 66.0421 15.2629 65.7396C15.3422 65.3814 15.3435 65.0102 15.2665 64.6515C15.1895 64.2928 15.0361 63.9549 14.8169 63.6609C14.3893 63.0973 13.838 62.6445 13.3174 62.1705C12.5799 61.4557 11.8775 60.6027 11.7292 59.5511C11.5729 58.4722 11.7283 57.1911 12.6238 56.4621Z" fill="#444543"/>
<path d="M29.3748 55.9996C30.1974 55.8378 31.1025 55.8554 31.8418 56.2951C32.5441 56.7048 32.9023 57.5173 32.9752 58.3016C33.0229 58.8995 33.0214 59.5004 32.9708 60.098C32.3992 60.0884 31.8295 60.0927 31.2553 60.098C31.2202 59.5274 31.279 58.9549 31.2167 58.3843C31.1798 58.0255 30.9059 57.6483 30.5213 57.6386C30.2527 57.6254 29.9428 57.5973 29.7251 57.789C29.4143 58.0361 29.3871 58.4678 29.3853 58.8354C29.3897 61.0063 29.3853 63.1782 29.3897 65.3501C29.3809 65.7572 29.5521 66.261 29.9963 66.3569C30.3089 66.3797 30.6925 66.4448 30.9366 66.196C31.1789 65.9858 31.2369 65.6473 31.2421 65.3422C31.25 64.7363 31.2421 64.1296 31.2421 63.5247C31.8286 63.5247 32.415 63.5247 33.0024 63.5247C32.9559 64.5912 33.1604 65.7229 32.7013 66.7297C32.5254 67.1171 32.2435 67.4466 31.8883 67.68C31.5331 67.9134 31.1191 68.0413 30.6943 68.0487C30.0315 68.0662 29.3151 68.1067 28.7304 67.7347C27.8937 67.2634 27.5364 66.2575 27.5329 65.3395C27.5214 63.1721 27.5329 61.0046 27.5276 58.8371C27.5223 58.0959 27.6804 57.315 28.1694 56.7365C28.4749 56.3592 28.9235 56.1447 29.3748 55.9996Z" fill="#444543"/>
<path d="M50.2652 56.0849C51.07 55.8345 51.9332 55.8456 52.7313 56.1166C53.2581 56.3531 53.712 56.7453 53.9516 57.2755C54.2317 57.8391 54.287 58.481 54.2809 59.1009C54.2809 61.1233 54.2809 63.1457 54.2809 65.1681C54.2809 65.9691 54.0658 66.822 53.4749 67.3962C52.956 67.9009 52.2142 68.0829 51.511 68.0996C50.7779 68.0996 49.9939 67.9238 49.4505 67.4024C48.8535 66.8273 48.6393 65.9709 48.6366 65.1645C48.6314 63.0832 48.6366 61.0019 48.6366 58.9215C48.6366 58.1662 48.7867 57.3678 49.2845 56.7752C49.533 56.456 49.8982 56.2529 50.2652 56.0849ZM50.9254 57.7353C50.5812 57.9429 50.497 58.3728 50.4961 58.7457C50.4961 60.856 50.4961 62.9707 50.4961 65.0828C50.4961 65.4512 50.5066 65.8741 50.7849 66.1511C51.0571 66.4554 51.5136 66.3885 51.8753 66.3358C52.2879 66.1511 52.4302 65.6693 52.4179 65.2507C52.4179 63.0818 52.4179 60.9149 52.4179 58.7501C52.4302 58.3324 52.2888 57.8523 51.8762 57.6712C51.5654 57.6175 51.2072 57.5709 50.9254 57.7353Z" fill="#444543"/>
<path d="M24.4065 56.0717H26.2643C26.2643 60.0245 26.2643 63.9772 26.2643 67.9299C25.6453 67.9299 25.0272 67.9299 24.4092 67.9299C24.3975 63.9784 24.3966 60.0256 24.4065 56.0717Z" fill="#444543"/>
<path d="M1.9806 56.0717H3.83217C3.84358 58.7509 3.83217 61.4302 3.83743 64.1094C3.82426 64.9008 3.90591 65.7141 3.6399 66.4738C3.54949 66.7594 3.39849 67.0219 3.19724 67.2435C2.996 67.4651 2.74928 67.6405 2.474 67.7576C1.78219 68.0601 1.00785 67.9493 0.27917 67.9335C0.271269 67.3716 0.27917 66.8088 0.27478 66.247C0.733061 66.254 1.27826 66.3929 1.6584 66.0562C1.94198 65.8187 1.98499 65.4222 1.98412 65.0757C1.98178 62.0767 1.9806 59.0754 1.9806 56.0717Z" fill="#444543"/>
<path d="M5.10342 64.9931C5.10342 62.0202 5.10342 59.0464 5.10342 56.0735H6.96464C6.97166 59.1325 6.96464 62.1916 6.96464 65.2507C6.96991 65.5831 7.00678 65.9682 7.28509 66.1933C7.53179 66.436 7.91105 66.3797 8.22447 66.3542C8.67222 66.2566 8.86273 65.7537 8.84956 65.3378C8.85834 62.2497 8.84956 59.1616 8.85483 56.0726H10.6441C10.6502 58.721 10.6441 61.3704 10.6441 64.0188C10.6309 64.8295 10.7143 65.6675 10.4421 66.4474C10.3461 66.7496 10.1887 67.0286 9.97974 67.2668C9.77076 67.505 9.51479 67.6972 9.22795 67.8315C8.43781 68.1832 7.52476 68.1621 6.70214 67.9194C6.19294 67.7075 5.73641 67.3531 5.47918 66.8537C5.1798 66.29 5.10167 65.6306 5.10342 64.9931Z" fill="#444543"/>
<path d="M17.7623 56.0717H23.5058C23.5058 56.6327 23.5058 57.194 23.5058 57.7556C22.864 57.7556 22.2231 57.7556 21.5814 57.7556C21.5375 61.147 21.5814 64.5411 21.5585 67.9335C20.944 67.9335 20.3233 67.9335 19.7052 67.9335C19.6947 64.5411 19.7184 61.1488 19.6929 57.7573C19.0485 57.7573 18.4041 57.7573 17.7615 57.7573C17.7615 57.1955 17.7597 56.6345 17.7623 56.0717Z" fill="#444543"/>
<path d="M34.12 56.0717H39.1874C39.1927 56.6327 39.1874 57.1946 39.1874 57.7556C38.1207 57.7556 37.0532 57.7556 35.9865 57.7556C35.9619 58.8046 35.9795 59.8536 35.9768 60.9035C36.8267 60.9035 37.6768 60.9035 38.5272 60.9035C38.5272 61.4627 38.5272 62.0228 38.5272 62.5838C37.6774 62.5908 36.8284 62.5838 35.9812 62.5838C35.9759 63.8043 35.9636 65.0256 35.9882 66.2461C37.0549 66.2399 38.1216 66.2461 39.1883 66.2461C39.1883 66.8088 39.1927 67.3707 39.1839 67.9335C37.4959 67.9335 35.8074 67.9335 34.1182 67.9335C34.1176 63.9801 34.1182 60.0262 34.12 56.0717Z" fill="#444543"/>
<path d="M42.9564 56.0717H47.8728C47.8781 56.6327 47.8728 57.1946 47.8728 57.7556C46.8641 57.7556 45.8536 57.7617 44.8475 57.7556C44.7728 58.86 44.8334 59.9705 44.815 61.0776H47.2109V62.7632H44.8176C44.8132 64.4875 44.8238 66.2127 44.8115 67.937C44.1969 67.937 43.5753 67.937 42.9573 67.937C42.952 63.9813 42.9517 60.0262 42.9564 56.0717Z" fill="#444543"/>
<path d="M55.5258 56.0717C56.617 56.0788 57.7083 56.0568 58.7987 56.0858C59.0621 56.1438 59.3325 56.1931 59.5976 56.2564C60.0726 56.4481 60.5168 56.7664 60.731 57.2482C61.1191 58.0396 61.0383 58.9444 61.0313 59.7982C61.0146 60.601 60.6854 61.4891 59.9066 61.8364L59.8829 61.9173C60.6476 62.1371 60.9575 62.9637 61.0163 63.6856C61.1094 64.8199 61.0163 65.9621 61.0717 67.0981C61.0938 67.3833 61.1507 67.6648 61.2411 67.9361C60.6137 67.9361 59.9865 67.9361 59.3597 67.9361C59.1411 67.2995 59.1982 66.6172 59.1902 65.9586C59.1859 65.3263 59.1999 64.6941 59.1841 64.0628C59.1613 63.6812 59.0963 63.2283 58.739 63.0076C58.3264 62.7755 57.8382 62.8546 57.387 62.8441C57.387 64.5394 57.3949 66.2347 57.3808 67.9308C56.7663 67.9308 56.1465 67.9308 55.5284 67.9308C55.5278 63.9781 55.5269 60.025 55.5258 56.0717ZM57.387 57.8004C57.3922 58.9206 57.3756 60.0409 57.3975 61.1602C57.8488 61.14 58.3448 61.2376 58.7504 60.9844C59.0849 60.7707 59.1683 60.3434 59.1727 59.974C59.1727 59.5045 59.2008 59.0314 59.142 58.5672C59.1068 58.2621 58.9365 57.9569 58.6398 57.8417C58.2263 57.767 57.804 57.8092 57.387 57.8004Z" fill="#444543"/>
<path d="M62.2683 56.0717H64.1277C64.1356 58.9567 64.1277 61.8425 64.1277 64.7275C64.133 65.096 64.0988 65.4758 64.2094 65.8337C64.3042 66.1054 64.55 66.356 64.852 66.3613C65.1374 66.3736 65.4762 66.4123 65.6948 66.1854C65.9696 65.9621 66.0091 65.5822 66.0153 65.2525C66.0153 62.1916 66.0153 59.1299 66.0153 56.0682H67.8063C67.8124 58.9233 67.8063 61.7836 67.8063 64.6343C67.8186 65.3685 67.7993 66.1397 67.4551 66.8053C67.2662 67.1733 66.9812 67.4831 66.6304 67.7016C66.2796 67.9201 65.8761 68.0391 65.4631 68.046C64.795 68.0618 64.0759 68.1049 63.4868 67.7321C62.6159 67.2476 62.27 66.1942 62.2648 65.2481C62.2612 62.1925 62.2665 59.1325 62.2683 56.0717Z" fill="#444543"/>
<path d="M69.1284 56.0717H71.7842C72.188 58.9215 72.5682 61.774 72.9852 64.622C73.3934 61.7722 73.7753 58.9198 74.1845 56.0708C75.0685 56.0708 75.9517 56.0708 76.8358 56.0708C76.8399 60.0242 76.8399 63.9778 76.8358 67.9317H75.08C75.0668 64.9192 75.0905 61.9059 75.0677 58.8943C74.5857 61.9032 74.1616 64.9219 73.6884 67.9335C73.1705 67.9335 72.6533 67.9335 72.1362 67.9335C71.6841 64.9148 71.2241 61.898 70.7746 58.8767C70.728 61.8944 70.7746 64.9139 70.7544 67.9335H69.1302C69.1261 63.9801 69.1255 60.0262 69.1284 56.0717Z" fill="#444543"/>
</g>
<defs>
<clipPath id="clip0_54_1221">
<rect width="77" height="78" fill="white" transform="translate(0 0.5)"/>
</clipPath>
</defs>
</svg>
