<svg width="77" height="78" viewBox="0 0 77 78" fill="none" xmlns="http://www.w3.org/2000/svg">
<g clip-path="url(#clip0_290_690)">
<path d="M38.0186 0.066824C38.2969 -0.109036 38.5945 0.101117 38.8508 0.216305C45.5231 3.59369 52.4474 6.65893 59.8124 8.13879C62.7368 8.72177 65.6893 9.15174 68.6268 9.66525C69.4398 9.80418 70.2405 10.0108 71.0569 10.1339C71.0966 11.0753 71.084 12.0182 71.0192 12.9582C70.8436 18.4978 70.6232 24.0374 70.201 29.5585H67.8981C68.1721 25.7257 68.3485 21.8866 68.5259 18.0476C68.6136 16.085 68.6593 14.1189 68.6136 12.1563C66.77 11.8204 64.9395 11.4617 63.0932 11.1636C60.6648 10.7415 58.2277 10.3555 55.8362 9.76022C50.458 8.39643 45.3546 6.14982 40.3934 3.69921C39.8464 3.43982 39.3223 3.13294 38.7666 2.89201C38.4979 2.75836 38.1959 2.83838 37.9439 2.96675C34.1144 4.93638 30.1944 6.74774 26.1428 8.20826C22.444 9.55534 18.5864 10.4065 14.7129 11.0642C12.5401 11.4388 10.3549 11.7413 8.18815 12.1519C8.11703 12.7147 8.18815 13.2801 8.18815 13.8437C8.30842 17.6247 8.38919 21.3986 8.63853 25.1691C8.72632 26.6331 8.82992 28.0962 8.92649 29.5594C8.08484 29.5594 7.24291 29.5594 6.40067 29.5594C5.96171 24.1535 5.76242 18.73 5.51484 13.3135C5.52537 12.2583 5.49992 11.197 5.52976 10.1401C5.83792 10.0671 6.14432 9.98708 6.4595 9.93784C8.16093 9.66613 9.85973 9.3786 11.5577 9.08668C13.5049 8.75694 15.4513 8.43424 17.3827 8.04207C23.2447 6.81105 28.8336 4.55213 34.2294 1.98985C35.505 1.37082 36.7851 0.764988 38.0186 0.066824Z" fill="#EF9F3F"/>
<path d="M39.4941 5.43846C39.9208 6.10849 40.207 6.88403 40.1912 7.68771C40.1816 8.46765 39.9629 9.31969 39.3449 9.84023C38.2203 10.7653 36.4995 10.432 35.4688 11.5188C35.4117 10.7336 35.3617 9.84111 35.8832 9.18779C36.4977 8.46677 37.3371 7.9814 38.2053 7.63231C38.6715 7.44502 39.157 7.19266 39.4072 6.73543C39.632 6.33623 39.5073 5.86844 39.4941 5.43846Z" fill="#EF9F3F"/>
<path d="M38.7172 10.534C39.2238 10.3063 39.7303 9.97213 39.9375 9.43048C39.9375 9.84903 39.963 10.2957 39.7444 10.6721C39.6319 10.8808 39.4749 11.0621 39.2844 11.203C39.094 11.3439 38.8748 11.4409 38.6426 11.4872C37.7646 11.6085 36.87 11.5953 35.9824 11.5962L36.007 11.4476C36.4187 11.2366 36.8493 11.065 37.2932 10.935C37.7602 10.789 38.2633 10.7494 38.7172 10.534Z" fill="#EF9F3F"/>
<path d="M33.9438 11.9585H41.6827C41.6889 12.3339 41.6827 12.7103 41.6634 13.0848C39.0958 13.0796 36.5284 13.0796 33.9613 13.0848C33.9411 12.7076 33.9385 12.3322 33.9438 11.9585Z" fill="#EF9F3F"/>
<path d="M33.9492 13.2722C36.5245 13.2616 39.0998 13.2616 41.675 13.2722C41.2633 13.9167 40.8392 14.555 40.4266 15.1996H40.0465C40.0711 15.4889 40.1 15.7782 40.1343 16.0666C42.1149 16.0578 44.085 16.4183 45.9681 17.0232C47.0217 17.3451 48.0102 17.8375 49.0743 18.1153C49.755 18.2913 50.4508 18.4029 51.1523 18.4486C51.6694 18.4943 52.147 18.2648 52.6369 18.1417C52.7844 18.591 52.9468 19.0368 53.0759 19.4932L52.773 19.538C52.7633 19.5811 52.7449 19.6673 52.7352 19.7139C53.7841 21.7275 54.8329 23.7414 55.8818 25.7556C56.0644 25.7556 56.2487 25.7556 56.4331 25.7556C56.4085 26.5179 55.9599 27.1932 55.3638 27.6408C54.4191 28.3548 53.1979 28.6159 52.032 28.5711C50.8846 28.5051 49.6976 28.1314 48.8829 27.2873C48.4842 26.8728 48.2455 26.33 48.2095 25.7556C48.3933 25.7556 48.5776 25.7556 48.7626 25.7556C49.7283 23.793 50.6844 21.826 51.6545 19.8643C50.0549 19.9126 48.4746 19.5125 47.0015 18.9111C44.8619 18.0459 42.5732 17.5042 40.2589 17.4875C41.3236 28.9553 42.3876 40.4232 43.4511 51.891H40.1615C39.9678 50.5316 39.7729 49.1725 39.5768 47.8137H35.8201C35.6243 49.1731 35.4242 50.5325 35.2275 51.8919H32.1749C33.2361 40.4234 34.3004 28.9545 35.368 17.4849C33.3259 17.4796 31.3014 17.9025 29.3796 18.5761C28.5183 18.8926 27.6746 19.2663 26.7835 19.495C25.8274 19.7541 24.84 19.8792 23.8495 19.8669C24.8099 21.8312 25.7733 23.795 26.7396 25.7582H27.2883C27.2585 26.721 26.557 27.5115 25.7467 27.9503C24.4237 28.6643 22.8021 28.7584 21.3825 28.2906C20.5572 28.0118 19.7548 27.5062 19.3308 26.721C19.1613 26.4273 19.1104 26.0888 19.0674 25.7591C19.2529 25.7591 19.4385 25.7573 19.624 25.7538C20.6512 23.7771 21.6801 21.8014 22.7108 19.8264C22.7494 19.7438 22.7986 19.6506 22.7486 19.5627L22.4422 19.4826C22.5484 19.0263 22.7196 18.5902 22.8653 18.147C23.3385 18.2622 23.7977 18.4873 24.2955 18.4547C24.9996 18.4148 25.6982 18.3065 26.3814 18.1312C27.2787 17.9052 28.1233 17.5156 28.9915 17.2061C31.0766 16.4825 33.2759 16.0428 35.4882 16.0674C35.5242 15.7799 35.5541 15.4915 35.576 15.2031H35.1941C34.785 14.555 34.3619 13.9167 33.9492 13.2722ZM37.6313 19.2074C37.163 27.7835 36.6907 36.3593 36.2143 44.9348C37.1982 44.9348 38.1826 44.9348 39.1677 44.9348C38.9207 40.461 38.6702 35.988 38.4162 31.5159C38.1668 27.2627 37.9596 23.0069 37.6848 18.7555C37.6638 18.9049 37.6418 19.0562 37.6313 19.2074ZM23.1629 19.7157C22.1243 21.7319 21.0708 23.7411 20.027 25.752C22.1287 25.7556 24.2308 25.7556 26.3332 25.752C25.3982 23.8035 24.4316 21.8699 23.4834 19.9284C23.4412 19.7842 23.2806 19.7684 23.1629 19.7157ZM52.0943 19.7798C51.1157 21.7688 50.1392 23.7596 49.1647 25.752C51.2676 25.752 53.3697 25.752 55.4709 25.752C54.4419 23.7446 53.3884 21.7495 52.3516 19.7456L52.0943 19.7798Z" fill="#EF9F3F"/>
<path d="M25.5752 69.1331C26.7314 69.1129 27.8877 69.1331 29.0448 69.1235C30.2827 70.1479 31.503 71.1969 32.7883 72.1632C33.7839 72.9159 34.8743 73.527 35.9489 74.1636C36.3755 74.4221 36.8268 74.6428 37.2728 74.8618C37.6125 75.0236 37.9532 75.2346 38.3412 75.239C38.7012 75.2153 39.0286 75.0447 39.357 74.9084C42.5096 73.5349 45.1742 71.3033 47.7922 69.1217C48.8527 69.1217 49.9133 69.1217 50.9738 69.1217L50.9396 69.2721C49.3926 70.6341 47.8264 71.9742 46.2163 73.2623C45.4613 73.8532 44.737 74.4934 43.9205 74.9972C43.104 75.501 42.2656 75.9767 41.4623 76.5061C40.5334 77.089 39.5256 77.5331 38.5115 77.9446C38.0849 78.1205 37.6757 77.8321 37.2938 77.6755C36.2175 77.2165 35.2167 76.6081 34.2123 76.0128C31.611 74.4828 29.3644 72.4446 27.0703 70.5013C26.5725 70.0423 26.0168 69.6449 25.5752 69.1331Z" fill="#EF9F3F"/>
<path d="M11.1696 30.9276H15.6418C16.7737 37.9151 17.9083 44.9023 19.0455 51.8892H15.7515C15.5584 50.5289 15.3608 49.1704 15.1668 47.811H11.4128C11.2187 49.1713 11.0159 50.5298 10.821 51.8892C9.80263 51.8892 8.7851 51.8892 7.76758 51.8892C8.89601 44.9011 10.03 37.9139 11.1696 30.9276ZM12.7498 38.122C12.435 40.393 12.1204 42.6639 11.8061 44.9348C12.7911 44.9348 13.7764 44.9348 14.7621 44.9348C14.2634 41.4546 13.7963 37.969 13.2696 34.4923C13.0598 35.6996 12.9307 36.913 12.7507 38.122H12.7498Z" fill="white"/>
<path d="M20.6318 30.9276H23.9329C23.946 33.8653 23.9092 36.8048 23.9522 39.7426C25.313 36.7925 26.7352 33.8697 28.1127 30.9267C29.2119 30.9267 30.3119 30.9223 31.4111 30.9267C30.1135 33.5013 28.7966 36.0565 27.5017 38.6276C28.8256 43.0476 30.1504 47.4675 31.4761 51.8874C30.3269 51.8874 29.1776 51.8874 28.0284 51.8874C27.1057 48.7712 26.1707 45.6585 25.2506 42.5423C24.8503 43.36 24.4467 44.1769 24.04 44.9929C23.8907 45.2523 23.9381 45.5609 23.932 45.8475C23.9355 47.8605 23.9355 49.8739 23.932 51.8874H20.6318V30.9276Z" fill="white"/>
<path d="M45.042 30.9267H49.1323C49.9567 30.932 50.7899 30.888 51.6028 31.0612C51.7187 31.0929 51.8364 31.121 51.954 31.1492C52.1902 31.2301 52.4237 31.3171 52.6564 31.405C53.0637 31.624 53.4667 31.8746 53.7678 32.2333C54.2568 32.7996 54.5413 33.5171 54.6773 34.2469C54.8582 35.1737 54.7985 36.1216 54.8073 37.0607C54.7985 38.1159 54.6414 39.2247 54.0171 40.1048C53.6756 40.6078 53.162 40.963 52.6125 41.1987C53.2446 41.4115 53.8416 41.7931 54.1778 42.3866C54.6659 43.2466 54.7924 44.2586 54.8266 45.232C54.8468 46.7268 54.8266 48.2216 54.838 49.7165C54.8433 50.4515 54.8881 51.2042 55.1839 51.8874C54.0637 51.8874 52.944 51.8874 51.8249 51.8874C51.641 51.3391 51.547 50.7645 51.5466 50.186C51.5203 48.5356 51.5466 46.8834 51.5308 45.232C51.4975 44.5224 51.4272 43.666 50.7899 43.2237C50.0533 42.77 49.1543 42.9415 48.3317 42.908C48.3317 45.9012 48.3317 48.8943 48.3317 51.8874H45.0429C45.0394 44.9011 45.0391 37.9142 45.042 30.9267ZM48.3413 33.9269C48.3483 35.922 48.3246 37.9171 48.3527 39.9114C48.8198 39.9026 49.2877 39.9219 49.7574 39.9017C50.3158 39.863 50.9295 39.6538 51.2139 39.1341C51.5782 38.4773 51.5071 37.6982 51.5159 36.9745C51.4992 36.2254 51.5914 35.4366 51.2894 34.7288C51.0848 34.2302 50.5493 33.9269 50.0226 33.9304C49.4598 33.919 48.9006 33.9304 48.3413 33.9269Z" fill="white"/>
<path d="M56.188 30.9276H66.372C66.372 31.9274 66.372 32.9271 66.372 33.9269H62.9261V51.891H59.6286C59.6286 45.9029 59.6286 39.9152 59.6286 33.9278C58.4829 33.9278 57.3372 33.9278 56.1906 33.9278C56.1766 32.928 56.188 31.9274 56.188 30.9276Z" fill="white"/>
<path d="M69.1194 30.9276H73.5968C74.7311 37.9151 75.8669 44.9023 77.0041 51.8892C75.904 51.8892 74.8093 51.8892 73.7057 51.8892C73.5134 50.5298 73.315 49.1713 73.1227 47.8119H69.3626C69.1668 49.1713 68.9657 50.5307 68.7691 51.8901H65.7139C66.8446 44.9014 67.9798 37.9139 69.1194 30.9276ZM71.0508 35.5817C70.6236 38.6991 70.1934 41.816 69.7603 44.9322H72.7136C72.215 41.4519 71.7479 37.9664 71.2211 34.4896C71.1456 34.851 71.1053 35.2177 71.0543 35.5817H71.0508Z" fill="white"/>
<path d="M3.02711 30.9276H6.32112C6.32112 36.2825 6.32112 41.6378 6.32112 46.9933C6.30971 48.1997 6.11832 49.4764 5.38261 50.4691C4.6109 51.5243 3.2545 51.9877 1.98852 51.9859C1.32568 51.9807 0.65406 52.0273 0 51.898C0 50.9105 0 49.9222 0 48.9348C0.76468 48.9708 1.62066 49.1467 2.30984 48.7158C2.88225 48.3553 3.02975 47.622 3.02624 46.9915C3.02799 41.6378 3.02828 36.2831 3.02711 30.9276Z" fill="white"/>
<path d="M12.6234 55.9621C13.4636 55.315 14.6295 55.2886 15.6084 55.5849C16.1272 55.7972 16.5525 56.1891 16.8068 56.6893C17.15 57.3681 17.1711 58.1507 17.1474 58.8963C16.5627 58.8963 15.9789 58.8963 15.3915 58.8963C15.3678 58.4066 15.4662 57.8614 15.1852 57.427C14.9894 57.1254 14.5961 57.1043 14.2731 57.1342C13.9386 57.1342 13.6734 57.4165 13.5962 57.726C13.5162 58.0676 13.5164 58.4231 13.5968 58.7645C13.6773 59.106 13.8357 59.4241 14.0597 59.6939C14.7981 60.6233 15.8419 61.2678 16.5118 62.2588C17.1781 63.2032 17.3019 64.4377 17.0851 65.55C16.9367 66.3229 16.4363 67.0448 15.6971 67.3526C15.144 67.6164 14.5171 67.5548 13.9236 67.5487C13.5344 67.5395 13.1544 67.428 12.8217 67.2254C12.489 67.0227 12.2154 66.7361 12.0282 66.3941C11.612 65.645 11.6235 64.7595 11.6472 63.9277C12.2289 63.9277 12.8107 63.9277 13.3925 63.9277C13.432 64.4808 13.281 65.1104 13.6243 65.5984C13.8534 65.9219 14.2897 65.9026 14.6418 65.8622C14.9614 65.8243 15.1966 65.5421 15.2625 65.2396C15.3418 64.8814 15.3431 64.5102 15.2661 64.1515C15.1891 63.7928 15.0358 63.4549 14.8165 63.1609C14.3889 62.5973 13.8376 62.1445 13.317 61.6705C12.5795 60.9557 11.8772 60.1027 11.7288 59.0511C11.5725 57.9722 11.7279 56.6911 12.6234 55.9621Z" fill="white"/>
<path d="M29.3746 55.4996C30.1973 55.3378 31.1024 55.3554 31.8416 55.7951C32.544 56.2048 32.9022 57.0173 32.975 57.8016C33.0228 58.3995 33.0213 59.0004 32.9707 59.598C32.3991 59.5884 31.8293 59.5927 31.2552 59.598C31.2201 59.0274 31.2789 58.4549 31.2165 57.8843C31.1797 57.5255 30.9058 57.1483 30.5212 57.1386C30.2526 57.1254 29.9427 57.0973 29.7249 57.289C29.4141 57.5361 29.3869 57.9678 29.3852 58.3354C29.3896 60.5063 29.3852 62.6782 29.3896 64.8501C29.3808 65.2572 29.552 65.761 29.9962 65.8569C30.3088 65.8797 30.6924 65.9448 30.9365 65.696C31.1788 65.4858 31.2367 65.1473 31.242 64.8422C31.2499 64.2363 31.242 63.6296 31.242 63.0247C31.8285 63.0247 32.4149 63.0247 33.0023 63.0247C32.9557 64.0912 33.1603 65.2229 32.7011 66.2297C32.5253 66.6171 32.2434 66.9466 31.8882 67.18C31.533 67.4134 31.119 67.5413 30.6942 67.5487C30.0313 67.5662 29.3149 67.6067 28.7302 67.2347C27.8936 66.7634 27.5362 65.7575 27.5327 64.8395C27.5213 62.6721 27.5327 60.5046 27.5275 58.3371C27.5222 57.5959 27.6802 56.815 28.1692 56.2365C28.4748 55.8592 28.9234 55.6447 29.3746 55.4996Z" fill="white"/>
<path d="M50.2647 55.5849C51.0695 55.3345 51.9327 55.3456 52.7308 55.6166C53.2576 55.8531 53.7115 56.2453 53.9511 56.7755C54.2312 57.3391 54.2865 57.981 54.2804 58.6009C54.2804 60.6233 54.2804 62.6457 54.2804 64.6681C54.2804 65.4691 54.0653 66.322 53.4744 66.8962C52.9556 67.4009 52.2137 67.5829 51.5105 67.5996C50.7774 67.5996 49.9934 67.4238 49.45 66.9024C48.853 66.3273 48.6388 65.4709 48.6361 64.6645C48.6309 62.5832 48.6361 60.5019 48.6361 58.4215C48.6361 57.6662 48.7863 56.8678 49.284 56.2752C49.5325 55.956 49.8977 55.7529 50.2647 55.5849ZM50.9249 57.2353C50.5808 57.4429 50.4965 57.8728 50.4956 58.2457C50.4956 60.356 50.4956 62.4707 50.4956 64.5828C50.4956 64.9512 50.5061 65.3741 50.7844 65.6511C51.0566 65.9554 51.5131 65.8885 51.8748 65.8358C52.2875 65.6511 52.4297 65.1693 52.4174 64.7507C52.4174 62.5818 52.4174 60.4149 52.4174 58.2501C52.4297 57.8324 52.2883 57.3523 51.8757 57.1712C51.5649 57.1175 51.2067 57.0709 50.9249 57.2353Z" fill="white"/>
<path d="M24.4063 55.5717H26.264C26.264 59.5245 26.264 63.4772 26.264 67.4299C25.645 67.4299 25.027 67.4299 24.4089 67.4299C24.3972 63.4784 24.3963 59.5256 24.4063 55.5717Z" fill="white"/>
<path d="M1.98024 55.5717H3.8318C3.84321 58.2509 3.8318 60.9302 3.83707 63.6094C3.8239 64.4008 3.90555 65.2141 3.63953 65.9738C3.54913 66.2594 3.39812 66.5219 3.19688 66.7435C2.99563 66.9651 2.74891 67.1405 2.47364 67.2576C1.78183 67.5601 1.00749 67.4493 0.278804 67.4335C0.270902 66.8716 0.278804 66.3088 0.274414 65.747C0.732695 65.754 1.27789 65.8929 1.65804 65.5562C1.94161 65.3187 1.98463 64.9222 1.98375 64.5757C1.98141 61.5767 1.98024 58.5754 1.98024 55.5717Z" fill="white"/>
<path d="M5.10354 64.4931C5.10354 61.5202 5.10354 58.5464 5.10354 55.5735H6.96476C6.97179 58.6325 6.96476 61.6916 6.96476 64.7507C6.97003 65.0831 7.0069 65.4682 7.28521 65.6933C7.53191 65.936 7.91117 65.8797 8.2246 65.8542C8.67234 65.7566 8.86285 65.2537 8.84969 64.8378C8.85846 61.7497 8.84968 58.6616 8.85495 55.5726H10.6442C10.6503 58.221 10.6442 60.8704 10.6442 63.5188C10.631 64.3295 10.7144 65.1675 10.4423 65.9474C10.3463 66.2496 10.1888 66.5286 9.97986 66.7668C9.77089 67.005 9.51491 67.1972 9.22807 67.3315C8.43793 67.6832 7.52488 67.6621 6.70226 67.4194C6.19306 67.2075 5.73653 66.8531 5.4793 66.3537C5.17992 65.79 5.10179 65.1306 5.10354 64.4931Z" fill="white"/>
<path d="M17.7622 55.5717H23.5056C23.5056 56.1327 23.5056 56.694 23.5056 57.2556C22.8639 57.2556 22.223 57.2556 21.5812 57.2556C21.5373 60.647 21.5812 64.0411 21.5584 67.4335C20.9438 67.4335 20.3231 67.4335 19.7051 67.4335C19.6945 64.0411 19.7182 60.6488 19.6928 57.2573C19.0484 57.2573 18.404 57.2573 17.7613 57.2573C17.7613 56.6955 17.7596 56.1345 17.7622 55.5717Z" fill="white"/>
<path d="M34.1201 55.5717H39.1876C39.1928 56.1327 39.1876 56.6946 39.1876 57.2556C38.1209 57.2556 37.0533 57.2556 35.9866 57.2556C35.962 58.3046 35.9796 59.3536 35.977 60.4035C36.8268 60.4035 37.6769 60.4035 38.5274 60.4035C38.5274 60.9627 38.5274 61.5228 38.5274 62.0838C37.6775 62.0908 36.8286 62.0838 35.9814 62.0838C35.9761 63.3043 35.9638 64.5256 35.9884 65.7461C37.0551 65.7399 38.1218 65.7461 39.1884 65.7461C39.1884 66.3088 39.1928 66.8707 39.1841 67.4335C37.4961 67.4335 35.8075 67.4335 34.1184 67.4335C34.1178 63.4801 34.1184 59.5262 34.1201 55.5717Z" fill="white"/>
<path d="M42.9564 55.5717H47.8729C47.8781 56.1327 47.8729 56.6946 47.8729 57.2556C46.8641 57.2556 45.8536 57.2617 44.8475 57.2556C44.7729 58.36 44.8335 59.4705 44.815 60.5776H47.2109V62.2632H44.8176C44.8133 63.9875 44.8238 65.7127 44.8115 67.437C44.197 67.437 43.5754 67.437 42.9573 67.437C42.952 63.4813 42.9517 59.5262 42.9564 55.5717Z" fill="white"/>
<path d="M55.5254 55.5717C56.6167 55.5788 57.7079 55.5568 58.7983 55.5858C59.0617 55.6438 59.3321 55.6931 59.5972 55.7564C60.0722 55.9481 60.5164 56.2664 60.7307 56.7482C61.1187 57.5396 61.0379 58.4444 61.0309 59.2982C61.0142 60.101 60.685 60.9891 59.9063 61.3364L59.8826 61.4173C60.6473 61.6371 60.9572 62.4637 61.016 63.1856C61.109 64.3199 61.016 65.4621 61.0713 66.5981C61.0934 66.8833 61.1503 67.1648 61.2407 67.4361C60.6133 67.4361 59.9862 67.4361 59.3593 67.4361C59.1407 66.7995 59.1978 66.1172 59.1899 65.4586C59.1855 64.8263 59.1995 64.1941 59.1837 63.5628C59.1609 63.1812 59.0959 62.7283 58.7386 62.5076C58.326 62.2755 57.8379 62.3546 57.3866 62.3441C57.3866 64.0394 57.3945 65.7347 57.3805 67.4308C56.7659 67.4308 56.1461 67.4308 55.528 67.4308C55.5274 63.4781 55.5266 59.525 55.5254 55.5717ZM57.3866 57.3004C57.3919 58.4206 57.3752 59.5409 57.3971 60.6602C57.8484 60.64 58.3444 60.7376 58.75 60.4844C59.0845 60.2707 59.1679 59.8434 59.1723 59.474C59.1723 59.0045 59.2004 58.5314 59.1416 58.0672C59.1065 57.7621 58.9362 57.4569 58.6394 57.3417C58.2259 57.267 57.8036 57.3092 57.3866 57.3004Z" fill="white"/>
<path d="M62.2684 55.5717H64.1278C64.1357 58.4567 64.1278 61.3425 64.1278 64.2275C64.1331 64.596 64.0989 64.9758 64.2095 65.3337C64.3043 65.6054 64.5501 65.856 64.8521 65.8613C65.1375 65.8736 65.4763 65.9123 65.6949 65.6854C65.9697 65.4621 66.0092 65.0822 66.0154 64.7525C66.0154 61.6916 66.0154 58.6299 66.0154 55.5682H67.8064C67.8125 58.4233 67.8064 61.2836 67.8064 64.1343C67.8187 64.8685 67.7993 65.6397 67.4552 66.3053C67.2663 66.6733 66.9813 66.9831 66.6305 67.2016C66.2797 67.4201 65.8762 67.5391 65.4632 67.546C64.7951 67.5618 64.076 67.6049 63.4869 67.2321C62.616 66.7476 62.2701 65.6942 62.2649 64.7481C62.2613 61.6925 62.2666 58.6325 62.2684 55.5717Z" fill="white"/>
<path d="M69.1288 55.5717H71.7845C72.1884 58.4215 72.5685 61.274 72.9855 64.122C73.3938 61.2722 73.7757 58.4198 74.1848 55.5708C75.0689 55.5708 75.9521 55.5708 76.8362 55.5708C76.8403 59.5242 76.8403 63.4778 76.8362 67.4317H75.0803C75.0671 64.4192 75.0908 61.4059 75.068 58.3943C74.586 61.4032 74.162 64.4219 73.6888 67.4335C73.1708 67.4335 72.6537 67.4335 72.1366 67.4335C71.6844 64.4148 71.2244 61.398 70.7749 58.3767C70.7284 61.3944 70.7749 64.4139 70.7547 67.4335H69.1305C69.1264 63.4801 69.1259 59.5262 69.1288 55.5717Z" fill="white"/>
</g>
<defs>
<clipPath id="clip0_290_690">
<rect width="77" height="78" fill="white"/>
</clipPath>
</defs>
</svg>
